{"glyphs":{"0":{"ha":875,"x_min":36,"x_max":839,"o":"m 435 3 q 133 105 229 3 q 36 410 36 207 q 74 645 36 551 q 198 784 111 738 q 431 831 284 831 q 744 728 650 831 q 839 410 839 625 q 737 107 839 210 q 435 3 635 3 m 436 559 q 311 531 360 559 q 261 416 261 503 q 311 302 261 332 q 435 273 360 273 q 563 304 512 273 q 614 421 614 335 q 590 507 614 477 q 525 548 566 537 q 436 559 485 559 z "},"1":{"ha":447,"x_min":21,"x_max":370,"o":"m 21 783 q 56 818 21 818 l 334 818 q 369 783 369 818 q 368 635 369 709 q 368 488 368 562 q 369 262 368 375 q 370 35 370 149 q 335 0 370 0 l 161 0 q 125 35 125 0 q 126 286 125 161 q 127 536 127 411 q 112 549 127 549 q 75 547 96 549 q 38 551 54 545 q 22 582 22 557 q 22 682 22 632 q 21 783 21 732 z "},"2":{"ha":718,"x_min":35,"x_max":673,"o":"m 134 0 q 107 3 125 0 q 90 20 90 5 q 97 39 90 30 q 110 55 104 48 q 196 143 149 97 q 289 240 243 190 q 370 343 334 290 q 423 452 406 397 q 429 475 425 460 q 433 498 433 491 q 408 564 433 538 q 343 590 384 590 q 279 575 308 590 q 250 519 250 560 q 258 482 250 496 q 274 457 267 468 q 282 434 282 447 q 279 421 282 427 q 271 410 275 415 q 229 355 254 385 q 185 302 205 325 q 175 293 180 297 q 161 288 169 288 q 140 296 151 288 q 83 364 106 323 q 47 451 59 405 q 35 539 35 497 q 76 692 35 627 q 188 792 118 756 q 342 827 258 827 l 356 827 q 511 791 439 827 q 628 691 583 755 q 673 538 673 626 q 652 435 673 486 q 606 341 632 384 q 559 272 580 298 q 539 241 539 245 q 545 236 539 237 q 553 235 551 235 l 625 235 q 660 200 658 235 q 661 166 661 183 q 661 132 660 149 q 662 84 661 109 q 663 36 663 60 q 627 0 663 0 l 134 0 z "},"3":{"ha":676,"x_min":42,"x_max":619,"o":"m 555 818 q 582 814 567 818 q 597 795 597 810 q 582 759 597 786 q 544 696 566 732 q 499 625 522 660 q 461 564 476 589 q 446 534 446 539 q 455 525 446 528 q 579 430 538 492 q 619 278 619 367 q 576 124 619 189 q 463 25 534 60 q 306 -9 392 -9 q 220 0 267 -9 q 129 28 173 10 q 55 71 85 46 q 46 82 50 76 q 42 94 42 87 q 44 104 42 100 q 47 113 45 109 q 89 191 67 152 q 132 269 111 231 q 144 288 137 278 q 164 297 152 297 q 190 286 176 297 q 225 263 203 275 q 281 252 246 252 q 317 255 296 252 q 353 268 338 258 q 369 294 369 277 q 351 323 369 312 q 306 341 332 335 q 254 349 279 347 q 215 351 229 351 q 191 351 203 351 q 167 352 179 352 q 162 357 162 352 q 176 384 162 359 q 211 442 191 408 q 253 512 232 477 q 288 571 274 547 q 302 600 302 596 q 298 606 302 605 q 290 607 293 607 l 131 607 q 96 642 96 607 q 96 712 96 677 q 95 783 95 747 q 130 818 95 818 l 555 818 z "},"4":{"ha":766,"x_min":31,"x_max":730,"o":"m 417 0 q 382 35 382 0 l 382 136 q 372 147 382 147 l 71 147 q 45 151 60 147 q 31 170 31 155 q 34 185 31 178 q 41 199 37 192 q 142 386 92 292 q 243 572 193 479 q 306 691 275 631 q 370 808 337 751 q 401 827 380 827 l 591 827 q 625 791 625 827 q 625 627 625 709 q 624 462 624 545 l 624 341 q 635 330 624 330 l 694 330 q 729 295 727 330 q 730 239 730 267 q 730 182 730 210 q 714 150 730 156 q 678 146 699 144 q 642 149 657 149 q 626 136 626 149 l 627 35 q 593 0 627 0 l 417 0 m 260 330 l 382 330 l 382 557 l 260 330 z "},"5":{"ha":701,"x_min":43,"x_max":656,"o":"m 340 -9 q 242 1 295 -9 q 141 31 190 12 q 56 79 92 51 q 43 103 43 90 q 44 113 43 109 q 48 121 46 117 q 72 163 60 142 q 95 203 83 183 q 111 233 103 218 q 128 262 119 248 q 140 276 134 271 q 158 281 147 281 q 176 278 166 281 q 269 265 220 265 q 304 266 281 265 q 351 270 327 266 q 391 284 374 274 q 408 313 408 294 q 391 340 408 331 q 351 353 374 349 q 304 356 327 356 q 269 356 281 356 q 214 350 241 356 q 161 335 188 345 q 149 331 155 333 q 137 330 143 330 q 115 342 120 330 q 111 369 111 355 q 110 576 111 472 q 110 783 110 680 q 144 818 110 818 l 549 818 q 583 783 583 818 q 583 697 583 740 q 582 611 582 654 q 547 576 582 576 l 328 576 q 317 565 317 576 q 316 545 317 557 q 328 532 316 532 l 347 532 q 494 504 423 532 q 610 420 564 476 q 656 279 656 364 q 611 130 656 195 q 493 27 566 64 q 340 -9 421 -9 z "},"6":{"ha":771,"x_min":31,"x_max":742,"o":"m 395 -9 q 200 38 282 -9 q 75 169 119 85 q 31 363 31 253 q 79 569 31 475 q 207 736 127 663 q 381 856 286 809 q 397 860 389 860 q 422 846 412 860 l 530 711 q 540 697 535 705 q 545 681 545 689 q 532 662 545 668 q 510 652 520 655 q 435 621 471 638 q 368 575 400 603 q 354 563 366 574 q 341 547 341 551 q 345 544 341 544 q 364 548 353 544 q 382 553 375 551 q 467 566 422 566 q 668 496 594 566 q 742 296 742 426 q 694 128 742 196 q 567 25 646 60 q 395 -9 488 -9 m 280 280 q 300 255 280 262 q 345 245 320 247 q 381 243 369 243 q 422 247 396 243 q 470 261 448 250 q 491 293 491 272 q 471 319 491 311 q 426 329 450 327 q 389 330 401 330 q 352 329 377 330 q 305 321 327 328 q 281 299 283 315 q 280 290 280 294 q 280 280 280 285 z "},"7":{"ha":664,"x_min":36,"x_max":635,"o":"m 597 818 q 623 813 610 818 q 635 793 635 808 q 633 782 635 787 q 629 770 631 776 q 538 529 584 650 q 447 288 492 409 l 384 119 q 366 71 375 95 q 347 22 357 46 q 315 0 338 0 l 118 0 q 93 4 105 0 q 80 25 80 9 q 86 49 80 35 q 189 290 136 170 q 290 530 241 410 q 291 538 291 534 q 279 546 291 546 l 73 546 q 38 581 38 546 q 37 682 38 631 q 36 783 36 732 q 71 818 36 818 l 597 818 z "},"8":{"ha":682,"x_min":17,"x_max":665,"o":"m 17 281 q 50 401 17 355 q 140 488 83 448 q 146 498 146 492 q 142 507 146 500 q 106 564 115 536 q 97 631 97 591 q 136 742 97 698 q 234 806 176 785 q 351 827 293 827 q 432 816 389 827 q 514 782 475 804 q 576 725 552 759 q 600 646 600 690 q 589 569 600 598 q 545 507 578 540 q 539 497 539 501 q 546 488 539 492 q 633 401 601 447 q 665 283 665 356 q 619 132 665 198 q 501 28 574 66 q 347 -9 429 -9 l 336 -9 q 182 27 255 -9 q 63 130 109 64 q 17 281 17 196 m 273 607 q 294 564 273 578 q 340 551 314 551 q 385 564 368 551 q 401 607 401 578 q 384 649 401 636 q 338 662 366 662 q 293 649 313 662 q 273 607 273 636 m 256 292 q 281 240 256 254 q 338 227 305 227 q 396 240 370 227 q 421 290 421 254 q 394 341 421 328 q 335 353 367 353 q 281 339 306 353 q 256 292 256 326 z "},"9":{"ha":785,"x_min":31,"x_max":766,"o":"m 324 263 q 177 296 243 263 q 71 389 110 328 q 31 534 31 450 q 81 707 31 635 q 213 815 131 778 q 389 853 294 853 q 529 829 462 853 q 650 759 597 804 q 735 650 704 713 q 766 510 766 587 q 729 326 766 406 q 630 183 692 245 q 490 72 568 121 q 326 -17 411 23 q 309 -22 317 -22 q 295 -18 300 -22 q 284 -7 290 -14 q 230 59 259 22 q 177 127 200 96 q 168 142 172 134 q 163 158 163 149 q 176 177 163 172 q 199 185 189 182 q 291 213 252 201 q 380 254 330 224 q 390 260 380 254 q 400 268 400 265 q 395 270 400 270 q 361 267 378 270 q 324 263 343 263 m 388 468 q 519 514 463 468 l 519 551 q 516 559 519 554 q 511 566 513 564 q 456 595 494 587 q 392 603 418 603 q 339 598 370 603 q 287 580 309 594 q 264 534 264 566 q 286 490 264 505 q 337 472 308 476 q 388 468 366 468 z "},"A":{"ha":964,"x_min":26,"x_max":937,"o":"m 66 0 q 40 4 54 0 q 26 24 26 8 q 29 38 26 31 q 35 50 32 44 q 157 309 96 180 q 277 569 218 439 q 373 784 326 676 q 472 998 420 892 q 481 1004 475 1004 q 491 998 488 1004 q 590 784 543 892 q 686 569 637 676 q 807 309 746 438 q 929 50 867 180 q 935 38 932 44 q 937 24 937 31 q 923 4 937 8 q 898 0 909 0 l 679 0 q 659 6 665 0 q 646 23 652 12 q 625 81 633 51 q 604 140 616 111 q 594 147 601 147 l 331 147 q 321 142 325 147 q 321 140 321 141 q 320 138 321 139 q 303 97 312 117 q 287 56 295 77 q 280 39 283 48 q 273 22 277 30 q 260 5 267 11 q 241 0 254 0 l 66 0 m 399 339 l 534 339 q 503 431 519 385 q 471 523 487 477 q 436 431 454 477 q 399 339 418 385 z "},"Á":{"ha":964,"x_min":26,"x_max":937,"o":"m 66 0 q 40 4 54 0 q 26 24 26 8 q 29 38 26 31 q 35 50 32 44 q 157 309 96 180 q 277 569 218 439 q 373 784 326 676 q 472 998 420 892 q 481 1004 475 1004 q 491 998 488 1004 q 590 784 543 892 q 686 569 637 676 q 807 309 746 438 q 929 50 867 180 q 935 38 932 44 q 937 24 937 31 q 923 4 937 8 q 898 0 909 0 l 679 0 q 659 6 665 0 q 646 23 652 12 q 625 81 633 51 q 604 140 616 111 q 594 147 601 147 l 331 147 q 321 142 325 147 q 321 140 321 141 q 320 138 321 139 q 303 97 312 117 q 287 56 295 77 q 280 39 283 48 q 273 22 277 30 q 260 5 267 11 q 241 0 254 0 l 66 0 m 399 339 l 534 339 q 503 431 519 385 q 471 523 487 477 q 436 431 454 477 q 399 339 418 385 m 685 1265 q 705 1264 691 1265 q 730 1259 718 1263 q 741 1246 741 1255 q 727 1221 741 1234 q 706 1202 713 1208 q 607 1124 655 1161 q 580 1101 594 1113 q 553 1080 566 1090 q 531 1072 543 1072 l 471 1072 q 444 1076 460 1072 q 429 1095 429 1079 q 440 1123 429 1102 q 469 1171 452 1145 q 501 1218 486 1196 q 522 1249 516 1240 q 551 1265 534 1265 l 685 1265 z "},"Â":{"ha":964,"x_min":26,"x_max":937,"o":"m 66 0 q 40 4 54 0 q 26 24 26 8 q 29 38 26 31 q 35 50 32 44 q 157 309 96 180 q 277 569 218 439 q 373 784 326 676 q 472 998 420 892 q 481 1004 475 1004 q 491 998 488 1004 q 590 784 543 892 q 686 569 637 676 q 807 309 746 438 q 929 50 867 180 q 935 38 932 44 q 937 24 937 31 q 923 4 937 8 q 898 0 909 0 l 679 0 q 659 6 665 0 q 646 23 652 12 q 625 81 633 51 q 604 140 616 111 q 594 147 601 147 l 331 147 q 321 142 325 147 q 321 140 321 141 q 320 138 321 139 q 303 97 312 117 q 287 56 295 77 q 280 39 283 48 q 273 22 277 30 q 260 5 267 11 q 241 0 254 0 l 66 0 m 399 339 l 534 339 q 503 431 519 385 q 471 523 487 477 q 436 431 454 477 q 399 339 418 385 m 576 1086 q 536 1106 559 1086 q 491 1146 513 1126 q 460 1166 470 1166 q 437 1151 456 1166 q 401 1117 419 1135 q 378 1095 382 1099 q 354 1086 368 1086 l 256 1086 q 226 1089 248 1086 q 205 1106 205 1091 q 216 1128 205 1117 q 233 1147 227 1140 q 336 1241 285 1194 q 441 1333 388 1289 q 452 1340 447 1337 q 465 1343 458 1343 q 477 1340 471 1343 q 488 1333 483 1337 q 593 1241 541 1288 q 698 1147 646 1194 q 716 1128 705 1140 q 727 1106 727 1117 q 706 1089 727 1091 q 675 1086 684 1086 l 576 1086 z "},"Ä":{"ha":964,"x_min":26,"x_max":937,"o":"m 66 0 q 40 4 54 0 q 26 24 26 8 q 29 38 26 31 q 35 50 32 44 q 157 309 96 180 q 277 569 218 439 q 373 784 326 676 q 472 998 420 892 q 481 1004 475 1004 q 491 998 488 1004 q 590 784 543 892 q 686 569 637 676 q 807 309 746 438 q 929 50 867 180 q 935 38 932 44 q 937 24 937 31 q 923 4 937 8 q 898 0 909 0 l 679 0 q 659 6 665 0 q 646 23 652 12 q 625 81 633 51 q 604 140 616 111 q 594 147 601 147 l 331 147 q 321 142 325 147 q 321 140 321 141 q 320 138 321 139 q 303 97 312 117 q 287 56 295 77 q 280 39 283 48 q 273 22 277 30 q 260 5 267 11 q 241 0 254 0 l 66 0 m 399 339 l 534 339 q 503 431 519 385 q 471 523 487 477 q 436 431 454 477 q 399 339 418 385 m 193 1174 q 229 1253 193 1220 q 309 1285 264 1285 q 389 1253 354 1285 q 425 1175 425 1221 q 388 1098 425 1130 q 308 1066 352 1066 q 229 1097 264 1066 q 193 1174 193 1128 m 518 1171 q 555 1252 518 1219 q 638 1285 591 1285 q 715 1254 681 1285 q 749 1179 749 1223 q 713 1100 749 1133 q 632 1066 677 1066 q 553 1096 589 1066 q 518 1171 518 1125 z "},"À":{"ha":964,"x_min":26,"x_max":937,"o":"m 66 0 q 40 4 54 0 q 26 24 26 8 q 29 38 26 31 q 35 50 32 44 q 157 309 96 180 q 277 569 218 439 q 373 784 326 676 q 472 998 420 892 q 481 1004 475 1004 q 491 998 488 1004 q 590 784 543 892 q 686 569 637 676 q 807 309 746 438 q 929 50 867 180 q 935 38 932 44 q 937 24 937 31 q 923 4 937 8 q 898 0 909 0 l 679 0 q 659 6 665 0 q 646 23 652 12 q 625 81 633 51 q 604 140 616 111 q 594 147 601 147 l 331 147 q 321 142 325 147 q 321 140 321 141 q 320 138 321 139 q 303 97 312 117 q 287 56 295 77 q 280 39 283 48 q 273 22 277 30 q 260 5 267 11 q 241 0 254 0 l 66 0 m 399 339 l 534 339 q 503 431 519 385 q 471 523 487 477 q 436 431 454 477 q 399 339 418 385 m 407 1076 q 383 1086 393 1076 q 316 1147 349 1116 q 248 1209 282 1178 q 230 1228 241 1216 q 219 1251 219 1240 q 241 1268 219 1265 q 271 1270 262 1270 l 412 1270 q 442 1251 432 1270 q 458 1221 447 1242 q 483 1174 470 1199 q 504 1128 495 1149 q 513 1100 513 1107 q 499 1080 513 1084 q 474 1076 486 1076 l 407 1076 z "},"Å":{"ha":964,"x_min":26,"x_max":937,"o":"m 66 0 q 40 4 54 0 q 26 24 26 8 q 29 38 26 31 q 35 50 32 44 q 157 309 96 180 q 277 569 218 439 q 373 784 326 676 q 472 998 420 892 q 481 1004 475 1004 q 491 998 488 1004 q 590 784 543 892 q 686 569 637 676 q 807 309 746 438 q 929 50 867 180 q 935 38 932 44 q 937 24 937 31 q 923 4 937 8 q 898 0 909 0 l 679 0 q 659 6 665 0 q 646 23 652 12 q 625 81 633 51 q 604 140 616 111 q 594 147 601 147 l 331 147 q 321 142 325 147 q 321 140 321 141 q 320 138 321 139 q 303 97 312 117 q 287 56 295 77 q 280 39 283 48 q 273 22 277 30 q 260 5 267 11 q 241 0 254 0 l 66 0 m 399 339 l 534 339 q 503 431 519 385 q 471 523 487 477 q 436 431 454 477 q 399 339 418 385 m 308 1210 q 333 1295 308 1261 q 400 1345 359 1329 q 488 1362 441 1362 q 613 1323 559 1362 q 667 1208 667 1285 q 641 1124 667 1158 q 573 1071 614 1089 q 486 1053 532 1053 q 399 1071 440 1053 q 333 1125 359 1090 q 308 1210 308 1160 m 425 1205 q 443 1162 425 1177 q 488 1147 461 1147 q 533 1164 515 1147 q 551 1208 551 1180 q 533 1251 551 1237 q 488 1265 516 1265 q 443 1250 460 1265 q 425 1205 425 1235 z "},"Ã":{"ha":964,"x_min":26,"x_max":937,"o":"m 66 0 q 40 4 54 0 q 26 24 26 8 q 29 38 26 31 q 35 50 32 44 q 157 309 96 180 q 277 569 218 439 q 373 784 326 676 q 472 998 420 892 q 481 1004 475 1004 q 491 998 488 1004 q 590 784 543 892 q 686 569 637 676 q 807 309 746 438 q 929 50 867 180 q 935 38 932 44 q 937 24 937 31 q 923 4 937 8 q 898 0 909 0 l 679 0 q 659 6 665 0 q 646 23 652 12 q 625 81 633 51 q 604 140 616 111 q 594 147 601 147 l 331 147 q 321 142 325 147 q 321 140 321 141 q 320 138 321 139 q 303 97 312 117 q 287 56 295 77 q 280 39 283 48 q 273 22 277 30 q 260 5 267 11 q 241 0 254 0 l 66 0 m 399 339 l 534 339 q 503 431 519 385 q 471 523 487 477 q 436 431 454 477 q 399 339 418 385 m 615 1131 q 535 1145 569 1131 q 474 1178 500 1159 q 426 1211 448 1196 q 380 1225 404 1225 q 344 1211 353 1225 q 332 1179 335 1197 q 321 1147 329 1161 q 289 1133 313 1133 q 255 1132 273 1133 q 224 1138 237 1131 q 211 1167 211 1145 q 261 1304 211 1249 q 395 1360 311 1360 q 461 1344 431 1360 q 519 1309 492 1329 q 568 1273 545 1289 q 611 1258 591 1258 q 648 1278 639 1258 q 660 1320 656 1297 q 670 1345 663 1337 q 696 1354 677 1354 q 723 1355 709 1355 q 750 1355 736 1355 q 783 1325 783 1355 q 762 1234 783 1278 q 704 1160 741 1189 q 615 1131 667 1131 z "},"Æ":{"ha":1202,"x_min":27,"x_max":1156,"o":"m 27 22 q 31 39 27 31 q 40 54 35 47 q 197 299 119 176 q 351 545 275 421 q 476 749 414 646 q 604 951 538 851 q 633 968 614 968 l 1105 968 q 1140 931 1140 968 q 1139 891 1140 911 q 1137 850 1138 871 q 1137 814 1137 833 q 1135 777 1137 795 q 1101 743 1133 743 l 880 743 q 869 732 869 743 q 867 668 866 704 q 867 603 867 633 q 877 592 867 593 l 1053 569 q 1082 534 1082 565 l 1082 437 q 1054 403 1082 408 l 877 372 q 867 361 867 370 q 867 297 867 334 q 869 235 866 261 q 880 224 869 224 l 1116 224 q 1151 191 1149 224 q 1152 154 1152 172 q 1153 117 1152 135 q 1155 77 1154 97 q 1156 36 1156 56 q 1121 0 1156 0 l 648 0 q 614 35 614 0 l 614 182 q 602 194 614 194 l 410 194 q 401 188 404 194 q 358 104 378 149 q 315 19 338 59 q 284 0 304 0 l 69 0 q 43 3 58 0 q 27 22 27 7 m 494 376 l 614 376 l 614 620 l 494 376 z "},"B":{"ha":888,"x_min":77,"x_max":841,"o":"m 77 932 q 113 968 77 968 l 424 968 q 547 957 482 968 q 667 919 611 946 q 758 845 723 892 q 793 725 793 798 q 767 613 793 663 q 693 526 741 564 q 688 522 690 524 q 685 516 685 519 q 688 510 685 512 q 694 506 692 507 q 800 418 759 469 q 841 288 841 367 q 808 150 841 205 q 721 61 776 94 q 599 14 667 28 q 460 0 531 0 l 113 0 q 77 36 77 0 q 79 108 77 72 q 81 180 80 144 q 83 332 82 256 q 83 484 83 408 q 83 636 83 560 q 81 787 82 711 q 79 860 80 823 q 77 932 77 896 m 440 591 q 502 614 476 591 q 528 674 528 637 q 498 728 528 712 q 435 743 467 743 l 336 743 q 336 667 336 705 q 336 591 336 629 l 440 591 m 443 217 q 500 222 469 217 q 555 244 532 228 q 578 295 578 261 q 553 347 578 332 q 495 364 528 361 q 435 367 461 367 l 336 367 q 336 292 336 330 q 336 217 336 255 l 443 217 z "},"C":{"ha":865,"x_min":47,"x_max":815,"o":"m 715 273 q 734 264 728 273 q 745 245 741 255 q 760 216 749 239 q 784 166 771 193 q 806 118 797 140 q 815 92 815 97 q 803 70 815 80 q 721 25 770 43 q 618 -1 671 7 q 524 -10 566 -10 q 268 54 374 -10 q 104 231 161 118 q 47 490 47 344 q 99 739 47 629 q 251 913 151 849 q 496 978 351 978 q 637 961 560 978 q 770 907 715 943 q 782 897 777 903 q 787 882 787 891 q 778 853 787 877 q 756 799 768 829 q 732 743 743 768 q 718 710 721 718 q 708 694 713 701 q 691 686 703 686 q 655 703 678 686 q 600 736 631 720 q 530 753 568 753 q 410 714 459 753 q 336 613 361 674 q 311 488 311 553 q 336 354 311 416 q 411 253 360 292 q 541 214 462 214 q 616 226 581 214 q 684 259 652 238 q 699 268 692 264 q 715 273 707 273 z "},"Ç":{"ha":865,"x_min":47,"x_max":815,"o":"m 715 273 q 734 264 728 273 q 745 245 741 255 q 760 216 749 239 q 784 166 771 193 q 806 118 797 140 q 815 92 815 97 q 803 70 815 80 q 721 25 770 43 q 618 -1 671 7 q 524 -10 566 -10 q 268 54 374 -10 q 104 231 161 118 q 47 490 47 344 q 99 739 47 629 q 251 913 151 849 q 496 978 351 978 q 637 961 560 978 q 770 907 715 943 q 782 897 777 903 q 787 882 787 891 q 778 853 787 877 q 756 799 768 829 q 732 743 743 768 q 718 710 721 718 q 708 694 713 701 q 691 686 703 686 q 655 703 678 686 q 600 736 631 720 q 530 753 568 753 q 410 714 459 753 q 336 613 361 674 q 311 488 311 553 q 336 354 311 416 q 411 253 360 292 q 541 214 462 214 q 616 226 581 214 q 684 259 652 238 q 699 268 692 264 q 715 273 707 273 m 290 -272 q 303 -244 290 -260 q 325 -220 317 -229 q 337 -209 330 -214 q 353 -205 345 -205 q 392 -217 369 -205 q 450 -229 416 -229 q 485 -224 464 -229 q 522 -209 506 -220 q 538 -180 538 -198 q 523 -151 538 -160 q 486 -138 507 -141 q 451 -136 466 -136 q 409 -140 430 -136 q 372 -145 388 -145 q 342 -120 349 -145 q 333 -92 339 -107 q 328 -64 328 -77 q 345 -36 328 -46 q 374 -17 353 -31 q 414 7 394 -4 q 444 19 435 19 l 574 20 q 586 19 578 20 q 593 12 593 18 q 584 -5 593 5 q 564 -24 574 -15 q 553 -39 553 -33 q 559 -45 553 -44 q 568 -47 565 -46 q 642 -66 605 -52 q 704 -108 679 -81 q 729 -180 729 -135 q 703 -260 729 -229 q 637 -310 677 -292 q 553 -335 597 -328 q 470 -342 508 -342 q 383 -331 428 -342 q 304 -294 338 -319 q 290 -272 290 -284 z "},"D":{"ha":990,"x_min":78,"x_max":941,"o":"m 113 0 q 78 36 78 0 q 79 106 78 71 q 81 176 81 141 q 83 330 83 253 q 84 484 84 407 q 83 638 84 561 q 81 791 83 715 q 79 862 81 827 q 78 932 78 897 q 113 968 78 968 l 398 968 q 681 911 558 968 q 872 743 803 855 q 941 463 941 631 q 876 215 941 319 q 697 56 810 111 q 446 0 585 0 l 113 0 m 336 224 l 407 224 q 607 286 534 224 q 679 479 679 347 q 659 614 679 553 q 590 710 638 675 q 458 746 541 746 l 336 746 q 336 224 338 486 z "},"Ð":{"ha":990,"x_min":-55,"x_max":941,"o":"m 113 0 q 78 36 78 0 q 79 106 78 71 q 81 176 81 141 q 83 330 83 253 q 84 484 84 407 q 83 638 84 561 q 81 791 83 715 q 79 862 81 827 q 78 932 78 897 q 113 968 78 968 l 398 968 q 681 911 558 968 q 872 743 803 855 q 941 463 941 631 q 876 215 941 319 q 697 56 810 111 q 446 0 585 0 l 113 0 m 336 224 l 407 224 q 607 286 534 224 q 679 479 679 347 q 659 614 679 553 q 590 710 638 675 q 458 746 541 746 l 336 746 q 336 224 338 486 m -55 543 q -20 577 -55 577 l 413 577 q 448 543 448 577 q 447 478 448 511 q 447 414 447 446 q 412 379 447 379 l -20 379 q -55 414 -55 379 l -55 543 z "},"E":{"ha":785,"x_min":77,"x_max":739,"o":"m 77 932 q 112 968 77 968 l 688 968 q 724 932 724 968 q 723 888 724 910 q 722 845 722 867 q 722 811 721 828 q 721 778 722 795 q 686 743 719 743 l 347 743 q 335 732 335 743 l 336 597 q 347 587 336 587 l 635 587 q 670 551 670 587 l 670 421 q 635 386 670 386 l 347 386 q 336 375 336 386 l 335 235 q 347 224 335 224 l 701 224 q 736 191 734 224 q 739 113 738 154 q 739 36 739 73 q 704 0 739 0 l 112 0 q 77 35 77 0 q 78 107 77 71 q 80 180 79 144 q 82 332 81 256 q 83 484 83 408 q 82 636 83 560 q 80 788 81 712 q 78 860 79 824 q 77 932 77 897 z "},"É":{"ha":785,"x_min":77,"x_max":739,"o":"m 77 932 q 112 968 77 968 l 688 968 q 724 932 724 968 q 723 888 724 910 q 722 845 722 867 q 722 811 721 828 q 721 778 722 795 q 686 743 719 743 l 347 743 q 335 732 335 743 l 336 597 q 347 587 336 587 l 635 587 q 670 551 670 587 l 670 421 q 635 386 670 386 l 347 386 q 336 375 336 386 l 335 235 q 347 224 335 224 l 701 224 q 736 191 734 224 q 739 113 738 154 q 739 36 739 73 q 704 0 739 0 l 112 0 q 77 35 77 0 q 78 107 77 71 q 80 180 79 144 q 82 332 81 256 q 83 484 83 408 q 82 636 83 560 q 80 788 81 712 q 78 860 79 824 q 77 932 77 897 m 611 1232 q 631 1232 617 1232 q 656 1227 644 1231 q 667 1213 667 1223 q 653 1189 667 1202 q 632 1170 640 1176 q 533 1091 581 1128 q 506 1069 520 1080 q 479 1047 492 1057 q 457 1040 469 1040 l 397 1040 q 370 1043 386 1040 q 355 1062 355 1046 q 367 1091 355 1069 q 395 1138 378 1112 q 427 1186 412 1164 q 448 1217 442 1208 q 477 1232 460 1232 l 611 1232 z "},"Ê":{"ha":785,"x_min":77,"x_max":739,"o":"m 77 932 q 112 968 77 968 l 688 968 q 724 932 724 968 q 723 888 724 910 q 722 845 722 867 q 722 811 721 828 q 721 778 722 795 q 686 743 719 743 l 347 743 q 335 732 335 743 l 336 597 q 347 587 336 587 l 635 587 q 670 551 670 587 l 670 421 q 635 386 670 386 l 347 386 q 336 375 336 386 l 335 235 q 347 224 335 224 l 701 224 q 736 191 734 224 q 739 113 738 154 q 739 36 739 73 q 704 0 739 0 l 112 0 q 77 35 77 0 q 78 107 77 71 q 80 180 79 144 q 82 332 81 256 q 83 484 83 408 q 82 636 83 560 q 80 788 81 712 q 78 860 79 824 q 77 932 77 897 m 503 1054 q 462 1074 486 1054 q 417 1114 439 1094 q 386 1134 396 1134 q 363 1118 382 1134 q 327 1084 345 1102 q 304 1063 309 1067 q 280 1054 294 1054 l 182 1054 q 152 1056 174 1054 q 131 1074 131 1059 q 142 1096 131 1084 q 159 1114 153 1107 q 262 1209 211 1162 q 368 1301 314 1256 q 378 1308 373 1305 q 391 1311 384 1311 q 403 1308 397 1311 q 414 1301 409 1305 q 519 1208 467 1255 q 624 1114 572 1161 q 642 1096 631 1107 q 653 1074 653 1084 q 632 1056 653 1059 q 601 1054 610 1054 l 503 1054 z "},"Ë":{"ha":785,"x_min":77,"x_max":739,"o":"m 77 932 q 112 968 77 968 l 688 968 q 724 932 724 968 q 723 888 724 910 q 722 845 722 867 q 722 811 721 828 q 721 778 722 795 q 686 743 719 743 l 347 743 q 335 732 335 743 l 336 597 q 347 587 336 587 l 635 587 q 670 551 670 587 l 670 421 q 635 386 670 386 l 347 386 q 336 375 336 386 l 335 235 q 347 224 335 224 l 701 224 q 736 191 734 224 q 739 113 738 154 q 739 36 739 73 q 704 0 739 0 l 112 0 q 77 35 77 0 q 78 107 77 71 q 80 180 79 144 q 82 332 81 256 q 83 484 83 408 q 82 636 83 560 q 80 788 81 712 q 78 860 79 824 q 77 932 77 897 m 119 1141 q 155 1220 119 1187 q 235 1253 190 1253 q 315 1221 280 1253 q 351 1143 351 1189 q 314 1065 351 1097 q 234 1034 278 1034 q 155 1065 190 1034 q 119 1141 119 1096 m 444 1138 q 481 1219 444 1186 q 564 1253 517 1253 q 641 1221 607 1253 q 675 1146 675 1190 q 640 1067 675 1101 q 558 1034 604 1034 q 479 1063 515 1034 q 444 1138 444 1093 z "},"È":{"ha":785,"x_min":77,"x_max":739,"o":"m 77 932 q 112 968 77 968 l 688 968 q 724 932 724 968 q 723 888 724 910 q 722 845 722 867 q 722 811 721 828 q 721 778 722 795 q 686 743 719 743 l 347 743 q 335 732 335 743 l 336 597 q 347 587 336 587 l 635 587 q 670 551 670 587 l 670 421 q 635 386 670 386 l 347 386 q 336 375 336 386 l 335 235 q 347 224 335 224 l 701 224 q 736 191 734 224 q 739 113 738 154 q 739 36 739 73 q 704 0 739 0 l 112 0 q 77 35 77 0 q 78 107 77 71 q 80 180 79 144 q 82 332 81 256 q 83 484 83 408 q 82 636 83 560 q 80 788 81 712 q 78 860 79 824 q 77 932 77 897 m 333 1044 q 309 1053 319 1044 q 242 1115 275 1084 q 174 1177 208 1145 q 156 1195 168 1183 q 145 1218 145 1207 q 167 1235 145 1233 q 197 1238 189 1238 l 338 1238 q 368 1219 358 1238 q 385 1188 373 1210 q 409 1141 396 1166 q 430 1096 421 1116 q 439 1067 439 1075 q 426 1048 439 1052 q 400 1044 412 1044 l 333 1044 z "},"F":{"ha":781,"x_min":77,"x_max":743,"o":"m 77 932 q 112 968 77 968 l 708 968 q 743 932 743 968 q 743 885 743 909 q 741 838 742 861 q 741 807 741 823 q 740 777 741 792 q 705 743 738 743 l 347 743 q 335 732 335 743 l 335 595 q 347 585 335 585 l 646 585 q 681 550 681 585 q 681 473 681 511 q 682 395 682 434 q 646 360 682 360 l 347 360 q 335 349 335 360 q 335 192 335 271 q 334 35 334 113 q 300 0 334 0 l 112 0 q 77 35 77 0 q 78 107 77 71 q 80 180 79 144 q 82 332 81 256 q 83 484 83 408 q 82 636 83 560 q 80 788 81 712 q 78 860 79 824 q 77 932 77 897 z "},"G":{"ha":987,"x_min":49,"x_max":928,"o":"m 928 120 q 917 94 928 104 q 846 51 890 70 q 751 18 802 31 q 651 -3 700 4 q 567 -10 602 -10 q 367 19 460 -10 q 202 106 273 48 q 90 250 130 164 q 49 450 49 336 q 184 838 49 699 q 570 977 319 977 q 664 971 610 977 q 769 955 717 966 q 857 926 821 943 q 872 915 866 921 q 878 897 878 909 q 871 870 878 894 q 856 817 865 847 q 839 763 846 787 q 829 732 831 739 q 819 714 825 722 q 800 706 813 706 q 781 710 793 706 q 585 743 686 743 q 312 471 312 743 q 373 290 312 357 q 552 223 435 223 q 586 225 561 223 q 640 232 611 227 q 689 243 669 236 q 710 262 710 251 l 709 352 q 698 363 709 363 l 557 363 q 523 397 523 363 l 523 493 q 557 528 523 528 l 888 528 q 923 493 923 528 q 925 244 923 368 q 927 182 926 213 q 928 120 928 151 z "},"H":{"ha":1035,"x_min":78,"x_max":957,"o":"m 922 968 q 957 932 957 968 q 956 860 957 896 q 954 787 954 823 q 951 635 952 711 q 950 484 950 559 q 951 332 950 408 q 954 180 952 256 q 956 108 954 144 q 957 36 957 72 q 922 0 957 0 l 734 0 q 699 35 703 0 q 698 93 697 63 q 699 152 699 123 q 697 257 698 204 q 696 362 696 310 q 686 373 696 373 l 349 373 q 338 362 338 373 q 337 257 338 310 q 336 151 336 204 q 336 93 336 123 q 335 35 337 63 q 300 0 332 0 l 113 0 q 78 36 78 0 q 79 108 78 72 q 81 180 81 144 q 84 332 83 256 q 85 484 85 408 q 84 635 85 559 q 81 787 83 711 q 79 860 81 823 q 78 932 78 896 q 113 968 78 968 l 300 968 q 326 959 319 968 q 335 934 334 951 q 337 882 338 909 q 336 829 336 855 q 337 719 337 774 q 338 608 338 664 q 349 597 338 597 l 686 597 q 696 608 696 597 q 697 719 696 664 q 698 829 697 774 q 697 882 699 855 q 699 934 696 909 q 708 959 701 951 q 734 968 715 968 l 922 968 z "},"I":{"ha":414,"x_min":79,"x_max":335,"o":"m 79 932 q 113 968 79 968 l 300 968 q 335 932 335 968 q 334 708 335 821 q 333 484 333 596 q 334 259 333 372 q 335 35 335 147 q 300 0 335 0 l 113 0 q 79 35 79 0 q 80 259 79 147 q 81 484 81 372 q 80 708 81 596 q 79 932 79 821 z "},"Í":{"ha":414,"x_min":79,"x_max":467,"o":"m 79 932 q 113 968 79 968 l 300 968 q 335 932 335 968 q 334 708 335 821 q 333 484 333 596 q 334 259 333 372 q 335 35 335 147 q 300 0 335 0 l 113 0 q 79 35 79 0 q 80 259 79 147 q 81 484 81 372 q 80 708 81 596 q 79 932 79 821 m 411 1232 q 431 1232 417 1232 q 456 1227 444 1231 q 467 1213 467 1223 q 453 1189 467 1202 q 432 1170 439 1176 q 333 1091 381 1128 q 306 1069 320 1080 q 279 1047 292 1057 q 257 1040 269 1040 l 197 1040 q 170 1043 186 1040 q 155 1062 155 1046 q 166 1091 155 1069 q 195 1138 178 1112 q 227 1186 212 1164 q 248 1217 242 1208 q 277 1232 260 1232 l 411 1232 z "},"Î":{"ha":414,"x_min":-69,"x_max":453,"o":"m 79 932 q 113 968 79 968 l 300 968 q 335 932 335 968 q 334 708 335 821 q 333 484 333 596 q 334 259 333 372 q 335 35 335 147 q 300 0 335 0 l 113 0 q 79 35 79 0 q 80 259 79 147 q 81 484 81 372 q 80 708 81 596 q 79 932 79 821 m 302 1054 q 262 1074 286 1054 q 217 1114 239 1094 q 186 1134 196 1134 q 163 1118 182 1134 q 127 1084 145 1102 q 104 1063 109 1067 q 80 1054 94 1054 l -18 1054 q -48 1056 -26 1054 q -69 1074 -69 1059 q -58 1096 -69 1084 q -41 1114 -47 1107 q 62 1209 11 1162 q 168 1301 114 1256 q 178 1308 173 1305 q 191 1311 184 1311 q 203 1308 197 1311 q 214 1301 209 1305 q 319 1208 267 1255 q 424 1114 372 1161 q 442 1096 431 1107 q 453 1074 453 1084 q 432 1056 453 1059 q 401 1054 410 1054 l 302 1054 z "},"Ï":{"ha":414,"x_min":-81,"x_max":475,"o":"m 79 932 q 113 968 79 968 l 300 968 q 335 932 335 968 q 334 708 335 821 q 333 484 333 596 q 334 259 333 372 q 335 35 335 147 q 300 0 335 0 l 113 0 q 79 35 79 0 q 80 259 79 147 q 81 484 81 372 q 80 708 81 596 q 79 932 79 821 m -81 1141 q -45 1220 -81 1187 q 35 1253 -10 1253 q 115 1221 80 1253 q 151 1143 151 1189 q 114 1065 151 1097 q 34 1034 78 1034 q -45 1065 -10 1034 q -81 1141 -81 1096 m 244 1138 q 281 1219 244 1186 q 364 1253 317 1253 q 441 1221 407 1253 q 475 1146 475 1190 q 439 1067 475 1101 q 358 1034 404 1034 q 279 1063 315 1034 q 244 1138 244 1093 z "},"Ì":{"ha":414,"x_min":-55,"x_max":335,"o":"m 79 932 q 113 968 79 968 l 300 968 q 335 932 335 968 q 334 708 335 821 q 333 484 333 596 q 334 259 333 372 q 335 35 335 147 q 300 0 335 0 l 113 0 q 79 35 79 0 q 80 259 79 147 q 81 484 81 372 q 80 708 81 596 q 79 932 79 821 m 133 1044 q 109 1053 119 1044 q 42 1115 75 1084 q -26 1177 8 1145 q -44 1195 -33 1183 q -55 1218 -55 1207 q -33 1235 -55 1233 q -3 1238 -12 1238 l 138 1238 q 168 1219 158 1238 q 184 1188 173 1210 q 209 1141 196 1166 q 230 1096 221 1116 q 239 1067 239 1075 q 225 1048 239 1052 q 200 1044 212 1044 l 133 1044 z "},"J":{"ha":468,"x_min":-12,"x_max":414,"o":"m 411 503 q 412 360 411 431 q 412 217 412 289 q 310 -76 412 31 q 24 -201 207 -183 l 20 -201 q -12 -167 -12 -201 q -11 -117 -12 -142 q -9 -66 -9 -92 q -9 -37 -9 -52 q -8 -9 -9 -22 q 0 16 -7 9 q 24 27 7 23 q 50 34 38 31 q 75 44 62 37 q 140 123 125 71 q 155 228 155 176 l 155 416 q 155 675 155 546 q 154 933 154 804 q 189 968 154 968 l 379 968 q 414 932 414 968 q 412 718 414 825 q 411 503 411 610 z "},"K":{"ha":913,"x_min":78,"x_max":870,"o":"m 304 968 q 340 933 337 968 q 341 880 342 907 q 340 827 340 853 q 341 716 341 772 q 341 605 341 661 q 343 597 341 602 q 349 593 345 593 q 356 595 353 593 q 500 706 443 636 q 586 867 557 777 q 595 902 591 885 q 604 937 600 920 q 639 967 611 967 l 821 967 q 846 961 836 967 q 856 939 856 955 q 854 927 856 935 q 570 495 795 656 q 564 487 564 490 q 583 455 564 484 q 633 380 602 425 q 699 284 663 335 q 767 185 734 233 q 824 103 800 138 q 856 57 848 68 q 865 42 861 50 q 870 24 870 33 q 854 5 870 9 q 827 2 838 2 l 614 2 q 587 16 599 2 q 553 62 569 38 q 521 109 537 85 q 441 222 481 165 q 361 335 402 279 q 356 343 360 338 q 347 349 351 349 q 342 339 342 349 q 341 329 341 330 l 339 35 q 304 0 339 0 l 113 0 q 78 36 78 0 q 79 108 78 72 q 81 180 81 144 q 83 332 83 256 q 84 484 84 408 q 83 636 84 560 q 81 787 83 711 q 79 860 81 823 q 78 932 78 896 q 113 968 78 968 l 304 968 z "},"L":{"ha":760,"x_min":77,"x_max":714,"o":"m 77 932 q 112 968 77 968 l 300 968 q 334 933 334 968 q 335 686 334 810 q 335 439 335 563 l 335 235 q 346 224 335 224 l 676 224 q 703 216 695 224 q 711 190 710 208 q 712 160 713 176 q 712 130 711 145 q 713 83 713 107 q 714 36 714 60 q 679 0 714 0 l 112 0 q 77 35 77 0 q 78 107 77 71 q 80 180 79 144 q 82 332 81 256 q 83 484 83 408 q 82 636 83 560 q 80 788 81 712 q 78 860 79 824 q 77 932 77 897 z "},"Ł":{"ha":760,"x_min":18,"x_max":716,"o":"m 374 621 q 414 631 389 621 q 467 652 440 642 q 509 662 493 662 q 528 654 522 662 q 538 635 535 646 q 550 598 542 627 q 566 543 559 570 q 574 509 574 515 q 549 480 574 488 l 374 423 q 366 413 366 420 l 366 235 q 378 224 366 224 l 678 224 q 713 190 713 224 q 715 113 715 152 q 716 36 716 74 q 681 0 716 0 l 144 0 q 109 35 109 0 q 111 180 109 108 q 113 324 113 252 q 104 336 113 336 q 89 332 96 336 q 73 328 81 328 q 59 340 62 328 l 20 471 q 18 485 18 480 q 32 509 18 501 q 65 521 47 517 q 99 530 84 525 q 113 545 113 534 q 111 739 113 642 q 109 932 109 836 q 144 968 109 968 l 332 968 q 366 933 366 968 l 366 633 q 374 621 366 621 z "},"M":{"ha":1137,"x_min":78,"x_max":1061,"o":"m 113 0 q 78 36 78 0 q 80 110 78 73 q 82 183 81 146 q 84 330 83 257 q 85 477 85 404 q 79 886 85 682 l 79 899 q 81 927 79 906 q 96 949 83 949 q 122 932 108 949 q 142 908 136 916 q 196 834 170 871 q 249 759 222 796 q 355 608 302 684 q 460 457 408 533 q 506 391 484 424 q 552 325 529 357 q 562 319 557 319 q 570 325 566 319 q 649 434 610 379 q 726 543 687 489 q 890 772 808 659 q 1058 998 973 886 l 1061 998 q 1054 740 1057 869 q 1052 481 1052 610 q 1053 333 1052 407 q 1055 184 1054 259 q 1058 110 1056 147 q 1059 36 1059 73 q 1025 0 1059 0 l 836 0 q 810 8 817 0 q 802 34 804 17 q 800 73 799 52 q 800 112 801 93 q 800 205 800 158 q 799 298 800 252 q 798 310 799 300 q 793 321 798 321 q 784 313 789 321 q 778 304 779 306 q 673 122 724 214 q 568 -60 621 31 l 565 -60 q 458 107 511 23 q 349 273 405 191 q 343 282 348 276 q 335 288 339 288 q 330 278 330 288 q 329 267 329 269 q 328 190 329 229 q 327 112 328 151 q 328 73 327 93 q 326 34 329 52 q 317 8 324 17 q 292 0 311 0 l 113 0 z "},"N":{"ha":1034,"x_min":76,"x_max":958,"o":"m 954 -30 q 921 -5 951 -30 q 841 61 890 20 q 732 152 791 102 q 612 253 673 201 q 498 350 551 304 q 407 428 445 396 q 357 471 369 460 q 351 475 354 473 q 345 477 349 477 q 339 472 340 477 q 338 463 338 466 q 339 306 338 385 q 340 149 340 228 l 340 35 q 305 0 340 0 l 113 0 q 78 36 78 0 q 79 108 78 72 q 81 180 81 144 q 84 331 83 256 q 85 482 85 406 q 81 827 85 656 q 78 910 80 869 q 76 992 76 951 q 81 997 76 997 q 90 994 85 997 q 386 741 241 871 q 679 484 532 612 q 685 480 682 482 q 690 477 688 477 q 696 484 696 477 q 697 492 697 490 q 697 713 697 603 q 696 933 696 823 q 731 968 696 968 l 921 968 q 956 932 956 968 q 954 860 956 896 q 952 787 953 823 q 950 636 951 711 q 949 485 949 561 q 953 138 949 311 q 956 56 954 97 q 958 -26 958 15 q 954 -30 958 -30 z "},"Ñ":{"ha":1034,"x_min":76,"x_max":958,"o":"m 954 -30 q 921 -5 951 -30 q 841 61 890 20 q 732 152 791 102 q 612 253 673 201 q 498 350 551 304 q 407 428 445 396 q 357 471 369 460 q 351 475 354 473 q 345 477 349 477 q 339 472 340 477 q 338 463 338 466 q 339 306 338 385 q 340 149 340 228 l 340 35 q 305 0 340 0 l 113 0 q 78 36 78 0 q 79 108 78 72 q 81 180 81 144 q 84 331 83 256 q 85 482 85 406 q 81 827 85 656 q 78 910 80 869 q 76 992 76 951 q 81 997 76 997 q 90 994 85 997 q 386 741 241 871 q 679 484 532 612 q 685 480 682 482 q 690 477 688 477 q 696 484 696 477 q 697 492 697 490 q 697 713 697 603 q 696 933 696 823 q 731 968 696 968 l 921 968 q 956 932 956 968 q 954 860 956 896 q 952 787 953 823 q 950 636 951 711 q 949 485 949 561 q 953 138 949 311 q 956 56 954 97 q 958 -26 958 15 q 954 -30 958 -30 m 614 1065 q 534 1080 568 1065 q 474 1113 500 1094 q 425 1145 448 1131 q 379 1160 403 1160 q 343 1146 353 1160 q 331 1114 334 1132 q 320 1082 328 1096 q 288 1068 313 1068 q 254 1067 273 1068 q 223 1073 236 1066 q 210 1102 210 1080 q 260 1239 210 1184 q 394 1295 310 1295 q 461 1279 430 1295 q 518 1244 492 1264 q 567 1208 545 1223 q 610 1193 590 1193 q 647 1213 638 1193 q 659 1255 656 1232 q 669 1280 662 1272 q 695 1289 677 1289 q 722 1290 709 1290 q 749 1290 736 1290 q 782 1260 782 1290 q 761 1168 782 1213 q 703 1095 741 1124 q 614 1065 666 1065 z "},"O":{"ha":1043,"x_min":50,"x_max":995,"o":"m 50 483 q 84 670 50 581 q 183 828 119 759 q 332 937 246 897 q 518 977 417 977 q 706 937 619 977 q 858 827 793 897 q 959 668 922 758 q 995 479 995 578 q 959 293 995 381 q 858 136 922 204 q 707 29 793 68 q 520 -10 621 -10 q 332 29 418 -10 q 183 137 246 68 q 84 294 119 205 q 50 483 50 383 m 532 214 q 622 239 584 214 q 684 304 660 264 q 720 391 708 345 q 731 483 731 438 q 708 608 731 545 q 639 712 686 670 q 522 753 593 753 q 405 712 452 753 q 334 608 358 670 q 310 485 310 547 q 336 359 310 421 q 411 255 361 296 q 532 214 460 214 z "},"Ó":{"ha":1043,"x_min":50,"x_max":995,"o":"m 50 483 q 84 670 50 581 q 183 828 119 759 q 332 937 246 897 q 518 977 417 977 q 706 937 619 977 q 858 827 793 897 q 959 668 922 758 q 995 479 995 578 q 959 293 995 381 q 858 136 922 204 q 707 29 793 68 q 520 -10 621 -10 q 332 29 418 -10 q 183 137 246 68 q 84 294 119 205 q 50 483 50 383 m 532 214 q 622 239 584 214 q 684 304 660 264 q 720 391 708 345 q 731 483 731 438 q 708 608 731 545 q 639 712 686 670 q 522 753 593 753 q 405 712 452 753 q 334 608 358 670 q 310 485 310 547 q 336 359 310 421 q 411 255 361 296 q 532 214 460 214 m 724 1216 q 744 1215 730 1216 q 769 1211 758 1215 q 781 1197 781 1206 q 767 1173 781 1185 q 745 1154 753 1160 q 646 1075 694 1112 q 620 1053 633 1064 q 592 1031 606 1041 q 570 1023 583 1023 l 510 1023 q 484 1027 499 1023 q 468 1046 468 1030 q 480 1075 468 1053 q 509 1122 492 1096 q 541 1170 526 1147 q 562 1200 555 1192 q 591 1216 573 1216 l 724 1216 z "},"Ô":{"ha":1043,"x_min":50,"x_max":995,"o":"m 50 483 q 84 670 50 581 q 183 828 119 759 q 332 937 246 897 q 518 977 417 977 q 706 937 619 977 q 858 827 793 897 q 959 668 922 758 q 995 479 995 578 q 959 293 995 381 q 858 136 922 204 q 707 29 793 68 q 520 -10 621 -10 q 332 29 418 -10 q 183 137 246 68 q 84 294 119 205 q 50 483 50 383 m 532 214 q 622 239 584 214 q 684 304 660 264 q 720 391 708 345 q 731 483 731 438 q 708 608 731 545 q 639 712 686 670 q 522 753 593 753 q 405 712 452 753 q 334 608 358 670 q 310 485 310 547 q 336 359 310 421 q 411 255 361 296 q 532 214 460 214 m 616 1038 q 575 1058 599 1038 q 531 1098 552 1078 q 499 1118 509 1118 q 477 1102 495 1118 q 440 1068 458 1086 q 417 1046 422 1050 q 393 1038 408 1038 l 296 1038 q 266 1040 287 1038 q 244 1057 244 1042 q 255 1080 244 1068 q 273 1098 266 1091 q 376 1193 324 1145 q 481 1284 427 1240 q 492 1292 486 1289 q 504 1295 497 1295 q 516 1292 511 1295 q 527 1284 522 1289 q 633 1192 581 1239 q 737 1098 685 1145 q 755 1080 745 1091 q 766 1057 766 1068 q 745 1040 766 1042 q 714 1038 724 1038 l 616 1038 z "},"Ö":{"ha":1043,"x_min":50,"x_max":995,"o":"m 50 483 q 84 670 50 581 q 183 828 119 759 q 332 937 246 897 q 518 977 417 977 q 706 937 619 977 q 858 827 793 897 q 959 668 922 758 q 995 479 995 578 q 959 293 995 381 q 858 136 922 204 q 707 29 793 68 q 520 -10 621 -10 q 332 29 418 -10 q 183 137 246 68 q 84 294 119 205 q 50 483 50 383 m 532 214 q 622 239 584 214 q 684 304 660 264 q 720 391 708 345 q 731 483 731 438 q 708 608 731 545 q 639 712 686 670 q 522 753 593 753 q 405 712 452 753 q 334 608 358 670 q 310 485 310 547 q 336 359 310 421 q 411 255 361 296 q 532 214 460 214 m 233 1125 q 268 1204 233 1171 q 349 1236 303 1236 q 429 1204 393 1236 q 464 1126 464 1173 q 428 1049 464 1081 q 347 1017 391 1017 q 268 1048 303 1017 q 233 1125 233 1080 m 557 1122 q 594 1203 557 1170 q 677 1236 631 1236 q 754 1205 720 1236 q 789 1130 789 1174 q 753 1051 789 1084 q 671 1017 717 1017 q 593 1047 628 1017 q 557 1122 557 1076 z "},"Ò":{"ha":1043,"x_min":50,"x_max":995,"o":"m 50 483 q 84 670 50 581 q 183 828 119 759 q 332 937 246 897 q 518 977 417 977 q 706 937 619 977 q 858 827 793 897 q 959 668 922 758 q 995 479 995 578 q 959 293 995 381 q 858 136 922 204 q 707 29 793 68 q 520 -10 621 -10 q 332 29 418 -10 q 183 137 246 68 q 84 294 119 205 q 50 483 50 383 m 532 214 q 622 239 584 214 q 684 304 660 264 q 720 391 708 345 q 731 483 731 438 q 708 608 731 545 q 639 712 686 670 q 522 753 593 753 q 405 712 452 753 q 334 608 358 670 q 310 485 310 547 q 336 359 310 421 q 411 255 361 296 q 532 214 460 214 m 446 1027 q 422 1037 433 1027 q 355 1098 389 1067 q 288 1160 321 1129 q 270 1179 281 1167 q 258 1202 258 1191 q 280 1219 258 1217 q 311 1221 302 1221 l 451 1221 q 481 1202 471 1221 q 498 1172 486 1194 q 522 1125 509 1150 q 543 1079 534 1100 q 552 1051 552 1059 q 539 1031 552 1036 q 513 1027 526 1027 l 446 1027 z "},"Ø":{"ha":1043,"x_min":50,"x_max":989,"o":"m 842 984 q 856 979 850 984 q 867 967 862 973 q 892 932 880 950 q 919 896 905 913 q 928 884 924 890 q 932 870 932 878 q 918 846 932 858 q 889 823 903 833 q 875 806 875 813 q 878 799 875 804 q 960 650 931 730 q 989 482 989 570 q 954 294 989 383 q 855 137 918 205 q 706 29 791 68 q 518 -10 620 -10 q 398 6 460 -10 q 287 52 336 22 q 283 55 285 54 q 279 56 282 56 q 259 36 272 56 q 231 -2 246 17 q 202 -22 216 -22 q 187 -16 193 -22 q 176 -5 181 -11 q 150 31 163 13 q 121 66 136 50 q 112 78 117 72 q 108 92 108 85 q 122 115 108 104 q 150 136 136 126 q 164 153 164 146 q 161 161 164 157 q 78 311 107 233 q 50 480 50 389 q 84 667 50 578 q 181 827 119 757 q 329 938 243 897 q 516 978 414 978 q 641 960 583 978 q 757 907 700 941 q 764 905 760 905 q 785 925 772 905 q 812 964 798 945 q 842 984 827 984 m 313 493 q 319 416 313 454 q 343 342 326 378 q 488 528 418 433 q 629 716 559 622 q 519 753 580 753 q 406 713 452 753 q 336 613 359 673 q 313 493 313 553 m 418 250 q 526 214 467 214 q 639 255 595 214 q 705 356 683 296 q 726 475 726 416 q 721 549 726 513 q 701 619 715 585 q 557 436 627 529 q 418 250 488 343 z "},"Õ":{"ha":1043,"x_min":50,"x_max":995,"o":"m 50 483 q 84 670 50 581 q 183 828 119 759 q 332 937 246 897 q 518 977 417 977 q 706 937 619 977 q 858 827 793 897 q 959 668 922 758 q 995 479 995 578 q 959 293 995 381 q 858 136 922 204 q 707 29 793 68 q 520 -10 621 -10 q 332 29 418 -10 q 183 137 246 68 q 84 294 119 205 q 50 483 50 383 m 532 214 q 622 239 584 214 q 684 304 660 264 q 720 391 708 345 q 731 483 731 438 q 708 608 731 545 q 639 712 686 670 q 522 753 593 753 q 405 712 452 753 q 334 608 358 670 q 310 485 310 547 q 336 359 310 421 q 411 255 361 296 q 532 214 460 214 m 654 1082 q 574 1096 608 1082 q 514 1129 540 1110 q 465 1162 488 1147 q 419 1176 443 1176 q 384 1162 393 1176 q 371 1130 374 1148 q 360 1098 368 1112 q 328 1084 353 1084 q 294 1083 313 1084 q 263 1089 276 1082 q 250 1118 250 1096 q 300 1256 250 1200 q 434 1311 350 1311 q 501 1296 470 1311 q 558 1260 532 1280 q 607 1224 585 1240 q 650 1209 630 1209 q 687 1229 678 1209 q 699 1271 696 1249 q 709 1297 702 1289 q 735 1305 717 1305 q 762 1306 749 1306 q 789 1306 776 1306 q 822 1276 822 1306 q 801 1185 822 1230 q 743 1111 781 1140 q 654 1082 706 1082 z "},"Œ":{"ha":1450,"x_min":60,"x_max":1402,"o":"m 923 362 q 923 298 923 330 q 924 234 924 266 q 935 223 924 223 l 1361 223 q 1387 215 1379 223 q 1396 189 1394 207 q 1398 146 1397 168 q 1399 103 1398 125 q 1401 70 1400 87 q 1402 37 1402 53 q 1367 0 1402 0 l 715 0 q 697 -2 707 0 q 679 -6 688 -5 q 606 -10 642 -10 l 600 -10 q 399 25 496 -10 q 226 125 302 60 q 104 280 149 190 q 60 479 60 370 q 104 681 60 589 q 226 839 149 772 q 400 942 302 905 q 602 978 497 978 q 676 973 642 978 q 695 970 685 972 q 713 968 705 968 l 1347 968 q 1382 931 1382 968 q 1381 899 1382 916 q 1379 867 1380 883 q 1378 826 1379 847 q 1376 785 1377 806 q 1367 760 1375 768 q 1341 751 1360 751 l 935 751 q 924 741 924 751 q 923 672 924 707 q 923 604 923 638 q 934 593 923 593 l 1276 593 q 1312 558 1312 593 l 1312 408 q 1276 373 1312 373 l 934 373 q 923 362 923 373 m 660 219 q 661 350 661 285 q 661 481 661 415 q 660 611 661 546 q 660 743 660 677 q 605 747 634 747 q 467 714 531 747 q 362 621 402 680 q 323 484 323 562 q 364 346 323 406 q 471 250 405 285 q 612 216 536 216 q 636 216 624 216 q 660 219 648 217 z "},"P":{"ha":905,"x_min":77,"x_max":870,"o":"m 77 932 q 113 968 77 968 l 437 968 q 598 949 520 968 q 737 891 675 931 q 834 785 798 850 q 870 625 870 720 q 820 433 870 511 q 684 315 770 355 q 490 275 598 275 l 347 275 q 336 263 336 275 l 334 35 q 300 0 334 0 l 113 0 q 77 36 77 0 q 79 111 77 73 q 81 185 80 148 q 83 335 82 260 q 83 484 83 410 q 83 633 83 559 q 81 783 82 708 q 79 857 80 820 q 77 932 77 895 m 336 499 l 476 499 q 542 513 510 499 q 595 553 574 527 q 616 617 616 580 q 614 634 616 623 q 610 650 612 644 q 558 720 595 696 q 475 743 522 743 l 336 743 q 336 621 336 682 q 336 499 336 560 z "},"Þ":{"ha":905,"x_min":77,"x_max":870,"o":"m 309 964 q 342 943 336 964 q 345 895 348 922 q 342 847 342 867 q 356 826 342 826 l 488 826 q 691 795 605 826 q 823 690 777 764 q 870 490 870 616 q 773 222 870 312 q 503 133 677 133 l 356 133 q 342 113 342 133 q 345 66 342 93 q 342 20 348 40 q 309 0 336 0 l 113 0 q 77 36 77 0 q 79 112 77 74 q 81 188 80 151 q 83 340 82 264 q 83 492 83 416 q 81 778 83 635 q 79 853 81 816 q 78 928 78 891 q 113 964 78 964 l 309 964 m 473 358 q 569 389 531 358 q 608 480 608 419 q 572 574 608 545 q 475 604 536 604 l 346 604 l 346 358 l 473 358 z "},"Q":{"ha":1043,"x_min":50,"x_max":994,"o":"m 50 483 q 85 670 50 581 q 184 829 120 760 q 333 938 248 898 q 520 978 419 978 q 708 937 622 978 q 859 827 795 897 q 958 667 922 757 q 994 479 994 577 q 959 296 994 385 q 860 138 924 207 q 833 113 847 125 q 806 90 820 101 q 802 81 802 86 q 814 58 802 76 q 844 18 827 41 q 873 -24 861 -4 q 886 -54 886 -44 q 869 -73 886 -69 q 843 -76 853 -76 l 677 -76 q 646 -57 656 -76 q 629 -19 635 -38 q 614 -1 623 -1 q 612 -1 613 -1 q 610 -1 612 -1 q 566 -8 588 -5 q 520 -10 543 -10 q 332 29 418 -10 q 183 137 246 68 q 84 294 119 205 q 50 483 50 383 m 622 338 q 643 308 633 323 q 664 277 653 293 q 716 376 702 321 q 731 488 731 431 q 708 611 731 549 q 638 713 684 672 q 522 753 591 753 q 405 712 451 753 q 335 609 358 671 q 313 486 313 548 q 335 363 313 424 q 403 261 357 303 q 517 214 448 220 q 490 273 504 244 q 463 332 476 302 q 543 335 503 334 q 622 338 583 337 z "},"R":{"ha":885,"x_min":77,"x_max":838,"o":"m 401 968 q 608 935 517 968 q 751 827 699 902 q 803 625 803 752 q 765 447 803 528 q 642 317 726 366 q 634 308 634 312 q 651 281 634 305 q 694 223 668 257 q 747 154 720 189 q 794 92 774 119 q 821 56 815 64 q 832 40 827 50 q 838 21 838 31 q 821 3 838 6 q 794 0 804 0 l 583 0 q 553 16 566 0 q 533 47 543 31 q 513 79 523 64 q 454 175 483 127 q 393 271 425 224 q 383 276 389 276 l 347 276 q 336 264 336 276 q 335 150 336 207 q 334 35 334 92 q 300 0 334 0 l 113 0 q 77 36 77 0 q 79 108 77 72 q 81 180 80 144 q 83 332 82 256 q 83 484 83 408 q 83 636 83 560 q 81 787 82 711 q 79 860 80 823 q 77 932 77 896 q 113 968 77 968 l 401 968 m 433 499 q 512 534 484 499 q 540 616 540 568 q 513 704 540 665 q 434 743 486 743 l 336 743 q 336 621 336 682 q 336 499 336 560 l 433 499 z "},"S":{"ha":575,"x_min":44,"x_max":536,"o":"m 503 918 q 499 894 503 913 q 490 850 496 875 q 480 805 485 825 q 473 779 475 785 q 466 759 471 768 q 448 751 461 751 q 416 758 432 751 q 383 766 401 766 q 339 747 352 766 q 326 699 326 728 q 347 612 326 646 q 400 549 368 577 q 463 488 431 521 q 515 406 494 455 q 536 278 536 356 q 461 61 536 132 q 241 -10 387 -10 q 153 -5 200 -10 q 68 15 106 1 q 44 45 44 24 q 50 83 44 54 q 61 142 55 112 q 69 183 67 172 q 78 205 73 195 q 98 214 83 214 q 139 205 116 214 q 185 196 161 196 q 244 220 227 196 q 262 282 262 243 q 241 371 262 338 q 189 427 220 404 q 126 480 157 451 q 74 555 95 509 q 53 682 53 602 q 123 898 53 823 q 336 973 193 973 q 376 971 349 973 q 433 963 404 968 q 483 946 462 957 q 503 918 503 935 z "},"Š":{"ha":575,"x_min":1,"x_max":536,"o":"m 503 918 q 499 894 503 913 q 490 850 496 875 q 480 805 485 825 q 473 779 475 785 q 466 759 471 768 q 448 751 461 751 q 416 758 432 751 q 383 766 401 766 q 339 747 352 766 q 326 699 326 728 q 347 612 326 646 q 400 549 368 577 q 463 488 431 521 q 515 406 494 455 q 536 278 536 356 q 461 61 536 132 q 241 -10 387 -10 q 153 -5 200 -10 q 68 15 106 1 q 44 45 44 24 q 50 83 44 54 q 61 142 55 112 q 69 183 67 172 q 78 205 73 195 q 98 214 83 214 q 139 205 116 214 q 185 196 161 196 q 244 220 227 196 q 262 282 262 243 q 241 371 262 338 q 189 427 220 404 q 126 480 157 451 q 74 555 95 509 q 53 682 53 602 q 123 898 53 823 q 336 973 193 973 q 376 971 349 973 q 433 963 404 968 q 483 946 462 957 q 503 918 503 935 m 153 1249 q 194 1229 171 1249 q 239 1189 218 1209 q 271 1169 260 1169 q 290 1181 277 1169 q 319 1209 302 1194 q 352 1237 336 1225 q 378 1249 368 1249 l 476 1249 q 508 1247 486 1249 q 530 1230 530 1244 q 518 1207 530 1219 q 499 1188 507 1195 q 395 1095 447 1142 q 290 1003 343 1048 q 280 996 286 999 q 267 993 274 993 q 255 996 260 993 q 244 1003 250 999 q 138 1095 191 1048 q 32 1188 85 1142 q 13 1207 25 1195 q 1 1230 1 1219 q 24 1247 1 1244 q 55 1249 46 1249 l 153 1249 z "},"T":{"ha":733,"x_min":37,"x_max":696,"o":"m 37 932 q 73 968 37 968 l 661 968 q 696 932 696 968 q 695 884 696 908 q 694 836 694 860 q 694 807 694 821 q 694 778 695 792 q 659 743 692 743 l 499 743 q 488 732 488 743 q 488 609 488 671 q 488 486 488 547 q 489 260 488 373 q 490 35 490 148 q 454 0 490 0 l 267 0 q 233 35 233 0 q 234 260 233 148 q 235 486 235 373 q 234 609 235 547 q 234 732 234 671 q 222 743 234 743 l 75 743 q 40 778 42 743 q 40 807 39 792 q 39 836 40 821 q 38 884 39 860 q 37 932 37 908 z "},"U":{"ha":943,"x_min":66,"x_max":878,"o":"m 326 472 q 325 420 326 446 q 326 368 325 394 q 362 259 327 302 q 468 216 397 216 q 582 254 543 216 q 622 368 622 293 l 622 472 q 622 631 622 551 q 623 790 623 711 l 623 886 q 623 910 624 897 q 624 933 623 922 q 633 959 626 951 q 659 968 640 968 l 843 968 q 878 932 878 968 q 877 859 878 896 q 874 787 876 823 q 872 634 873 711 q 871 480 871 557 q 872 422 871 451 q 872 364 873 393 q 817 168 871 252 q 671 37 762 83 q 471 -10 580 -10 q 264 33 354 -10 q 122 159 174 76 q 71 364 71 243 q 72 429 71 397 q 72 494 72 462 q 71 641 72 568 q 69 786 71 713 q 67 859 68 823 q 66 932 66 896 q 100 968 66 968 l 288 968 q 315 959 308 968 q 323 933 321 951 q 324 910 325 922 q 324 886 323 897 l 324 790 q 325 631 325 711 q 326 472 326 551 z "},"Ú":{"ha":943,"x_min":66,"x_max":878,"o":"m 326 472 q 325 420 326 446 q 326 368 325 394 q 362 259 327 302 q 468 216 397 216 q 582 254 543 216 q 622 368 622 293 l 622 472 q 622 631 622 551 q 623 790 623 711 l 623 886 q 623 910 624 897 q 624 933 623 922 q 633 959 626 951 q 659 968 640 968 l 843 968 q 878 932 878 968 q 877 859 878 896 q 874 787 876 823 q 872 634 873 711 q 871 480 871 557 q 872 422 871 451 q 872 364 873 393 q 817 168 871 252 q 671 37 762 83 q 471 -10 580 -10 q 264 33 354 -10 q 122 159 174 76 q 71 364 71 243 q 72 429 71 397 q 72 494 72 462 q 71 641 72 568 q 69 786 71 713 q 67 859 68 823 q 66 932 66 896 q 100 968 66 968 l 288 968 q 315 959 308 968 q 323 933 321 951 q 324 910 325 922 q 324 886 323 897 l 324 790 q 325 631 325 711 q 326 472 326 551 m 675 1232 q 694 1232 681 1232 q 720 1227 708 1231 q 731 1213 731 1223 q 717 1189 731 1202 q 696 1170 703 1176 q 597 1091 645 1128 q 570 1069 584 1080 q 543 1047 556 1057 q 521 1040 533 1040 l 460 1040 q 434 1043 450 1040 q 418 1062 418 1046 q 430 1091 418 1069 q 459 1138 442 1112 q 491 1186 476 1164 q 512 1217 506 1208 q 541 1232 524 1232 l 675 1232 z "},"Û":{"ha":943,"x_min":66,"x_max":878,"o":"m 326 472 q 325 420 326 446 q 326 368 325 394 q 362 259 327 302 q 468 216 397 216 q 582 254 543 216 q 622 368 622 293 l 622 472 q 622 631 622 551 q 623 790 623 711 l 623 886 q 623 910 624 897 q 624 933 623 922 q 633 959 626 951 q 659 968 640 968 l 843 968 q 878 932 878 968 q 877 859 878 896 q 874 787 876 823 q 872 634 873 711 q 871 480 871 557 q 872 422 871 451 q 872 364 873 393 q 817 168 871 252 q 671 37 762 83 q 471 -10 580 -10 q 264 33 354 -10 q 122 159 174 76 q 71 364 71 243 q 72 429 71 397 q 72 494 72 462 q 71 641 72 568 q 69 786 71 713 q 67 859 68 823 q 66 932 66 896 q 100 968 66 968 l 288 968 q 315 959 308 968 q 323 933 321 951 q 324 910 325 922 q 324 886 323 897 l 324 790 q 325 631 325 711 q 326 472 326 551 m 566 1054 q 526 1074 549 1054 q 481 1114 503 1094 q 450 1134 460 1134 q 427 1118 446 1134 q 391 1084 409 1102 q 368 1063 372 1067 q 344 1054 358 1054 l 246 1054 q 216 1056 237 1054 q 195 1074 195 1059 q 205 1096 195 1084 q 223 1114 216 1107 q 326 1209 275 1162 q 431 1301 378 1256 q 442 1308 437 1305 q 454 1311 448 1311 q 467 1308 461 1311 q 477 1301 473 1305 q 583 1208 531 1255 q 688 1114 635 1161 q 706 1096 695 1107 q 717 1074 717 1084 q 695 1056 717 1059 q 665 1054 674 1054 l 566 1054 z "},"Ü":{"ha":943,"x_min":66,"x_max":878,"o":"m 326 472 q 325 420 326 446 q 326 368 325 394 q 362 259 327 302 q 468 216 397 216 q 582 254 543 216 q 622 368 622 293 l 622 472 q 622 631 622 551 q 623 790 623 711 l 623 886 q 623 910 624 897 q 624 933 623 922 q 633 959 626 951 q 659 968 640 968 l 843 968 q 878 932 878 968 q 877 859 878 896 q 874 787 876 823 q 872 634 873 711 q 871 480 871 557 q 872 422 871 451 q 872 364 873 393 q 817 168 871 252 q 671 37 762 83 q 471 -10 580 -10 q 264 33 354 -10 q 122 159 174 76 q 71 364 71 243 q 72 429 71 397 q 72 494 72 462 q 71 641 72 568 q 69 786 71 713 q 67 859 68 823 q 66 932 66 896 q 100 968 66 968 l 288 968 q 315 959 308 968 q 323 933 321 951 q 324 910 325 922 q 324 886 323 897 l 324 790 q 325 631 325 711 q 326 472 326 551 m 183 1141 q 218 1220 183 1187 q 299 1253 254 1253 q 379 1221 344 1253 q 414 1143 414 1189 q 378 1065 414 1097 q 298 1034 342 1034 q 218 1065 254 1034 q 183 1141 183 1096 m 508 1138 q 545 1219 508 1186 q 628 1253 581 1253 q 705 1221 671 1253 q 739 1146 739 1190 q 703 1067 739 1101 q 622 1034 667 1034 q 543 1063 578 1034 q 508 1138 508 1093 z "},"Ù":{"ha":943,"x_min":66,"x_max":878,"o":"m 326 472 q 325 420 326 446 q 326 368 325 394 q 362 259 327 302 q 468 216 397 216 q 582 254 543 216 q 622 368 622 293 l 622 472 q 622 631 622 551 q 623 790 623 711 l 623 886 q 623 910 624 897 q 624 933 623 922 q 633 959 626 951 q 659 968 640 968 l 843 968 q 878 932 878 968 q 877 859 878 896 q 874 787 876 823 q 872 634 873 711 q 871 480 871 557 q 872 422 871 451 q 872 364 873 393 q 817 168 871 252 q 671 37 762 83 q 471 -10 580 -10 q 264 33 354 -10 q 122 159 174 76 q 71 364 71 243 q 72 429 71 397 q 72 494 72 462 q 71 641 72 568 q 69 786 71 713 q 67 859 68 823 q 66 932 66 896 q 100 968 66 968 l 288 968 q 315 959 308 968 q 323 933 321 951 q 324 910 325 922 q 324 886 323 897 l 324 790 q 325 631 325 711 q 326 472 326 551 m 397 1044 q 373 1053 383 1044 q 306 1115 339 1084 q 238 1177 272 1145 q 220 1195 231 1183 q 209 1218 209 1207 q 231 1235 209 1233 q 261 1238 252 1238 l 401 1238 q 432 1219 422 1238 q 448 1188 437 1210 q 472 1141 460 1166 q 494 1096 485 1116 q 503 1067 503 1075 q 489 1048 503 1052 q 464 1044 476 1044 l 397 1044 z "},"V":{"ha":907,"x_min":41,"x_max":865,"o":"m 292 968 q 312 962 305 968 q 323 945 319 957 q 344 893 335 920 q 363 840 353 865 q 409 715 387 778 q 455 589 431 652 q 459 581 456 587 q 465 574 461 574 q 472 581 469 574 q 476 589 475 587 q 525 721 502 654 q 572 853 547 787 q 588 900 580 876 q 606 945 595 924 q 638 968 616 968 l 827 968 q 852 963 840 968 q 865 943 865 959 q 863 931 865 937 q 859 919 861 924 q 742 648 800 784 q 627 376 684 513 l 532 146 q 509 89 521 118 q 485 32 498 60 q 473 9 481 24 q 453 -6 465 -6 q 433 9 441 -6 q 421 32 425 24 q 397 89 408 60 q 374 146 385 118 l 279 376 q 165 648 223 513 q 48 919 107 784 q 43 931 45 924 q 41 943 41 937 q 54 963 41 959 q 79 968 67 968 l 292 968 z "},"W":{"ha":1304,"x_min":41,"x_max":1265,"o":"m 412 -7 q 393 8 401 -7 q 382 33 385 24 q 309 234 345 133 q 236 435 273 335 q 143 678 191 557 q 46 920 95 799 q 42 931 44 925 q 41 943 41 937 q 53 963 41 959 q 78 968 65 968 l 279 968 q 311 945 301 968 q 329 897 321 922 q 346 849 338 873 q 394 710 371 780 q 442 572 417 641 q 446 563 444 569 q 452 557 448 557 q 459 563 456 557 q 463 572 463 569 q 474 603 465 578 q 495 661 483 627 q 518 728 507 695 q 537 783 530 760 q 545 807 545 806 q 537 830 545 812 q 517 871 528 848 q 497 914 506 894 q 489 943 489 935 q 502 963 489 959 q 528 968 515 968 l 705 968 q 737 946 729 968 l 873 598 q 878 590 875 595 q 884 584 881 584 q 891 590 888 584 q 895 599 894 596 q 938 727 917 663 q 980 856 958 792 q 995 901 987 878 q 1011 945 1002 924 q 1044 968 1021 968 l 1227 968 q 1253 963 1240 968 q 1265 943 1265 958 q 1263 931 1265 937 q 1259 920 1261 926 q 1170 681 1214 801 q 1085 440 1126 562 q 1018 241 1051 341 q 951 42 985 141 q 941 16 949 33 q 921 -1 933 -1 q 901 15 910 -1 q 888 38 892 30 q 811 207 848 121 q 736 376 774 292 q 711 435 724 406 q 684 494 698 465 q 681 501 684 496 q 674 505 677 505 q 668 501 671 505 q 664 494 665 496 q 556 261 608 379 q 446 29 504 142 q 433 7 441 21 q 412 -7 424 -7 z "},"X":{"ha":856,"x_min":-3,"x_max":859,"o":"m 262 494 q 246 525 262 496 q 204 598 230 554 q 150 692 179 642 q 93 789 120 743 q 45 870 65 836 q 18 915 24 904 q 11 929 14 922 q 7 945 7 937 q 22 964 7 960 q 48 968 37 968 l 297 968 q 327 951 316 968 q 344 923 336 938 q 359 895 352 909 q 406 814 383 854 q 453 733 429 773 q 457 727 454 730 q 463 724 460 724 q 470 728 467 724 q 473 734 472 732 q 504 814 490 774 q 534 893 519 854 q 544 920 539 907 q 555 946 549 933 q 587 968 565 968 l 815 968 q 842 964 827 968 q 857 945 857 961 q 853 929 857 937 q 845 915 849 922 q 818 869 839 904 q 769 787 798 835 q 710 689 741 740 q 654 593 680 638 q 611 519 627 548 q 595 487 595 490 q 611 455 595 484 q 654 379 628 425 q 711 282 681 334 q 771 182 742 231 q 821 99 800 134 q 848 53 842 64 q 856 39 852 46 q 859 22 859 31 q 844 4 859 7 q 818 0 829 0 l 566 0 q 536 17 547 0 q 521 42 528 29 q 507 68 514 55 q 457 156 481 112 q 406 243 433 201 q 402 250 405 246 q 395 254 399 254 q 390 249 392 254 q 386 241 387 244 q 346 132 363 188 q 305 22 328 76 q 273 0 296 0 l 37 0 q 11 4 26 0 q -3 23 -3 7 q 0 39 -3 31 q 7 53 3 46 q 35 100 14 64 q 85 184 56 136 q 144 286 114 233 q 202 385 175 338 q 245 461 229 431 q 262 494 262 491 z "},"Y":{"ha":863,"x_min":1,"x_max":861,"o":"m 298 285 l 298 290 q 284 320 292 305 q 270 351 277 336 l 215 473 q 112 695 165 585 q 8 918 60 806 q 3 930 5 924 q 1 944 1 937 q 14 964 1 960 q 39 968 27 968 l 277 968 q 298 962 291 968 q 310 945 304 956 q 328 899 320 923 q 343 851 335 874 q 383 737 363 794 q 423 623 402 680 q 427 614 425 620 q 433 608 429 608 q 440 614 437 608 q 444 623 444 621 q 485 741 466 682 q 523 859 503 800 q 537 902 530 880 q 552 944 543 924 q 564 962 557 956 q 585 968 571 968 l 822 968 q 848 964 834 968 q 861 943 861 960 q 859 930 861 937 q 853 917 857 923 q 741 685 798 800 q 629 452 684 570 q 591 371 610 412 q 553 290 571 331 l 552 285 l 554 35 q 519 0 554 0 l 332 0 q 296 35 296 0 l 298 285 z "},"Ý":{"ha":863,"x_min":1,"x_max":861,"o":"m 298 285 l 298 290 q 284 320 292 305 q 270 351 277 336 l 215 473 q 112 695 165 585 q 8 918 60 806 q 3 930 5 924 q 1 944 1 937 q 14 964 1 960 q 39 968 27 968 l 277 968 q 298 962 291 968 q 310 945 304 956 q 328 899 320 923 q 343 851 335 874 q 383 737 363 794 q 423 623 402 680 q 427 614 425 620 q 433 608 429 608 q 440 614 437 608 q 444 623 444 621 q 485 741 466 682 q 523 859 503 800 q 537 902 530 880 q 552 944 543 924 q 564 962 557 956 q 585 968 571 968 l 822 968 q 848 964 834 968 q 861 943 861 960 q 859 930 861 937 q 853 917 857 923 q 741 685 798 800 q 629 452 684 570 q 591 371 610 412 q 553 290 571 331 l 552 285 l 554 35 q 519 0 554 0 l 332 0 q 296 35 296 0 l 298 285 m 671 1234 q 690 1234 677 1234 q 715 1229 704 1233 q 727 1215 727 1225 q 713 1191 727 1204 q 692 1172 699 1178 q 593 1093 641 1131 q 566 1071 580 1082 q 538 1049 552 1059 q 517 1042 529 1042 l 456 1042 q 430 1045 446 1042 q 414 1064 414 1048 q 426 1093 414 1072 q 455 1140 438 1114 q 487 1188 472 1166 q 508 1219 502 1210 q 537 1234 519 1234 l 671 1234 z "},"Ÿ":{"ha":863,"x_min":1,"x_max":861,"o":"m 298 285 l 298 290 q 284 320 292 305 q 270 351 277 336 l 215 473 q 112 695 165 585 q 8 918 60 806 q 3 930 5 924 q 1 944 1 937 q 14 964 1 960 q 39 968 27 968 l 277 968 q 298 962 291 968 q 310 945 304 956 q 328 899 320 923 q 343 851 335 874 q 383 737 363 794 q 423 623 402 680 q 427 614 425 620 q 433 608 429 608 q 440 614 437 608 q 444 623 444 621 q 485 741 466 682 q 523 859 503 800 q 537 902 530 880 q 552 944 543 924 q 564 962 557 956 q 585 968 571 968 l 822 968 q 848 964 834 968 q 861 943 861 960 q 859 930 861 937 q 853 917 857 923 q 741 685 798 800 q 629 452 684 570 q 591 371 610 412 q 553 290 571 331 l 552 285 l 554 35 q 519 0 554 0 l 332 0 q 296 35 296 0 l 298 285 m 179 1143 q 214 1222 179 1190 q 295 1255 250 1255 q 375 1223 340 1255 q 410 1145 410 1191 q 374 1067 410 1099 q 294 1036 338 1036 q 214 1067 250 1036 q 179 1143 179 1098 m 504 1140 q 541 1221 504 1188 q 624 1255 577 1255 q 701 1223 667 1255 q 735 1148 735 1192 q 699 1069 735 1103 q 618 1036 663 1036 q 539 1065 574 1036 q 504 1140 504 1095 z "},"Z":{"ha":750,"x_min":7,"x_max":724,"o":"m 724 944 q 722 931 724 937 q 717 918 720 924 q 564 580 641 749 q 412 240 486 411 q 410 232 410 236 q 422 224 410 224 l 677 224 q 712 190 710 224 q 713 161 713 176 q 713 132 712 146 q 714 84 713 108 q 715 36 715 60 q 680 0 715 0 l 70 0 q 44 4 58 0 q 31 24 31 9 q 33 38 31 32 q 39 51 36 45 q 79 137 59 94 q 118 223 99 180 q 223 476 172 349 q 328 728 273 603 q 330 736 330 732 q 317 743 330 743 l 86 743 q 51 778 53 743 q 51 807 50 792 q 50 836 51 821 q 49 884 50 860 q 48 932 48 908 q 83 968 48 968 l 686 968 q 711 964 698 968 q 724 944 724 960 m 7 0 l 13 0 q 8 -4 11 -4 q 7 0 7 -3 z "},"Ž":{"ha":750,"x_min":7,"x_max":724,"o":"m 724 944 q 722 931 724 937 q 717 918 720 924 q 564 580 641 749 q 412 240 486 411 q 410 232 410 236 q 422 224 410 224 l 677 224 q 712 190 710 224 q 713 161 713 176 q 713 132 712 146 q 714 84 713 108 q 715 36 715 60 q 680 0 715 0 l 70 0 q 44 4 58 0 q 31 24 31 9 q 33 38 31 32 q 39 51 36 45 q 79 137 59 94 q 118 223 99 180 q 223 476 172 349 q 328 728 273 603 q 330 736 330 732 q 317 743 330 743 l 86 743 q 51 778 53 743 q 51 807 50 792 q 50 836 51 821 q 49 884 50 860 q 48 932 48 908 q 83 968 48 968 l 686 968 q 711 964 698 968 q 724 944 724 960 m 7 0 l 13 0 q 8 -4 11 -4 q 7 0 7 -3 m 269 1255 q 310 1235 287 1255 q 355 1195 334 1215 q 387 1175 376 1175 q 406 1187 393 1175 q 435 1215 418 1200 q 468 1243 452 1231 q 494 1255 484 1255 l 592 1255 q 624 1253 602 1255 q 646 1236 646 1251 q 634 1213 646 1225 q 615 1194 623 1201 q 511 1101 563 1148 q 406 1009 459 1055 q 396 1002 401 1005 q 383 999 390 999 q 371 1002 376 999 q 360 1009 366 1005 q 254 1101 307 1055 q 148 1194 201 1148 q 129 1213 141 1201 q 117 1236 117 1225 q 140 1253 117 1251 q 171 1255 162 1255 l 269 1255 z "},"a":{"ha":817,"x_min":37,"x_max":758,"o":"m 319 -19 q 159 30 222 -19 q 66 157 96 79 q 37 323 37 235 q 68 494 37 413 q 163 626 99 575 q 328 677 228 677 q 503 621 424 677 q 512 616 509 616 q 523 627 519 616 q 533 649 526 638 q 555 660 539 660 l 718 660 q 753 625 753 660 q 752 548 753 586 q 752 471 752 509 q 753 323 752 397 q 755 176 753 250 q 756 105 755 140 q 758 35 758 71 q 723 0 758 0 l 546 0 q 528 13 530 0 q 528 38 527 26 q 520 51 530 51 q 508 45 515 51 q 419 -3 465 14 q 319 -19 373 -19 m 400 203 q 470 216 436 203 q 525 260 504 229 l 525 427 q 468 469 504 457 q 396 481 431 481 q 302 437 336 481 q 269 336 269 392 q 307 242 269 281 q 400 203 345 203 z "},"á":{"ha":817,"x_min":37,"x_max":758,"o":"m 319 -19 q 159 30 222 -19 q 66 157 96 79 q 37 323 37 235 q 68 494 37 413 q 163 626 99 575 q 328 677 228 677 q 503 621 424 677 q 512 616 509 616 q 523 627 519 616 q 533 649 526 638 q 555 660 539 660 l 718 660 q 753 625 753 660 q 752 548 753 586 q 752 471 752 509 q 753 323 752 397 q 755 176 753 250 q 756 105 755 140 q 758 35 758 71 q 723 0 758 0 l 546 0 q 528 13 530 0 q 528 38 527 26 q 520 51 530 51 q 508 45 515 51 q 419 -3 465 14 q 319 -19 373 -19 m 400 203 q 470 216 436 203 q 525 260 504 229 l 525 427 q 468 469 504 457 q 396 481 431 481 q 302 437 336 481 q 269 336 269 392 q 307 242 269 281 q 400 203 345 203 m 648 960 q 668 959 654 960 q 693 954 682 958 q 705 940 705 950 q 691 916 705 929 q 670 897 677 903 q 594 836 632 867 q 517 774 556 804 q 496 766 507 766 l 436 766 q 410 770 425 766 q 394 789 394 773 q 398 805 394 797 q 407 820 402 813 q 447 883 427 851 q 488 944 467 914 q 516 960 498 960 l 648 960 z "},"â":{"ha":817,"x_min":37,"x_max":758,"o":"m 319 -19 q 159 30 222 -19 q 66 157 96 79 q 37 323 37 235 q 68 494 37 413 q 163 626 99 575 q 328 677 228 677 q 503 621 424 677 q 512 616 509 616 q 523 627 519 616 q 533 649 526 638 q 555 660 539 660 l 718 660 q 753 625 753 660 q 752 548 753 586 q 752 471 752 509 q 753 323 752 397 q 755 176 753 250 q 756 105 755 140 q 758 35 758 71 q 723 0 758 0 l 546 0 q 528 13 530 0 q 528 38 527 26 q 520 51 530 51 q 508 45 515 51 q 419 -3 465 14 q 319 -19 373 -19 m 400 203 q 470 216 436 203 q 525 260 504 229 l 525 427 q 468 469 504 457 q 396 481 431 481 q 302 437 336 481 q 269 336 269 392 q 307 242 269 281 q 400 203 345 203 m 557 766 q 516 786 540 766 q 472 826 493 806 q 440 846 450 846 q 418 830 436 846 q 381 797 399 814 q 358 775 363 779 q 334 766 349 766 l 237 766 q 207 769 228 766 q 185 786 185 771 q 196 808 185 797 q 214 827 207 820 q 317 921 265 873 q 422 1013 369 968 q 433 1020 427 1017 q 445 1023 438 1023 q 457 1020 452 1023 q 468 1013 463 1017 q 574 920 522 967 q 678 827 626 873 q 696 808 686 820 q 707 786 707 797 q 686 769 707 771 q 655 766 665 766 l 557 766 z "},"ä":{"ha":817,"x_min":37,"x_max":758,"o":"m 319 -19 q 159 30 222 -19 q 66 157 96 79 q 37 323 37 235 q 68 494 37 413 q 163 626 99 575 q 328 677 228 677 q 503 621 424 677 q 512 616 509 616 q 523 627 519 616 q 533 649 526 638 q 555 660 539 660 l 718 660 q 753 625 753 660 q 752 548 753 586 q 752 471 752 509 q 753 323 752 397 q 755 176 753 250 q 756 105 755 140 q 758 35 758 71 q 723 0 758 0 l 546 0 q 528 13 530 0 q 528 38 527 26 q 520 51 530 51 q 508 45 515 51 q 419 -3 465 14 q 319 -19 373 -19 m 400 203 q 470 216 436 203 q 525 260 504 229 l 525 427 q 468 469 504 457 q 396 481 431 481 q 302 437 336 481 q 269 336 269 392 q 307 242 269 281 q 400 203 345 203 m 172 846 q 206 924 172 891 q 286 956 241 956 q 365 924 330 956 q 400 846 400 891 q 364 769 400 801 q 284 738 328 738 q 205 769 239 738 q 172 846 172 800 m 492 846 q 529 924 492 892 q 610 956 565 956 q 687 923 654 956 q 721 846 721 890 q 685 770 721 803 q 606 738 649 738 q 527 768 561 738 q 492 846 492 798 z "},"à":{"ha":817,"x_min":37,"x_max":758,"o":"m 319 -19 q 159 30 222 -19 q 66 157 96 79 q 37 323 37 235 q 68 494 37 413 q 163 626 99 575 q 328 677 228 677 q 503 621 424 677 q 512 616 509 616 q 523 627 519 616 q 533 649 526 638 q 555 660 539 660 l 718 660 q 753 625 753 660 q 752 548 753 586 q 752 471 752 509 q 753 323 752 397 q 755 176 753 250 q 756 105 755 140 q 758 35 758 71 q 723 0 758 0 l 546 0 q 528 13 530 0 q 528 38 527 26 q 520 51 530 51 q 508 45 515 51 q 419 -3 465 14 q 319 -19 373 -19 m 400 203 q 470 216 436 203 q 525 260 504 229 l 525 427 q 468 469 504 457 q 396 481 431 481 q 302 437 336 481 q 269 336 269 392 q 307 242 269 281 q 400 203 345 203 m 391 766 q 368 775 377 766 l 232 899 q 215 918 225 906 q 204 940 204 929 q 225 957 204 955 q 256 960 246 960 l 395 960 q 425 941 415 960 l 488 817 q 493 804 491 810 q 496 790 496 798 q 482 770 496 774 q 457 766 469 766 l 391 766 z "},"å":{"ha":817,"x_min":37,"x_max":758,"o":"m 319 -19 q 159 30 222 -19 q 66 157 96 79 q 37 323 37 235 q 68 494 37 413 q 163 626 99 575 q 328 677 228 677 q 503 621 424 677 q 512 616 509 616 q 523 627 519 616 q 533 649 526 638 q 555 660 539 660 l 718 660 q 753 625 753 660 q 752 548 753 586 q 752 471 752 509 q 753 323 752 397 q 755 176 753 250 q 756 105 755 140 q 758 35 758 71 q 723 0 758 0 l 546 0 q 528 13 530 0 q 528 38 527 26 q 520 51 530 51 q 508 45 515 51 q 419 -3 465 14 q 319 -19 373 -19 m 400 203 q 470 216 436 203 q 525 260 504 229 l 525 427 q 468 469 504 457 q 396 481 431 481 q 302 437 336 481 q 269 336 269 392 q 307 242 269 281 q 400 203 345 203 m 248 882 q 273 967 248 933 q 339 1018 298 1001 q 427 1035 380 1035 q 513 1018 473 1035 q 579 968 554 1002 q 605 884 605 935 q 551 767 605 808 q 427 726 497 726 q 339 744 380 726 q 273 797 298 762 q 248 882 248 832 m 364 878 q 389 834 364 848 q 439 819 414 819 q 479 838 469 819 q 490 884 490 857 q 478 924 490 910 q 439 937 467 937 q 388 923 412 937 q 364 878 364 909 z "},"ã":{"ha":817,"x_min":37,"x_max":758,"o":"m 319 -19 q 159 30 222 -19 q 66 157 96 79 q 37 323 37 235 q 68 494 37 413 q 163 626 99 575 q 328 677 228 677 q 503 621 424 677 q 512 616 509 616 q 523 627 519 616 q 533 649 526 638 q 555 660 539 660 l 718 660 q 753 625 753 660 q 752 548 753 586 q 752 471 752 509 q 753 323 752 397 q 755 176 753 250 q 756 105 755 140 q 758 35 758 71 q 723 0 758 0 l 546 0 q 528 13 530 0 q 528 38 527 26 q 520 51 530 51 q 508 45 515 51 q 419 -3 465 14 q 319 -19 373 -19 m 400 203 q 470 216 436 203 q 525 260 504 229 l 525 427 q 468 469 504 457 q 396 481 431 481 q 302 437 336 481 q 269 336 269 392 q 307 242 269 281 q 400 203 345 203 m 730 918 q 711 829 730 871 q 656 762 692 788 q 570 736 621 736 q 496 750 528 736 q 439 782 465 764 q 392 814 414 800 q 346 828 370 828 q 312 815 321 828 q 301 784 304 802 q 290 754 298 767 q 259 740 283 741 q 238 739 248 739 q 217 739 228 739 q 184 773 184 739 q 231 907 184 851 q 359 962 278 962 q 424 947 394 962 q 480 911 454 932 q 528 876 506 891 q 571 861 551 861 q 602 875 595 861 q 611 909 609 890 q 619 942 612 928 q 649 957 626 957 q 688 958 669 957 q 718 951 707 959 q 730 918 730 944 z "},"æ":{"ha":1178,"x_min":37,"x_max":1130,"o":"m 281 -19 q 156 1 212 -19 q 68 67 100 21 q 37 190 37 113 q 63 281 37 245 q 132 338 90 317 q 222 368 174 359 q 315 376 271 376 q 375 374 345 376 q 435 372 405 372 q 446 388 446 372 q 427 437 446 416 q 381 468 408 457 q 330 479 355 479 q 270 470 298 479 q 215 444 241 460 q 201 436 208 439 q 187 433 195 433 q 170 438 177 433 q 158 451 163 444 q 127 492 142 471 q 98 534 112 513 q 92 544 95 538 q 90 555 90 549 q 93 568 90 562 q 102 578 97 573 q 225 652 152 626 q 367 679 298 679 q 480 665 429 679 q 583 617 532 651 q 590 615 587 615 q 597 617 594 615 q 696 663 646 647 q 804 679 746 679 q 1020 606 940 679 q 1128 404 1100 534 q 1130 395 1130 399 q 1123 376 1130 382 q 1105 366 1116 369 q 1053 350 1080 357 q 1001 336 1027 343 q 851 293 926 314 q 702 248 777 271 q 693 239 693 245 q 696 233 693 237 q 765 176 721 194 q 852 159 808 159 q 945 173 901 159 q 1030 209 989 187 q 1042 215 1036 212 q 1055 218 1048 218 q 1074 209 1067 218 q 1084 191 1080 201 q 1099 157 1088 183 q 1120 107 1110 132 q 1129 76 1129 82 q 1114 51 1129 62 q 981 -3 1059 13 q 838 -20 904 -20 q 678 2 755 -20 q 538 80 601 24 q 530 84 534 84 q 521 79 524 84 q 412 4 471 28 q 281 -19 354 -19 m 671 361 q 780 393 725 377 q 890 425 835 409 q 793 487 860 487 q 705 452 734 487 q 671 361 675 416 m 454 222 q 448 247 450 235 q 410 251 429 250 q 372 252 391 252 q 339 248 358 252 q 307 233 321 243 q 293 205 293 223 q 310 175 293 182 q 346 168 328 168 q 406 184 378 168 q 454 222 433 201 z "},"b":{"ha":818,"x_min":58,"x_max":781,"o":"m 781 336 q 745 165 781 247 q 640 33 709 84 q 475 -19 572 -19 q 318 43 385 -19 q 311 49 315 45 q 302 54 307 54 q 296 40 294 54 q 296 14 297 27 q 279 0 295 0 l 94 0 q 59 36 59 0 q 60 110 59 73 q 62 183 61 146 q 64 338 63 260 q 64 493 64 415 q 64 654 64 574 q 62 816 63 735 q 60 893 61 854 q 58 970 58 931 q 94 1006 58 1006 l 260 1006 q 294 971 294 1006 l 296 637 q 297 627 296 635 q 303 620 298 620 q 311 623 307 620 q 317 629 315 627 q 494 694 395 694 q 661 642 597 694 q 752 509 724 591 q 781 336 781 427 m 423 213 q 513 254 479 213 q 547 348 547 295 q 532 416 547 383 q 490 470 517 449 q 423 492 462 492 q 354 479 389 492 q 299 437 320 467 q 299 354 299 396 q 298 271 299 313 q 354 227 320 240 q 423 213 387 213 z "},"c":{"ha":578,"x_min":33,"x_max":543,"o":"m 465 211 q 485 203 479 211 q 495 184 491 195 q 505 156 498 177 q 519 111 511 136 q 533 66 528 86 q 539 43 539 47 q 519 16 539 26 q 434 -9 486 -1 q 344 -18 382 -18 q 171 24 240 -18 q 67 143 102 67 q 33 319 33 220 q 71 501 33 419 q 182 631 109 583 q 361 680 256 680 q 447 670 401 680 q 527 637 494 660 q 539 627 534 633 q 543 612 543 621 q 537 589 543 608 q 523 548 531 571 q 507 506 514 526 q 496 480 499 487 q 485 461 492 469 q 465 453 479 453 q 432 459 451 453 q 391 466 414 466 q 296 426 327 466 q 266 326 266 386 q 294 232 266 268 q 382 197 322 197 q 429 204 408 197 q 465 211 450 211 z "},"ç":{"ha":578,"x_min":33,"x_max":543,"o":"m 465 211 q 485 203 479 211 q 495 184 491 195 q 505 156 498 177 q 519 111 511 136 q 533 66 528 86 q 539 43 539 47 q 519 16 539 26 q 434 -9 486 -1 q 344 -18 382 -18 q 171 24 240 -18 q 67 143 102 67 q 33 319 33 220 q 71 501 33 419 q 182 631 109 583 q 361 680 256 680 q 447 670 401 680 q 527 637 494 660 q 539 627 534 633 q 543 612 543 621 q 537 589 543 608 q 523 548 531 571 q 507 506 514 526 q 496 480 499 487 q 485 461 492 469 q 465 453 479 453 q 432 459 451 453 q 391 466 414 466 q 296 426 327 466 q 266 326 266 386 q 294 232 266 268 q 382 197 322 197 q 429 204 408 197 q 465 211 450 211 m 83 -273 q 97 -245 83 -260 q 119 -221 111 -230 q 131 -210 124 -214 q 147 -205 138 -205 q 186 -218 163 -205 q 243 -230 210 -230 q 279 -225 258 -230 q 316 -210 300 -220 q 332 -181 332 -199 q 316 -151 332 -161 q 280 -139 300 -142 q 245 -136 260 -136 q 203 -141 224 -136 q 166 -146 182 -146 q 136 -121 143 -146 q 127 -93 133 -108 q 121 -64 121 -77 q 138 -37 121 -47 q 168 -18 147 -31 q 208 7 188 -5 q 237 18 229 18 l 368 19 q 379 18 372 19 q 387 11 387 17 q 377 -6 387 4 q 357 -25 368 -16 q 347 -40 347 -34 q 353 -46 347 -45 q 361 -47 359 -47 q 436 -67 399 -53 q 498 -109 473 -81 q 523 -181 523 -136 q 497 -261 523 -230 q 431 -310 471 -292 q 347 -335 391 -328 q 264 -342 302 -342 q 177 -331 222 -342 q 98 -295 132 -320 q 83 -273 83 -285 z "},"d":{"ha":819,"x_min":37,"x_max":761,"o":"m 313 -19 q 154 31 215 -19 q 65 160 94 81 q 37 326 37 239 q 67 498 37 418 q 162 628 98 578 q 330 677 227 677 q 504 616 425 677 q 510 612 507 614 q 517 610 513 610 q 523 616 522 610 q 524 625 524 623 l 526 971 q 560 1006 526 1006 l 726 1006 q 761 970 761 1006 q 760 893 761 931 q 758 816 758 854 q 755 654 756 735 q 755 493 755 574 q 755 338 755 415 q 758 183 756 260 q 759 110 758 146 q 760 36 760 73 q 725 0 760 0 l 548 0 q 525 16 528 0 q 525 47 523 31 q 517 63 527 63 q 510 60 514 63 q 504 55 507 57 q 415 0 463 19 q 313 -19 368 -19 m 274 339 q 309 244 274 284 q 401 205 345 205 q 470 218 436 205 q 524 262 503 232 q 523 346 523 304 q 523 429 523 388 q 467 471 502 459 q 398 483 433 483 q 332 461 360 483 q 289 407 304 440 q 274 339 274 374 z "},"ð":{"ha":819,"x_min":37,"x_max":783,"o":"m 396 -20 q 209 21 290 -20 q 82 139 128 62 q 37 324 37 216 q 75 498 37 418 q 184 629 113 579 q 355 678 256 678 q 420 669 387 678 q 433 665 426 667 q 446 663 439 663 q 452 667 452 663 q 436 688 452 671 q 398 726 420 705 q 358 763 376 747 q 336 778 340 778 q 313 767 329 778 q 279 744 296 755 q 250 733 262 733 q 235 738 241 733 q 223 749 229 743 q 202 778 216 758 q 187 807 187 798 q 201 830 187 821 q 228 845 214 839 q 241 859 241 852 q 225 878 241 867 q 210 899 210 888 q 213 907 210 904 q 220 913 217 910 q 254 935 236 924 q 288 956 271 945 q 329 983 309 969 q 370 1008 349 996 q 388 1014 379 1014 q 424 997 404 1014 q 453 981 445 981 q 475 991 458 981 q 513 1015 492 1001 q 553 1038 534 1028 q 581 1048 572 1048 q 605 1034 591 1048 q 630 1001 619 1019 q 640 975 640 984 q 627 952 640 962 q 595 932 613 941 q 563 916 576 924 q 549 901 549 908 q 554 892 549 897 q 720 649 658 784 q 783 361 783 513 q 732 164 783 250 q 593 29 681 78 q 396 -20 506 -20 m 269 339 q 309 238 269 276 q 412 200 350 200 q 513 238 475 200 q 552 339 552 276 q 513 440 552 403 q 412 477 474 477 q 309 440 349 477 q 269 339 269 404 z "},"e":{"ha":696,"x_min":37,"x_max":657,"o":"m 384 -20 q 127 68 217 -20 q 37 323 37 155 q 74 506 37 426 q 185 633 111 587 q 366 679 258 679 q 568 603 501 679 q 656 402 635 528 q 657 395 657 399 q 634 366 657 374 l 292 248 q 285 239 285 245 q 286 233 285 237 q 343 178 307 195 q 421 160 379 160 q 493 172 459 160 q 560 200 527 184 q 582 206 572 206 q 600 199 593 206 q 610 182 606 192 l 649 88 q 652 73 652 80 q 648 58 652 64 q 636 47 644 53 q 515 -3 587 14 q 384 -20 443 -20 m 267 368 q 354 397 311 382 q 440 427 397 412 q 413 471 431 455 q 364 487 394 487 q 291 450 312 487 q 267 368 270 412 z "},"é":{"ha":696,"x_min":37,"x_max":657,"o":"m 384 -20 q 127 68 217 -20 q 37 323 37 155 q 74 506 37 426 q 185 633 111 587 q 366 679 258 679 q 568 603 501 679 q 656 402 635 528 q 657 395 657 399 q 634 366 657 374 l 292 248 q 285 239 285 245 q 286 233 285 237 q 343 178 307 195 q 421 160 379 160 q 493 172 459 160 q 560 200 527 184 q 582 206 572 206 q 600 199 593 206 q 610 182 606 192 l 649 88 q 652 73 652 80 q 648 58 652 64 q 636 47 644 53 q 515 -3 587 14 q 384 -20 443 -20 m 267 368 q 354 397 311 382 q 440 427 397 412 q 413 471 431 455 q 364 487 394 487 q 291 450 312 487 q 267 368 270 412 m 599 962 q 618 961 605 962 q 644 956 632 960 q 655 942 655 952 q 642 918 655 931 q 621 899 628 905 q 545 838 583 869 q 468 777 507 806 q 446 768 458 768 l 387 768 q 360 772 376 768 q 345 791 345 775 q 349 807 345 799 q 357 822 353 815 q 397 885 377 853 q 438 946 417 916 q 467 962 448 962 l 599 962 z "},"ê":{"ha":696,"x_min":37,"x_max":658,"o":"m 384 -20 q 127 68 217 -20 q 37 323 37 155 q 74 506 37 426 q 185 633 111 587 q 366 679 258 679 q 568 603 501 679 q 656 402 635 528 q 657 395 657 399 q 634 366 657 374 l 292 248 q 285 239 285 245 q 286 233 285 237 q 343 178 307 195 q 421 160 379 160 q 493 172 459 160 q 560 200 527 184 q 582 206 572 206 q 600 199 593 206 q 610 182 606 192 l 649 88 q 652 73 652 80 q 648 58 652 64 q 636 47 644 53 q 515 -3 587 14 q 384 -20 443 -20 m 267 368 q 354 397 311 382 q 440 427 397 412 q 413 471 431 455 q 364 487 394 487 q 291 450 312 487 q 267 368 270 412 m 507 768 q 467 788 490 768 q 422 828 444 808 q 391 848 401 848 q 368 832 387 848 q 332 799 350 817 q 309 777 313 781 q 285 768 299 768 l 187 768 q 157 771 178 768 q 136 788 136 773 q 146 810 136 799 q 164 829 157 822 q 268 923 216 876 q 372 1015 319 970 q 383 1022 378 1019 q 395 1025 389 1025 q 408 1022 402 1025 q 418 1015 414 1019 q 524 922 472 969 q 629 829 576 876 q 647 810 636 822 q 658 788 658 799 q 636 771 658 773 q 606 768 615 768 l 507 768 z "},"ë":{"ha":696,"x_min":37,"x_max":671,"o":"m 384 -20 q 127 68 217 -20 q 37 323 37 155 q 74 506 37 426 q 185 633 111 587 q 366 679 258 679 q 568 603 501 679 q 656 402 635 528 q 657 395 657 399 q 634 366 657 374 l 292 248 q 285 239 285 245 q 286 233 285 237 q 343 178 307 195 q 421 160 379 160 q 493 172 459 160 q 560 200 527 184 q 582 206 572 206 q 600 199 593 206 q 610 182 606 192 l 649 88 q 652 73 652 80 q 648 58 652 64 q 636 47 644 53 q 515 -3 587 14 q 384 -20 443 -20 m 267 368 q 354 397 311 382 q 440 427 397 412 q 413 471 431 455 q 364 487 394 487 q 291 450 312 487 q 267 368 270 412 m 122 848 q 157 926 122 893 q 236 958 191 958 q 315 926 280 958 q 351 848 351 893 q 315 771 351 803 q 235 740 279 740 q 156 771 190 740 q 122 848 122 802 m 443 848 q 479 926 443 894 q 560 958 515 958 q 638 925 604 958 q 671 848 671 892 q 635 772 671 805 q 557 740 600 740 q 477 770 511 740 q 443 848 443 800 z "},"è":{"ha":696,"x_min":37,"x_max":657,"o":"m 384 -20 q 127 68 217 -20 q 37 323 37 155 q 74 506 37 426 q 185 633 111 587 q 366 679 258 679 q 568 603 501 679 q 656 402 635 528 q 657 395 657 399 q 634 366 657 374 l 292 248 q 285 239 285 245 q 286 233 285 237 q 343 178 307 195 q 421 160 379 160 q 493 172 459 160 q 560 200 527 184 q 582 206 572 206 q 600 199 593 206 q 610 182 606 192 l 649 88 q 652 73 652 80 q 648 58 652 64 q 636 47 644 53 q 515 -3 587 14 q 384 -20 443 -20 m 267 368 q 354 397 311 382 q 440 427 397 412 q 413 471 431 455 q 364 487 394 487 q 291 450 312 487 q 267 368 270 412 m 342 768 q 318 777 328 768 l 182 901 q 165 920 176 908 q 155 942 155 931 q 176 959 155 957 q 206 962 197 962 l 345 962 q 376 943 366 962 l 438 819 q 444 806 441 812 q 446 792 446 800 q 433 772 446 777 q 408 768 419 768 l 342 768 z "},"f":{"ha":490,"x_min":26,"x_max":479,"o":"m 147 0 q 112 35 112 0 q 113 249 112 142 q 115 463 115 356 q 101 474 115 474 q 71 473 88 475 q 40 478 54 471 q 27 508 27 484 q 27 569 27 538 q 26 630 26 600 q 40 661 26 654 q 70 666 53 667 q 101 664 87 664 q 114 676 114 664 l 114 708 q 137 851 114 786 q 213 957 160 917 q 352 996 265 996 q 402 994 376 996 q 452 987 428 992 q 471 979 464 985 q 479 960 479 973 q 475 935 479 956 q 465 888 471 914 q 455 840 460 861 q 448 813 450 818 q 435 801 445 801 q 422 802 429 801 q 410 802 416 802 q 372 786 385 802 q 355 748 359 770 q 351 705 351 726 l 351 676 q 366 664 351 664 q 400 666 380 664 q 434 662 419 668 q 449 631 449 656 q 449 569 449 600 q 448 508 448 538 q 414 473 448 473 l 361 473 q 350 463 350 473 q 351 249 350 356 q 352 35 352 142 q 317 0 352 0 l 147 0 z "},"g":{"ha":793,"x_min":37,"x_max":733,"o":"m 372 -266 q 222 -240 294 -266 q 94 -159 150 -214 q 85 -148 89 -153 q 81 -135 81 -142 q 95 -107 81 -127 q 124 -68 109 -87 q 146 -41 140 -48 q 157 -30 151 -34 q 172 -25 163 -25 q 183 -27 178 -25 q 193 -31 188 -28 q 256 -54 228 -47 q 323 -60 283 -60 q 400 -48 360 -60 q 469 -9 441 -37 q 496 62 496 18 q 496 70 496 65 q 495 76 496 75 q 474 58 494 76 q 417 21 454 39 q 324 3 379 3 q 169 48 233 3 q 71 169 104 94 q 37 328 37 243 q 56 454 37 392 q 113 567 75 516 q 205 648 151 618 q 330 678 260 678 q 429 661 382 678 q 513 608 476 644 q 518 603 515 606 q 524 601 522 601 q 535 616 533 601 q 545 645 538 631 q 573 660 551 660 l 694 660 q 729 625 729 660 q 729 548 729 587 q 728 471 728 509 q 731 258 728 365 q 733 44 733 151 q 702 -84 733 -26 q 617 -182 670 -141 q 501 -244 565 -222 q 372 -266 437 -266 m 386 203 q 446 218 417 203 q 490 260 474 233 l 490 427 q 441 468 472 454 q 379 481 411 481 q 318 460 343 481 q 280 408 293 439 q 267 344 267 376 q 297 247 267 291 q 386 203 328 203 z "},"h":{"ha":787,"x_min":58,"x_max":728,"o":"m 94 0 q 59 35 59 0 q 60 109 59 72 q 62 183 61 146 q 64 338 63 260 q 64 493 64 415 q 64 655 64 574 q 62 817 63 736 q 60 893 61 855 q 58 970 58 932 q 94 1006 58 1006 l 256 1006 q 290 972 290 1006 l 292 600 q 293 589 292 598 q 298 581 294 581 q 307 585 302 581 q 314 593 312 590 q 398 657 353 635 q 503 679 444 679 q 609 656 559 679 q 691 590 660 633 q 723 486 723 547 q 724 334 723 410 q 726 181 724 258 q 727 108 726 144 q 728 35 728 71 q 693 0 728 0 l 528 0 q 494 35 494 0 l 492 395 q 476 449 492 430 q 425 467 461 467 q 357 443 382 467 q 318 380 332 418 q 301 302 305 342 q 296 231 296 262 q 296 161 296 196 q 296 92 296 127 q 296 63 296 78 q 295 35 296 49 q 260 0 293 0 l 94 0 z "},"i":{"ha":382,"x_min":67,"x_max":322,"o":"m 194 789 q 103 829 138 789 q 67 922 67 868 q 106 1010 67 972 q 195 1048 145 1048 q 285 1008 248 1048 q 322 916 322 968 q 284 827 322 865 q 194 789 245 789 m 79 477 l 79 625 q 113 660 79 660 l 262 660 q 296 625 296 660 q 297 331 296 478 q 298 35 298 183 q 262 0 298 0 l 112 0 q 77 35 77 0 q 78 256 77 146 q 79 477 79 367 z "},"ı":{"ha":382,"x_min":71,"x_max":311,"o":"m 73 477 l 73 625 q 108 660 73 660 l 275 660 q 309 625 309 660 q 310 331 309 478 q 311 35 311 183 q 276 0 311 0 l 106 0 q 71 35 71 0 q 72 256 71 146 q 73 477 73 367 z "},"í":{"ha":382,"x_min":71,"x_max":449,"o":"m 73 477 l 73 625 q 108 660 73 660 l 275 660 q 309 625 309 660 q 310 331 309 478 q 311 35 311 183 q 276 0 311 0 l 106 0 q 71 35 71 0 q 72 256 71 146 q 73 477 73 367 m 393 943 q 412 942 399 943 q 437 937 426 941 q 449 923 449 933 q 435 899 449 912 q 414 880 422 886 q 338 819 376 850 q 262 758 300 787 q 240 749 252 749 l 180 749 q 154 753 170 749 q 138 772 138 756 q 142 788 138 780 q 151 803 146 796 q 191 866 171 834 q 232 927 211 897 q 260 943 242 943 l 393 943 z "},"î":{"ha":382,"x_min":-71,"x_max":452,"o":"m 73 477 l 73 625 q 108 660 73 660 l 275 660 q 309 625 309 660 q 310 331 309 478 q 311 35 311 183 q 276 0 311 0 l 106 0 q 71 35 71 0 q 72 256 71 146 q 73 477 73 367 m 301 749 q 261 769 284 749 q 216 809 237 789 q 184 829 195 829 q 162 813 180 829 q 125 780 144 798 q 102 758 107 762 q 79 749 93 749 l -19 749 q -49 752 -28 749 q -71 769 -71 754 q -60 791 -71 780 q -42 810 -49 803 q 61 904 9 857 q 166 996 113 951 q 177 1003 172 1000 q 189 1006 182 1006 q 202 1003 196 1006 q 212 996 208 1000 q 318 903 266 950 q 422 810 370 857 q 441 791 430 803 q 452 769 452 780 q 430 752 452 754 q 399 749 409 749 l 301 749 z "},"ï":{"ha":382,"x_min":-84,"x_max":465,"o":"m 73 477 l 73 625 q 108 660 73 660 l 275 660 q 309 625 309 660 q 310 331 309 478 q 311 35 311 183 q 276 0 311 0 l 106 0 q 71 35 71 0 q 72 256 71 146 q 73 477 73 367 m -84 829 q -50 907 -84 874 q 30 939 -15 939 q 109 907 74 939 q 144 829 144 874 q 109 752 144 784 q 28 721 73 721 q -50 752 -16 721 q -84 829 -84 783 m 237 829 q 273 907 237 875 q 354 939 309 939 q 432 906 398 939 q 465 829 465 873 q 429 753 465 786 q 351 721 393 721 q 271 751 305 721 q 237 829 237 781 z "},"ì":{"ha":382,"x_min":-52,"x_max":311,"o":"m 73 477 l 73 625 q 108 660 73 660 l 275 660 q 309 625 309 660 q 310 331 309 478 q 311 35 311 183 q 276 0 311 0 l 106 0 q 71 35 71 0 q 72 256 71 146 q 73 477 73 367 m 136 749 q 112 758 121 749 l -24 882 q -41 901 -31 889 q -52 923 -52 912 q -31 940 -52 938 q 0 943 -9 943 l 139 943 q 170 924 159 943 l 232 800 q 238 787 235 793 q 240 773 240 781 q 227 753 240 758 q 201 749 213 749 l 136 749 z "},"j":{"ha":386,"x_min":18,"x_max":334,"o":"m 210 799 q 121 839 155 799 q 88 930 88 879 q 125 1019 88 980 q 212 1057 162 1057 q 299 1017 264 1057 q 334 926 334 976 q 297 837 334 876 q 210 799 260 799 m 328 -7 q 294 -185 328 -107 q 165 -311 260 -264 q 150 -315 159 -315 q 125 -302 137 -315 q 105 -277 115 -290 q 85 -252 95 -264 q 56 -217 71 -235 q 28 -180 41 -199 q 21 -169 24 -175 q 18 -157 18 -163 q 23 -141 18 -147 q 34 -128 28 -134 q 78 -59 66 -94 q 90 22 90 -23 q 92 404 92 214 l 92 625 q 126 660 92 660 l 292 660 q 326 625 326 660 q 327 309 326 467 q 328 -7 328 151 z "},"k":{"ha":835,"x_min":58,"x_max":800,"o":"m 94 0 q 59 36 59 0 q 60 110 59 73 q 62 184 62 146 q 64 338 64 261 q 65 494 65 416 q 64 655 65 574 q 62 816 63 736 q 60 893 61 854 q 58 970 58 932 q 94 1006 58 1006 l 252 1006 q 288 971 286 1006 q 289 883 290 928 q 289 794 288 838 q 290 609 290 702 q 290 423 290 516 q 298 411 290 411 q 304 412 300 411 q 454 491 387 441 q 546 630 521 542 q 558 653 550 646 q 583 661 566 661 l 765 661 q 789 655 779 661 q 799 634 799 650 q 798 623 799 630 q 729 468 779 533 q 608 349 680 404 q 602 340 602 345 q 619 311 602 338 q 662 244 636 283 q 713 165 687 205 q 760 94 740 125 q 787 54 781 64 q 795 39 791 47 q 800 22 800 31 q 784 3 800 7 q 758 0 769 0 l 576 0 q 548 14 560 0 q 530 38 539 25 q 513 62 522 50 q 455 144 484 102 q 395 225 426 186 q 387 230 391 230 q 384 229 385 230 q 380 228 382 229 q 338 213 359 219 q 296 197 317 206 q 288 187 288 194 q 289 111 288 151 q 288 35 290 71 q 252 0 286 0 l 94 0 z "},"l":{"ha":371,"x_min":66,"x_max":306,"o":"m 66 970 q 101 1006 66 1006 l 271 1006 q 306 970 306 1006 q 305 737 306 854 q 304 503 304 620 q 305 270 304 387 q 306 35 306 153 q 271 0 306 0 l 101 0 q 66 35 66 0 q 67 241 66 138 q 68 446 68 343 q 67 708 68 577 q 66 970 66 840 z "},"ł":{"ha":454,"x_min":16,"x_max":437,"o":"m 343 604 q 376 610 359 604 q 408 617 392 617 q 430 607 425 617 q 436 582 436 596 q 437 516 436 549 q 437 451 437 484 q 422 421 437 429 q 386 410 406 412 q 349 404 365 407 q 334 389 334 401 q 335 213 334 301 q 336 35 336 124 q 300 0 336 0 l 134 0 q 99 35 99 0 q 100 181 99 108 q 100 327 100 254 q 92 338 100 338 q 66 333 79 338 q 40 328 54 328 q 22 336 27 328 q 18 356 18 345 l 16 496 q 29 525 16 517 q 58 535 41 532 q 87 540 75 537 q 100 553 100 543 q 99 762 100 658 q 98 970 98 866 q 134 1006 98 1006 l 301 1006 q 336 971 336 1006 l 334 615 q 343 604 334 604 z "},"m":{"ha":1213,"x_min":60,"x_max":1153,"o":"m 250 660 q 283 633 275 660 q 289 607 286 627 q 297 569 292 587 q 307 551 302 551 q 314 556 310 551 q 319 563 317 560 q 407 649 359 620 q 528 679 456 679 q 643 655 595 679 q 720 569 690 631 q 724 562 722 566 q 730 558 726 558 q 751 576 734 558 q 794 618 767 594 q 858 660 821 642 q 940 678 895 678 q 1086 627 1027 678 q 1145 486 1145 576 q 1145 334 1145 410 q 1148 182 1146 258 q 1151 109 1149 145 q 1153 36 1153 72 q 1118 0 1153 0 l 956 0 q 922 34 925 0 q 919 96 919 64 q 919 157 920 127 q 918 270 918 214 q 917 382 917 326 q 907 441 917 418 q 855 465 898 465 q 791 441 817 465 q 751 379 766 416 q 729 303 736 342 q 723 235 723 264 q 724 135 723 185 q 724 35 724 85 q 689 0 724 0 l 526 0 q 492 35 492 0 q 492 211 492 123 q 493 387 493 298 q 480 444 493 422 q 428 465 468 465 q 366 441 391 465 q 326 380 341 416 q 304 304 311 343 q 297 237 297 266 q 297 173 297 205 q 296 109 296 141 q 295 71 295 90 q 294 34 295 52 q 285 8 292 17 q 259 0 277 0 l 94 0 q 60 36 60 0 q 62 113 60 74 q 64 190 64 151 q 68 513 68 352 q 68 569 68 541 q 68 625 67 597 q 102 660 68 660 l 250 660 z "},"n":{"ha":787,"x_min":59,"x_max":728,"o":"m 250 660 q 277 646 269 660 q 290 613 286 631 q 296 580 294 594 q 307 566 299 566 q 314 569 311 566 q 319 575 317 572 q 405 652 358 625 q 517 678 452 678 q 620 654 573 678 q 695 588 667 631 q 723 486 723 545 q 724 334 723 410 q 726 181 724 258 q 727 108 726 144 q 728 35 728 71 q 693 0 728 0 l 528 0 q 494 35 494 0 l 492 395 q 476 449 492 430 q 425 467 461 467 q 348 433 375 467 q 309 346 321 399 q 296 233 298 292 q 296 120 294 173 q 295 35 297 66 q 260 0 293 0 l 94 0 q 59 35 59 0 q 60 105 59 71 q 62 176 61 140 q 64 323 63 250 q 64 471 64 397 q 63 548 64 509 q 64 625 62 587 q 99 660 64 660 l 250 660 z "},"ñ":{"ha":787,"x_min":59,"x_max":728,"o":"m 250 660 q 277 646 269 660 q 290 613 286 631 q 296 580 294 594 q 307 566 299 566 q 314 569 311 566 q 319 575 317 572 q 405 652 358 625 q 517 678 452 678 q 620 654 573 678 q 695 588 667 631 q 723 486 723 545 q 724 334 723 410 q 726 181 724 258 q 727 108 726 144 q 728 35 728 71 q 693 0 728 0 l 528 0 q 494 35 494 0 l 492 395 q 476 449 492 430 q 425 467 461 467 q 348 433 375 467 q 309 346 321 399 q 296 233 298 292 q 296 120 294 173 q 295 35 297 66 q 260 0 293 0 l 94 0 q 59 35 59 0 q 60 105 59 71 q 62 176 61 140 q 64 323 63 250 q 64 471 64 397 q 63 548 64 509 q 64 625 62 587 q 99 660 64 660 l 250 660 m 673 899 q 654 810 673 852 q 599 743 635 769 q 513 717 564 717 q 439 731 471 717 q 382 763 408 745 q 335 795 357 781 q 289 809 313 809 q 255 796 264 809 q 244 765 247 783 q 233 735 241 748 q 202 721 226 722 q 181 720 191 720 q 160 720 171 720 q 127 754 127 720 q 174 888 127 832 q 302 943 221 943 q 367 928 337 943 q 423 892 397 913 q 471 857 449 872 q 514 842 494 842 q 545 856 538 842 q 554 890 552 871 q 562 923 555 909 q 592 938 569 938 q 631 939 612 938 q 661 932 650 940 q 673 899 673 925 z "},"o":{"ha":734,"x_min":36,"x_max":699,"o":"m 36 326 q 77 508 36 428 q 195 633 119 587 q 376 678 271 678 q 551 633 479 678 q 661 509 623 587 q 699 332 699 431 q 662 150 699 229 q 551 26 624 71 q 371 -19 477 -19 q 124 75 212 -19 q 36 326 36 170 m 272 339 q 281 278 272 311 q 311 223 290 245 q 367 200 332 200 q 427 222 406 200 q 456 278 448 245 q 464 342 464 311 q 455 403 464 372 q 427 455 447 434 q 370 476 406 476 q 312 455 334 476 q 281 401 291 433 q 272 339 272 370 z "},"ó":{"ha":734,"x_min":36,"x_max":699,"o":"m 36 326 q 77 508 36 428 q 195 633 119 587 q 376 678 271 678 q 551 633 479 678 q 661 509 623 587 q 699 332 699 431 q 662 150 699 229 q 551 26 624 71 q 371 -19 477 -19 q 124 75 212 -19 q 36 326 36 170 m 272 339 q 281 278 272 311 q 311 223 290 245 q 367 200 332 200 q 427 222 406 200 q 456 278 448 245 q 464 342 464 311 q 455 403 464 372 q 427 455 447 434 q 370 476 406 476 q 312 455 334 476 q 281 401 291 433 q 272 339 272 370 m 566 960 q 585 959 572 960 q 610 954 599 958 q 622 940 622 950 q 608 916 622 929 q 587 897 595 903 q 511 836 549 867 q 435 774 473 804 q 413 766 425 766 l 353 766 q 327 770 342 766 q 311 789 311 773 q 315 805 311 797 q 324 820 319 813 q 364 883 344 851 q 405 944 384 914 q 433 960 415 960 l 566 960 z "},"ô":{"ha":734,"x_min":36,"x_max":699,"o":"m 36 326 q 77 508 36 428 q 195 633 119 587 q 376 678 271 678 q 551 633 479 678 q 661 509 623 587 q 699 332 699 431 q 662 150 699 229 q 551 26 624 71 q 371 -19 477 -19 q 124 75 212 -19 q 36 326 36 170 m 272 339 q 281 278 272 311 q 311 223 290 245 q 367 200 332 200 q 427 222 406 200 q 456 278 448 245 q 464 342 464 311 q 455 403 464 372 q 427 455 447 434 q 370 476 406 476 q 312 455 334 476 q 281 401 291 433 q 272 339 272 370 m 474 766 q 434 786 457 766 q 389 826 410 806 q 357 846 368 846 q 335 830 353 846 q 298 797 317 814 q 275 775 280 779 q 252 766 266 766 l 154 766 q 124 769 145 766 q 102 786 102 771 q 113 808 102 797 q 131 827 124 820 q 234 921 182 873 q 339 1013 286 968 q 350 1020 345 1017 q 362 1023 355 1023 q 375 1020 369 1023 q 385 1013 380 1017 q 491 920 439 967 q 595 827 543 873 q 614 808 603 820 q 625 786 625 797 q 603 769 625 771 q 572 766 582 766 l 474 766 z "},"ö":{"ha":734,"x_min":36,"x_max":699,"o":"m 36 326 q 77 508 36 428 q 195 633 119 587 q 376 678 271 678 q 551 633 479 678 q 661 509 623 587 q 699 332 699 431 q 662 150 699 229 q 551 26 624 71 q 371 -19 477 -19 q 124 75 212 -19 q 36 326 36 170 m 272 339 q 281 278 272 311 q 311 223 290 245 q 367 200 332 200 q 427 222 406 200 q 456 278 448 245 q 464 342 464 311 q 455 403 464 372 q 427 455 447 434 q 370 476 406 476 q 312 455 334 476 q 281 401 291 433 q 272 339 272 370 m 89 846 q 123 924 89 891 q 203 956 158 956 q 282 924 247 956 q 317 846 317 891 q 281 769 317 801 q 201 738 245 738 q 123 769 157 738 q 89 846 89 800 m 410 846 q 446 924 410 892 q 527 956 482 956 q 605 923 571 956 q 638 846 638 890 q 602 770 638 803 q 524 738 566 738 q 444 768 478 738 q 410 846 410 798 z "},"ò":{"ha":734,"x_min":36,"x_max":699,"o":"m 36 326 q 77 508 36 428 q 195 633 119 587 q 376 678 271 678 q 551 633 479 678 q 661 509 623 587 q 699 332 699 431 q 662 150 699 229 q 551 26 624 71 q 371 -19 477 -19 q 124 75 212 -19 q 36 326 36 170 m 272 339 q 281 278 272 311 q 311 223 290 245 q 367 200 332 200 q 427 222 406 200 q 456 278 448 245 q 464 342 464 311 q 455 403 464 372 q 427 455 447 434 q 370 476 406 476 q 312 455 334 476 q 281 401 291 433 q 272 339 272 370 m 309 766 q 285 775 294 766 l 149 899 q 132 918 142 906 q 121 940 121 929 q 142 957 121 955 q 173 960 163 960 l 312 960 q 342 941 332 960 l 405 817 q 411 804 408 810 q 413 790 413 798 q 399 770 413 774 q 374 766 386 766 l 309 766 z "},"ø":{"ha":734,"x_min":36,"x_max":718,"o":"m 623 715 q 644 705 631 715 q 667 683 657 696 q 677 662 677 671 q 665 634 677 649 q 641 607 653 619 q 629 587 629 594 q 632 578 629 582 q 698 461 679 523 q 718 328 718 400 q 677 146 718 224 q 561 24 637 68 q 380 -19 486 -19 q 282 -8 328 -19 q 190 27 236 3 q 184 28 186 28 q 164 12 176 28 q 140 -20 153 -4 q 113 -37 127 -37 q 91 -26 104 -37 q 70 -3 79 -16 q 60 19 60 10 q 73 46 60 32 q 97 73 85 60 q 109 93 109 85 q 106 100 109 96 q 52 208 68 152 q 36 328 36 264 q 80 511 36 432 q 203 634 124 590 q 385 679 281 679 q 466 670 427 679 q 543 646 505 662 q 548 644 545 644 q 568 662 556 644 q 594 697 581 680 q 623 715 608 715 m 271 339 q 272 317 271 328 q 275 296 273 307 q 345 384 311 340 q 414 471 380 427 q 380 477 398 477 q 297 433 323 477 q 271 339 271 389 m 476 398 q 402 306 439 352 q 328 213 366 259 q 373 200 350 200 q 458 241 433 200 q 484 335 484 281 q 482 367 484 351 q 476 398 481 383 z "},"õ":{"ha":734,"x_min":36,"x_max":699,"o":"m 36 326 q 77 508 36 428 q 195 633 119 587 q 376 678 271 678 q 551 633 479 678 q 661 509 623 587 q 699 332 699 431 q 662 150 699 229 q 551 26 624 71 q 371 -19 477 -19 q 124 75 212 -19 q 36 326 36 170 m 272 339 q 281 278 272 311 q 311 223 290 245 q 367 200 332 200 q 427 222 406 200 q 456 278 448 245 q 464 342 464 311 q 455 403 464 372 q 427 455 447 434 q 370 476 406 476 q 312 455 334 476 q 281 401 291 433 q 272 339 272 370 m 647 918 q 628 829 647 871 q 573 762 609 788 q 487 736 538 736 q 413 750 445 736 q 356 782 382 764 q 309 814 331 800 q 263 828 287 828 q 230 815 238 828 q 218 784 221 802 q 208 754 215 767 q 176 740 200 741 q 155 739 165 739 q 134 739 145 739 q 102 773 102 739 q 149 907 102 851 q 277 962 195 962 q 341 947 311 962 q 397 911 371 932 q 446 876 423 891 q 488 861 468 861 q 519 875 512 861 q 528 909 526 890 q 536 942 530 928 q 566 957 543 957 q 605 958 587 957 q 635 951 624 959 q 647 918 647 944 z "},"œ":{"ha":1150,"x_min":39,"x_max":1113,"o":"m 825 -19 q 691 -1 753 -19 q 568 56 629 16 q 561 59 564 59 q 553 56 557 59 q 462 1 509 20 q 357 -19 414 -19 q 122 72 205 -19 q 39 311 39 163 q 75 492 39 408 q 182 627 111 576 q 358 679 253 679 q 462 659 416 679 q 551 601 507 639 q 559 597 555 597 q 566 600 562 597 q 792 678 668 678 q 1007 603 929 678 q 1112 398 1086 528 q 1113 390 1113 395 q 1088 360 1113 367 l 712 246 q 703 237 703 243 q 707 229 703 234 q 769 192 733 203 q 842 180 806 180 q 886 185 865 180 q 929 197 908 189 q 939 199 934 198 q 948 201 943 201 q 965 196 958 201 q 977 182 971 191 q 1012 127 992 160 q 1046 71 1032 94 q 1053 49 1053 58 q 1024 18 1053 31 q 954 -3 994 5 q 876 -15 913 -12 q 825 -19 840 -19 m 667 361 q 768 393 718 377 q 867 423 818 408 q 833 473 859 459 q 774 487 808 487 q 693 449 717 487 q 667 361 670 412 m 456 207 q 441 268 446 237 q 436 331 436 300 q 456 444 436 390 q 383 459 420 459 q 301 420 330 459 q 272 331 272 380 q 310 237 272 273 q 405 200 347 200 q 431 201 418 200 q 456 207 444 203 z "},"p":{"ha":836,"x_min":52,"x_max":800,"o":"m 800 327 q 710 73 800 165 q 459 -19 621 -19 q 382 -8 418 -19 q 315 28 347 2 q 308 33 312 30 q 300 36 304 36 q 294 29 295 36 q 293 19 293 22 l 291 -213 q 256 -247 291 -247 l 86 -247 q 52 -211 52 -247 q 55 -98 52 -155 q 59 14 58 -42 q 65 486 65 250 q 64 555 65 520 q 64 624 63 590 q 99 659 65 659 l 241 659 q 270 646 262 659 q 281 619 277 633 q 294 606 286 606 q 302 610 297 606 q 390 661 345 644 q 490 678 435 678 q 665 632 597 678 q 767 506 734 585 q 800 327 800 427 m 425 201 q 525 240 485 201 q 565 338 565 278 q 524 441 565 401 q 420 480 482 480 q 353 467 386 480 q 298 427 320 454 l 298 260 q 354 215 317 228 q 425 201 390 201 z "},"þ":{"ha":836,"x_min":54,"x_max":801,"o":"m 801 319 q 712 71 801 157 q 463 -19 623 -16 l 446 -19 q 379 -15 411 -19 q 313 4 347 -11 q 304 7 307 7 q 297 2 298 7 q 296 -6 296 -2 q 295 -73 296 -39 q 294 -140 295 -106 q 295 -176 294 -157 q 294 -213 295 -195 q 285 -238 292 -230 q 259 -247 277 -247 l 88 -247 q 54 -211 54 -247 q 57 -98 54 -155 q 60 14 60 -42 q 66 484 66 249 q 66 649 66 567 q 64 814 65 732 q 62 892 63 853 q 60 970 60 931 q 96 1006 60 1006 l 262 1006 q 296 972 296 1006 l 298 656 q 307 644 298 644 q 310 645 309 644 q 314 646 312 646 q 410 674 361 665 q 510 682 459 682 q 644 652 589 682 q 734 570 700 621 q 785 453 769 518 q 801 319 801 388 m 414 193 q 518 229 475 193 q 561 329 561 266 q 523 428 561 385 q 427 471 486 471 q 354 460 391 471 q 294 419 318 448 l 294 252 q 346 207 312 220 q 414 193 380 193 z "},"q":{"ha":822,"x_min":37,"x_max":770,"o":"m 323 -19 q 159 28 222 -19 q 66 154 96 76 q 37 323 37 232 q 72 498 37 416 q 176 631 107 580 q 346 682 245 682 q 431 667 391 682 q 507 625 471 652 q 513 621 509 623 q 519 618 516 618 q 526 629 528 618 q 526 650 525 640 q 539 660 526 660 l 723 660 q 758 625 758 660 q 758 549 758 587 q 758 473 758 511 q 764 9 758 241 q 768 -101 765 -45 q 770 -211 770 -156 q 736 -247 770 -247 l 565 -247 q 530 -213 534 -247 q 529 -176 529 -195 q 530 -138 530 -157 q 529 -59 529 -98 q 528 20 528 -19 q 527 29 528 24 q 521 35 526 35 q 515 33 518 35 q 510 30 513 31 q 420 -7 467 4 q 323 -19 374 -19 m 408 201 q 475 216 442 201 q 526 260 508 231 q 526 344 526 302 q 526 427 526 386 q 474 467 505 453 q 411 480 444 480 q 313 440 351 480 q 274 341 274 400 q 311 242 274 282 q 408 201 349 201 z "},"r":{"ha":529,"x_min":39,"x_max":538,"o":"m 230 660 q 257 643 254 660 q 263 608 260 626 q 265 595 264 605 q 271 585 267 585 q 281 592 276 585 q 289 602 287 600 q 360 656 318 641 q 449 672 401 672 q 483 671 462 672 q 521 663 504 670 q 538 638 538 656 q 532 605 538 630 q 518 550 526 581 q 504 493 511 519 q 494 456 496 467 q 460 427 486 427 q 441 428 450 427 q 421 430 431 430 q 338 395 370 430 q 292 310 306 359 q 277 218 277 260 l 277 35 q 243 0 277 0 l 74 0 q 39 35 39 0 q 41 251 39 143 q 43 467 43 359 q 42 546 43 507 q 42 625 42 585 q 77 660 42 660 l 230 660 z "},"s":{"ha":494,"x_min":33,"x_max":463,"o":"m 225 -21 q 129 -6 178 -21 q 44 41 80 9 q 33 64 33 52 q 40 96 33 74 q 54 142 46 119 q 65 176 62 165 q 74 196 68 186 q 92 205 80 205 q 138 188 108 205 q 204 171 169 171 q 243 179 224 171 q 262 210 262 186 q 242 247 262 233 q 198 271 222 261 q 157 290 173 281 q 75 370 104 320 q 47 480 47 420 q 77 592 47 549 q 159 657 108 636 q 274 677 211 677 q 344 671 306 677 q 411 651 382 665 q 431 624 431 642 q 426 600 431 619 q 417 559 422 580 q 410 532 412 539 q 401 513 407 521 q 382 505 395 505 q 350 510 367 505 q 314 516 333 516 q 275 508 295 516 q 256 476 256 500 q 274 437 256 455 q 319 405 292 420 q 371 376 346 390 q 411 351 397 363 q 452 288 440 326 q 463 213 463 250 q 433 91 463 143 q 348 8 402 38 q 225 -21 294 -21 z "},"š":{"ha":494,"x_min":23,"x_max":551,"o":"m 225 -21 q 129 -6 178 -21 q 44 41 80 9 q 33 64 33 52 q 40 96 33 74 q 54 142 46 119 q 65 176 62 165 q 74 196 68 186 q 92 205 80 205 q 138 188 108 205 q 204 171 169 171 q 243 179 224 171 q 262 210 262 186 q 242 247 262 233 q 198 271 222 261 q 157 290 173 281 q 75 370 104 320 q 47 480 47 420 q 77 592 47 549 q 159 657 108 636 q 274 677 211 677 q 344 671 306 677 q 411 651 382 665 q 431 624 431 642 q 426 600 431 619 q 417 559 422 580 q 410 532 412 539 q 401 513 407 521 q 382 505 395 505 q 350 510 367 505 q 314 516 333 516 q 275 508 295 516 q 256 476 256 500 q 274 437 256 455 q 319 405 292 420 q 371 376 346 390 q 411 351 397 363 q 452 288 440 326 q 463 213 463 250 q 433 91 463 143 q 348 8 402 38 q 225 -21 294 -21 m 175 1019 q 216 999 193 1019 q 261 959 240 979 q 292 939 283 939 q 320 959 301 939 q 361 999 339 979 q 399 1019 382 1019 l 498 1019 q 530 1016 508 1019 q 551 999 551 1014 q 540 976 551 988 q 521 958 528 964 q 417 864 469 911 q 312 772 365 817 q 301 765 307 768 q 289 762 296 762 q 277 765 282 762 q 266 772 271 768 q 159 864 212 817 q 54 958 106 911 q 35 976 47 964 q 23 999 23 988 q 45 1016 23 1014 q 77 1019 68 1019 l 175 1019 z "},"ß":{"ha":755,"x_min":38,"x_max":713,"o":"m 113 673 l 113 697 q 154 835 113 775 q 261 929 195 895 q 401 964 327 964 q 500 953 450 964 q 591 918 549 942 q 658 853 633 893 q 683 756 683 814 q 673 665 683 711 q 633 583 663 619 q 629 574 629 577 q 634 565 629 570 q 701 445 688 511 q 713 306 713 378 q 706 192 713 249 q 679 89 700 136 q 616 14 659 42 q 502 -14 574 -14 q 452 -8 485 -14 q 393 13 420 -1 q 367 50 367 27 q 370 117 367 83 q 376 184 374 151 q 377 193 376 186 q 382 201 378 201 q 397 192 386 201 q 425 184 408 184 q 464 205 453 184 q 475 253 474 226 q 477 300 477 281 q 477 333 477 311 q 474 379 477 355 q 463 419 471 403 q 439 436 455 436 q 430 435 436 436 q 425 439 425 434 l 423 592 q 429 614 423 606 q 439 631 434 621 q 444 664 444 642 q 441 699 444 680 q 429 733 439 719 q 399 748 420 748 q 364 730 374 748 q 351 689 353 713 q 349 647 349 665 q 348 341 349 494 q 348 35 348 188 q 313 0 348 0 l 144 0 q 109 35 109 0 q 111 234 109 134 q 113 433 113 334 q 102 444 113 444 q 76 443 91 444 q 50 448 61 442 q 39 475 39 454 q 38 553 39 514 q 38 630 38 591 q 49 657 38 652 q 75 662 60 663 q 101 662 90 661 q 113 673 113 662 z "},"t":{"ha":525,"x_min":40,"x_max":493,"o":"m 125 679 q 123 796 125 737 q 123 913 122 855 q 158 949 124 949 l 323 949 q 359 913 359 949 q 358 796 359 855 q 357 679 357 737 q 368 668 357 668 l 458 668 q 493 633 493 668 q 493 563 493 597 q 492 492 492 528 q 458 458 492 458 l 368 458 q 357 447 357 458 q 358 241 357 345 q 359 35 359 138 q 323 0 359 0 l 158 0 q 123 35 123 0 q 124 241 123 138 q 125 447 125 345 q 113 458 125 458 q 83 457 100 458 q 54 463 66 456 q 41 492 41 469 q 40 563 41 528 q 40 633 40 597 q 53 663 40 657 q 82 668 66 669 q 112 667 99 667 q 125 679 125 667 z "},"u":{"ha":810,"x_min":62,"x_max":751,"o":"m 569 0 q 535 28 543 0 q 529 57 533 36 q 520 99 524 79 q 517 127 517 120 q 522 147 517 135 q 429 27 488 74 q 284 -19 370 -19 q 176 3 227 -19 q 93 68 125 25 q 62 174 62 112 q 63 325 62 250 q 64 475 64 399 q 64 550 64 512 q 64 625 64 587 q 99 660 64 660 l 259 660 q 294 625 294 660 q 293 445 294 535 q 293 264 292 355 q 314 210 294 226 q 371 193 334 193 q 443 216 415 193 q 488 275 471 239 q 510 351 504 311 q 517 425 517 391 l 517 625 q 551 660 517 660 l 711 660 q 746 625 746 660 q 746 548 746 586 q 745 471 745 509 q 746 323 745 397 q 748 176 747 250 q 750 105 749 140 q 751 35 751 71 q 716 0 751 0 l 569 0 m 528 161 q 526 155 527 158 q 528 161 528 159 z "},"ú":{"ha":810,"x_min":62,"x_max":751,"o":"m 569 0 q 535 28 543 0 q 529 57 533 36 q 520 99 524 79 q 517 127 517 120 q 522 147 517 135 q 429 27 488 74 q 284 -19 370 -19 q 176 3 227 -19 q 93 68 125 25 q 62 174 62 112 q 63 325 62 250 q 64 475 64 399 q 64 550 64 512 q 64 625 64 587 q 99 660 64 660 l 259 660 q 294 625 294 660 q 293 445 294 535 q 293 264 292 355 q 314 210 294 226 q 371 193 334 193 q 443 216 415 193 q 488 275 471 239 q 510 351 504 311 q 517 425 517 391 l 517 625 q 551 660 517 660 l 711 660 q 746 625 746 660 q 746 548 746 586 q 745 471 745 509 q 746 323 745 397 q 748 176 747 250 q 750 105 749 140 q 751 35 751 71 q 716 0 751 0 l 569 0 m 528 161 q 526 155 527 158 q 528 161 528 159 m 606 960 q 626 959 612 960 q 651 954 640 958 q 663 940 663 950 q 649 916 663 929 q 628 897 635 903 q 552 836 590 867 q 475 774 514 804 q 454 766 465 766 l 394 766 q 368 770 383 766 q 352 789 352 773 q 356 805 352 797 q 365 820 360 813 q 405 883 385 851 q 446 944 425 914 q 474 960 456 960 l 606 960 z "},"û":{"ha":810,"x_min":62,"x_max":751,"o":"m 569 0 q 535 28 543 0 q 529 57 533 36 q 520 99 524 79 q 517 127 517 120 q 522 147 517 135 q 429 27 488 74 q 284 -19 370 -19 q 176 3 227 -19 q 93 68 125 25 q 62 174 62 112 q 63 325 62 250 q 64 475 64 399 q 64 550 64 512 q 64 625 64 587 q 99 660 64 660 l 259 660 q 294 625 294 660 q 293 445 294 535 q 293 264 292 355 q 314 210 294 226 q 371 193 334 193 q 443 216 415 193 q 488 275 471 239 q 510 351 504 311 q 517 425 517 391 l 517 625 q 551 660 517 660 l 711 660 q 746 625 746 660 q 746 548 746 586 q 745 471 745 509 q 746 323 745 397 q 748 176 747 250 q 750 105 749 140 q 751 35 751 71 q 716 0 751 0 l 569 0 m 528 161 q 526 155 527 158 q 528 161 528 159 m 515 766 q 474 786 498 766 q 430 826 451 806 q 398 846 408 846 q 376 830 394 846 q 339 797 357 814 q 316 775 321 779 q 292 766 307 766 l 195 766 q 164 769 186 766 q 143 786 143 771 q 154 808 143 797 q 172 827 165 820 q 275 921 223 873 q 380 1013 327 968 q 391 1020 385 1017 q 403 1023 396 1023 q 415 1020 410 1023 q 426 1013 421 1017 q 532 920 479 967 q 636 827 584 873 q 654 808 644 820 q 665 786 665 797 q 644 769 665 771 q 613 766 623 766 l 515 766 z "},"ü":{"ha":810,"x_min":62,"x_max":751,"o":"m 569 0 q 535 28 543 0 q 529 57 533 36 q 520 99 524 79 q 517 127 517 120 q 522 147 517 135 q 429 27 488 74 q 284 -19 370 -19 q 176 3 227 -19 q 93 68 125 25 q 62 174 62 112 q 63 325 62 250 q 64 475 64 399 q 64 550 64 512 q 64 625 64 587 q 99 660 64 660 l 259 660 q 294 625 294 660 q 293 445 294 535 q 293 264 292 355 q 314 210 294 226 q 371 193 334 193 q 443 216 415 193 q 488 275 471 239 q 510 351 504 311 q 517 425 517 391 l 517 625 q 551 660 517 660 l 711 660 q 746 625 746 660 q 746 548 746 586 q 745 471 745 509 q 746 323 745 397 q 748 176 747 250 q 750 105 749 140 q 751 35 751 71 q 716 0 751 0 l 569 0 m 528 161 q 526 155 527 158 q 528 161 528 159 m 130 846 q 164 924 130 891 q 243 956 199 956 q 323 924 288 956 q 358 846 358 891 q 322 769 358 801 q 242 738 286 738 q 163 769 197 738 q 130 846 130 800 m 450 846 q 487 924 450 892 q 568 956 523 956 q 645 923 612 956 q 679 846 679 890 q 643 770 679 803 q 564 738 607 738 q 485 768 519 738 q 450 846 450 798 z "},"ù":{"ha":810,"x_min":62,"x_max":751,"o":"m 569 0 q 535 28 543 0 q 529 57 533 36 q 520 99 524 79 q 517 127 517 120 q 522 147 517 135 q 429 27 488 74 q 284 -19 370 -19 q 176 3 227 -19 q 93 68 125 25 q 62 174 62 112 q 63 325 62 250 q 64 475 64 399 q 64 550 64 512 q 64 625 64 587 q 99 660 64 660 l 259 660 q 294 625 294 660 q 293 445 294 535 q 293 264 292 355 q 314 210 294 226 q 371 193 334 193 q 443 216 415 193 q 488 275 471 239 q 510 351 504 311 q 517 425 517 391 l 517 625 q 551 660 517 660 l 711 660 q 746 625 746 660 q 746 548 746 586 q 745 471 745 509 q 746 323 745 397 q 748 176 747 250 q 750 105 749 140 q 751 35 751 71 q 716 0 751 0 l 569 0 m 528 161 q 526 155 527 158 q 528 161 528 159 m 349 766 q 326 775 335 766 l 190 899 q 173 918 183 906 q 162 940 162 929 q 183 957 162 955 q 214 960 204 960 l 353 960 q 383 941 373 960 l 446 817 q 451 804 449 810 q 454 790 454 798 q 440 770 454 774 q 415 766 427 766 l 349 766 z "},"v":{"ha":745,"x_min":33,"x_max":712,"o":"m 382 -9 q 267 200 325 96 q 153 410 210 305 q 97 509 125 459 q 43 608 69 558 q 36 622 39 615 q 33 637 33 629 q 47 656 33 652 q 73 660 62 660 l 269 660 q 301 638 290 660 q 313 612 308 626 q 323 585 317 598 q 350 516 336 551 q 378 448 363 481 q 382 439 380 445 q 389 433 385 433 q 396 439 393 433 q 399 448 399 446 q 424 521 413 484 q 448 595 435 558 q 454 615 451 604 q 462 636 457 627 q 474 654 467 648 q 495 660 481 660 l 673 660 q 698 656 684 660 q 712 636 712 652 q 710 622 712 629 q 704 609 707 615 q 653 510 679 559 q 601 410 627 460 q 494 200 547 305 q 386 -9 440 96 l 382 -9 z "},"w":{"ha":1051,"x_min":32,"x_max":1019,"o":"m 579 660 q 610 640 600 660 q 657 545 635 593 q 704 450 679 496 q 708 443 705 447 q 715 439 711 439 q 721 443 718 439 q 724 450 724 448 q 763 545 745 496 q 804 639 781 593 q 836 660 814 660 l 981 660 q 1007 655 994 660 q 1019 635 1019 651 q 1013 611 1019 625 q 952 470 983 541 q 892 330 922 400 q 829 179 861 254 q 766 28 798 103 q 754 7 762 20 q 735 -6 747 -6 q 716 6 724 -6 q 703 26 708 18 q 616 195 658 110 q 528 365 574 281 q 525 371 527 368 q 519 375 522 375 q 513 371 515 375 q 509 365 510 368 q 488 322 498 344 q 468 278 478 300 q 410 154 439 216 q 351 30 382 91 q 338 9 347 22 q 319 -4 330 -4 q 299 9 307 -4 q 288 31 291 22 q 220 190 253 111 q 153 350 186 270 q 95 480 124 415 q 38 611 66 545 q 32 635 32 625 q 44 655 32 651 q 70 660 57 660 l 217 660 q 248 641 238 660 q 294 549 273 595 q 340 456 316 502 q 343 449 341 453 q 350 445 346 445 q 356 449 353 445 q 359 456 359 453 q 375 487 363 462 q 401 542 387 511 q 426 595 416 572 q 437 620 437 618 q 426 637 437 627 q 415 654 415 647 q 420 659 415 659 q 429 660 426 660 l 579 660 z "},"x":{"ha":679,"x_min":11,"x_max":673,"o":"m 471 354 q 489 323 471 351 q 532 254 506 295 q 586 171 558 213 q 634 96 613 128 q 661 54 654 64 q 669 39 665 47 q 673 22 673 31 q 658 4 673 7 q 631 0 643 0 l 423 0 q 394 16 406 0 q 355 78 373 45 q 315 140 336 110 q 306 148 311 148 q 300 145 302 148 q 296 139 298 142 q 265 79 279 110 q 234 18 251 48 q 203 0 223 0 l 52 0 q 26 4 41 0 q 11 22 11 7 q 15 39 11 31 q 22 54 18 47 q 47 92 28 62 q 90 161 66 122 q 138 239 115 201 q 177 303 161 277 q 193 332 193 330 q 177 360 193 335 q 138 424 161 386 q 90 500 115 461 q 46 568 65 538 q 22 606 28 597 q 15 621 18 613 q 11 637 11 629 q 26 656 11 653 q 52 660 41 660 l 260 660 q 290 643 279 660 q 304 620 293 637 q 327 582 315 602 q 350 546 340 561 q 364 531 361 531 q 378 554 368 531 q 396 604 387 578 q 408 637 406 630 q 441 660 417 660 l 589 660 q 615 656 600 660 q 629 637 629 652 q 626 621 629 629 q 618 607 623 614 q 547 484 583 545 q 475 361 511 422 l 472 357 q 472 356 472 357 q 471 354 471 355 z "},"y":{"ha":747,"x_min":30,"x_max":719,"o":"m 181 -247 q 156 -242 169 -247 q 143 -223 143 -238 q 156 -184 143 -215 q 188 -114 169 -154 q 225 -34 206 -73 q 256 35 243 6 q 269 70 269 64 q 268 74 269 71 q 190 256 229 165 q 111 438 151 347 q 73 525 92 481 q 36 611 54 568 q 30 635 30 625 q 42 655 30 651 q 68 660 55 660 l 253 660 q 286 638 275 660 q 299 607 293 623 q 311 574 304 590 q 347 478 329 527 q 385 383 364 430 q 388 375 386 380 q 395 370 391 370 q 402 375 399 370 q 406 382 405 380 q 448 479 428 430 q 488 577 468 529 q 502 608 495 593 q 515 639 508 624 q 547 660 526 660 l 681 660 q 706 655 694 660 q 719 635 719 651 q 717 623 719 629 q 713 612 715 617 q 608 355 661 483 q 503 98 555 227 q 458 -10 480 44 q 414 -118 436 -64 q 392 -172 403 -145 q 368 -226 380 -199 q 336 -247 358 -247 l 181 -247 z "},"ý":{"ha":747,"x_min":30,"x_max":719,"o":"m 181 -247 q 156 -242 169 -247 q 143 -223 143 -238 q 156 -184 143 -215 q 188 -114 169 -154 q 225 -34 206 -73 q 256 35 243 6 q 269 70 269 64 q 268 74 269 71 q 190 256 229 165 q 111 438 151 347 q 73 525 92 481 q 36 611 54 568 q 30 635 30 625 q 42 655 30 651 q 68 660 55 660 l 253 660 q 286 638 275 660 q 299 607 293 623 q 311 574 304 590 q 347 478 329 527 q 385 383 364 430 q 388 375 386 380 q 395 370 391 370 q 402 375 399 370 q 406 382 405 380 q 448 479 428 430 q 488 577 468 529 q 502 608 495 593 q 515 639 508 624 q 547 660 526 660 l 681 660 q 706 655 694 660 q 719 635 719 651 q 717 623 719 629 q 713 612 715 617 q 608 355 661 483 q 503 98 555 227 q 458 -10 480 44 q 414 -118 436 -64 q 392 -172 403 -145 q 368 -226 380 -199 q 336 -247 358 -247 l 181 -247 m 588 921 q 608 920 594 921 q 633 916 621 920 q 644 901 644 911 q 631 878 644 890 q 610 859 617 865 q 534 797 572 828 q 457 736 496 766 q 435 728 447 728 l 376 728 q 349 731 365 728 q 334 750 334 734 q 338 766 334 758 q 347 781 342 774 q 386 844 366 812 q 427 905 406 876 q 456 921 437 921 l 588 921 z "},"ÿ":{"ha":747,"x_min":30,"x_max":719,"o":"m 181 -247 q 156 -242 169 -247 q 143 -223 143 -238 q 156 -184 143 -215 q 188 -114 169 -154 q 225 -34 206 -73 q 256 35 243 6 q 269 70 269 64 q 268 74 269 71 q 190 256 229 165 q 111 438 151 347 q 73 525 92 481 q 36 611 54 568 q 30 635 30 625 q 42 655 30 651 q 68 660 55 660 l 253 660 q 286 638 275 660 q 299 607 293 623 q 311 574 304 590 q 347 478 329 527 q 385 383 364 430 q 388 375 386 380 q 395 370 391 370 q 402 375 399 370 q 406 382 405 380 q 448 479 428 430 q 488 577 468 529 q 502 608 495 593 q 515 639 508 624 q 547 660 526 660 l 681 660 q 706 655 694 660 q 719 635 719 651 q 717 623 719 629 q 713 612 715 617 q 608 355 661 483 q 503 98 555 227 q 458 -10 480 44 q 414 -118 436 -64 q 392 -172 403 -145 q 368 -226 380 -199 q 336 -247 358 -247 l 181 -247 m 111 807 q 146 885 111 852 q 225 918 180 918 q 304 885 269 918 q 340 808 340 852 q 304 731 340 762 q 224 699 268 699 q 145 730 179 699 q 111 807 111 762 m 432 807 q 468 885 432 853 q 549 918 505 918 q 627 885 593 918 q 661 808 661 852 q 625 732 661 764 q 546 699 589 699 q 466 729 500 699 q 432 807 432 760 z "},"z":{"ha":650,"x_min":26,"x_max":614,"o":"m 237 432 q 232 438 237 437 q 224 439 228 439 l 75 439 q 41 474 41 439 q 40 550 41 512 q 40 625 40 587 q 75 660 40 660 l 555 660 q 580 656 566 660 q 594 636 594 652 q 591 623 594 629 q 585 609 589 616 q 564 569 581 600 q 526 495 548 538 q 479 407 503 452 q 434 321 455 361 q 401 255 414 281 q 388 227 388 229 q 392 221 388 222 q 400 220 397 220 l 577 220 q 612 186 610 220 q 614 111 614 149 q 614 35 614 73 q 580 0 614 0 l 66 0 q 40 4 54 0 q 26 23 26 8 q 29 38 26 31 q 35 52 32 45 q 57 92 41 62 q 97 165 74 123 q 144 253 119 208 q 189 338 168 298 q 223 404 210 378 q 237 432 237 430 z "},"ž":{"ha":650,"x_min":26,"x_max":622,"o":"m 237 432 q 232 438 237 437 q 224 439 228 439 l 75 439 q 41 474 41 439 q 40 550 41 512 q 40 625 40 587 q 75 660 40 660 l 555 660 q 580 656 566 660 q 594 636 594 652 q 591 623 594 629 q 585 609 589 616 q 564 569 581 600 q 526 495 548 538 q 479 407 503 452 q 434 321 455 361 q 401 255 414 281 q 388 227 388 229 q 392 221 388 222 q 400 220 397 220 l 577 220 q 612 186 610 220 q 614 111 614 149 q 614 35 614 73 q 580 0 614 0 l 66 0 q 40 4 54 0 q 26 23 26 8 q 29 38 26 31 q 35 52 32 45 q 57 92 41 62 q 97 165 74 123 q 144 253 119 208 q 189 338 168 298 q 223 404 210 378 q 237 432 237 430 m 245 1000 q 287 980 263 1000 q 332 940 311 960 q 363 920 353 920 q 391 940 372 920 q 431 980 410 960 q 470 1000 453 1000 l 569 1000 q 600 997 578 1000 q 622 980 622 995 q 610 957 622 969 q 591 939 599 945 q 487 845 539 892 q 382 753 435 798 q 372 746 378 749 q 359 743 366 743 q 347 746 353 743 q 336 753 342 749 q 230 845 283 798 q 124 939 177 892 q 105 957 117 945 q 94 980 94 969 q 116 997 94 995 q 147 1000 138 1000 l 245 1000 z "},"":{"ha":836,"x_min":34,"x_max":751,"o":"m 152 0 q 117 35 117 0 q 120 225 117 130 q 122 416 122 321 q 109 428 122 428 q 79 426 96 428 q 48 431 62 425 q 35 462 35 437 q 34 546 34 504 q 34 630 34 589 q 47 661 34 654 q 78 666 60 667 q 108 664 95 664 q 121 676 121 664 l 121 708 q 154 854 121 789 q 247 958 186 920 q 392 996 308 996 q 451 990 422 996 q 508 975 479 984 q 513 974 509 974 q 523 981 519 974 q 569 1029 542 1010 q 631 1048 595 1048 q 716 1009 682 1048 q 751 922 751 970 q 716 829 751 870 q 627 789 682 789 q 582 799 602 789 q 551 819 562 809 q 535 829 539 829 q 523 817 529 829 q 511 794 517 806 q 496 782 505 782 q 474 792 490 782 q 435 802 458 802 q 375 772 393 802 q 357 705 357 741 q 357 681 357 696 q 369 665 356 665 l 704 665 q 739 630 739 665 q 739 558 739 594 q 739 486 739 522 q 739 334 739 410 q 741 181 740 258 q 743 108 742 144 q 744 35 744 71 q 709 0 744 0 l 538 0 q 504 35 504 0 q 503 225 504 130 q 503 416 503 321 q 491 427 503 427 l 369 427 q 358 416 358 427 q 357 225 358 321 q 357 35 357 130 q 322 0 357 0 l 152 0 z "},"ﬁ":{"ha":836,"x_min":34,"x_max":751,"o":"m 152 0 q 117 35 117 0 q 120 225 117 130 q 122 416 122 321 q 109 428 122 428 q 79 426 96 428 q 48 431 62 425 q 35 462 35 437 q 34 546 34 504 q 34 630 34 589 q 47 661 34 654 q 78 666 60 667 q 108 664 95 664 q 121 676 121 664 l 121 708 q 154 854 121 789 q 247 958 186 920 q 392 996 308 996 q 451 990 422 996 q 508 975 479 984 q 513 974 509 974 q 523 981 519 974 q 569 1029 542 1010 q 631 1048 595 1048 q 716 1009 682 1048 q 751 922 751 970 q 716 829 751 870 q 627 789 682 789 q 582 799 602 789 q 551 819 562 809 q 535 829 539 829 q 523 817 529 829 q 511 794 517 806 q 496 782 505 782 q 474 792 490 782 q 435 802 458 802 q 375 772 393 802 q 357 705 357 741 q 357 681 357 696 q 369 665 356 665 l 704 665 q 739 630 739 665 q 739 558 739 594 q 739 486 739 522 q 739 334 739 410 q 741 181 740 258 q 743 108 742 144 q 744 35 744 71 q 709 0 744 0 l 538 0 q 504 35 504 0 q 503 225 504 130 q 503 416 503 321 q 491 427 503 427 l 369 427 q 358 416 358 427 q 357 225 358 321 q 357 35 357 130 q 322 0 357 0 l 152 0 z "},"":{"ha":861,"x_min":39,"x_max":769,"o":"m 165 0 q 131 35 131 0 q 133 225 131 130 q 136 416 136 321 q 121 428 136 429 q 89 426 107 428 q 55 430 70 424 q 39 462 41 436 q 39 486 39 474 q 39 511 39 498 q 39 570 39 541 q 39 630 39 600 q 53 661 39 655 q 87 666 68 667 q 120 664 106 664 q 135 676 135 664 q 135 690 135 683 q 134 703 134 696 q 168 854 134 788 q 267 958 203 920 q 416 996 330 996 q 467 992 442 996 q 517 981 492 988 q 523 979 521 979 q 531 986 531 979 q 531 999 530 993 q 538 1006 531 1006 l 734 1006 q 769 970 769 1006 q 768 893 769 931 q 766 816 766 854 q 764 654 764 735 q 763 492 763 573 q 764 338 763 415 q 766 183 764 260 q 767 109 766 146 q 768 35 768 72 q 734 0 768 0 l 566 0 q 531 35 533 0 q 530 102 530 68 q 530 170 530 136 q 529 293 530 231 q 529 416 529 354 q 518 427 529 427 l 380 427 q 369 416 369 427 q 368 225 369 321 q 368 35 368 130 q 333 0 368 0 l 165 0 m 368 665 l 530 665 l 530 784 l 522 770 q 453 802 494 802 q 389 774 410 802 q 368 705 368 745 l 368 665 z "},"ﬂ":{"ha":861,"x_min":39,"x_max":769,"o":"m 165 0 q 131 35 131 0 q 133 225 131 130 q 136 416 136 321 q 121 428 136 429 q 89 426 107 428 q 55 430 70 424 q 39 462 41 436 q 39 486 39 474 q 39 511 39 498 q 39 570 39 541 q 39 630 39 600 q 53 661 39 655 q 87 666 68 667 q 120 664 106 664 q 135 676 135 664 q 135 690 135 683 q 134 703 134 696 q 168 854 134 788 q 267 958 203 920 q 416 996 330 996 q 467 992 442 996 q 517 981 492 988 q 523 979 521 979 q 531 986 531 979 q 531 999 530 993 q 538 1006 531 1006 l 734 1006 q 769 970 769 1006 q 768 893 769 931 q 766 816 766 854 q 764 654 764 735 q 763 492 763 573 q 764 338 763 415 q 766 183 764 260 q 767 109 766 146 q 768 35 768 72 q 734 0 768 0 l 566 0 q 531 35 533 0 q 530 102 530 68 q 530 170 530 136 q 529 293 530 231 q 529 416 529 354 q 518 427 529 427 l 380 427 q 369 416 369 427 q 368 225 369 321 q 368 35 368 130 q 333 0 368 0 l 165 0 m 368 665 l 530 665 l 530 784 l 522 770 q 453 802 494 802 q 389 774 410 802 q 368 705 368 745 l 368 665 z "},"ª":{"ha":689,"x_min":23,"x_max":650,"o":"m 498 630 q 479 638 482 630 q 477 658 475 647 q 475 678 479 669 q 474 672 475 677 q 474 665 474 667 q 450 638 474 648 q 393 623 426 628 q 329 617 359 618 q 287 616 299 616 q 153 639 212 616 q 58 711 93 661 q 23 843 23 761 q 59 967 23 916 q 154 1044 95 1017 q 280 1070 212 1070 q 373 1058 336 1070 q 458 1019 410 1045 q 464 1017 463 1017 q 479 1025 475 1017 q 486 1042 482 1034 q 503 1050 490 1050 l 614 1050 q 650 1014 650 1050 q 647 840 650 927 q 644 665 644 752 q 609 630 644 630 l 498 630 m 347 751 q 403 756 374 751 q 456 777 432 761 q 456 840 456 808 q 456 902 456 871 q 402 927 436 922 q 341 932 369 932 q 269 906 303 932 q 235 839 235 880 q 271 772 235 793 q 347 751 307 751 z "},"º":{"ha":636,"x_min":23,"x_max":613,"o":"m 23 846 q 50 949 23 906 q 121 1019 77 992 q 218 1060 165 1046 q 322 1073 271 1073 q 459 1049 392 1073 q 569 976 526 1025 q 613 846 613 926 q 587 743 613 786 q 517 672 560 699 q 421 632 473 645 q 317 618 369 618 q 179 641 247 618 q 67 714 111 664 q 23 846 23 764 m 208 844 q 239 773 208 800 q 313 746 271 746 q 394 775 358 746 q 429 852 429 805 q 393 922 429 901 q 315 943 357 943 q 238 918 268 943 q 208 844 208 893 z "},"Δ":{"ha":555,"x_min":-50,"x_max":791,"o":"m -12 0 q -37 4 -24 0 q -50 24 -50 8 q -48 37 -50 31 q -43 50 -46 43 q 45 249 1 149 q 134 448 90 348 q 253 725 194 587 q 374 1002 312 864 q 378 1004 374 1004 q 382 1002 381 1004 q 490 740 437 871 q 598 477 544 608 q 690 263 644 370 q 785 50 737 157 q 789 37 787 43 q 791 24 791 31 q 778 4 791 8 q 753 0 765 0 l -12 0 m 279 225 l 462 225 q 416 415 439 320 q 371 606 393 511 l 279 225 z "},"∆":{"ha":555,"x_min":-50,"x_max":791,"o":"m -12 0 q -37 4 -24 0 q -50 24 -50 8 q -48 37 -50 31 q -43 50 -46 43 q 45 249 1 149 q 134 448 90 348 q 253 725 194 587 q 374 1002 312 864 q 378 1004 374 1004 q 382 1002 381 1004 q 490 740 437 871 q 598 477 544 608 q 690 263 644 370 q 785 50 737 157 q 789 37 787 43 q 791 24 791 31 q 778 4 791 8 q 753 0 765 0 l -12 0 m 279 225 l 462 225 q 416 415 439 320 q 371 606 393 511 l 279 225 z "},"µ":{"ha":532,"x_min":-30,"x_max":553,"o":"m 5 -344 q -30 -308 -30 -344 q -27 -178 -30 -243 q -22 -47 -24 -113 q -18 226 -19 90 q -17 500 -17 363 l -17 614 q 18 650 -17 650 l 169 650 q 203 615 203 650 q 203 435 203 525 q 203 256 202 346 q 209 205 203 233 q 246 178 215 178 q 294 206 277 178 q 318 274 311 234 q 327 352 325 314 q 328 412 328 391 l 328 615 q 363 650 328 650 l 514 650 q 549 614 549 650 q 549 542 549 578 q 549 469 549 506 q 551 252 549 361 q 553 35 553 144 q 519 0 553 0 l 376 0 q 346 16 353 0 q 336 49 338 33 q 324 65 333 65 q 317 61 321 65 q 313 55 314 58 q 260 -2 286 17 q 189 -33 235 -22 q 179 -45 179 -35 q 178 -177 179 -111 q 176 -309 176 -243 q 142 -344 176 -344 l 5 -344 z "},"μ":{"ha":532,"x_min":-30,"x_max":553,"o":"m 5 -344 q -30 -308 -30 -344 q -27 -178 -30 -243 q -22 -47 -24 -113 q -18 226 -19 90 q -17 500 -17 363 l -17 614 q 18 650 -17 650 l 169 650 q 203 615 203 650 q 203 435 203 525 q 203 256 202 346 q 209 205 203 233 q 246 178 215 178 q 294 206 277 178 q 318 274 311 234 q 327 352 325 314 q 328 412 328 391 l 328 615 q 363 650 328 650 l 514 650 q 549 614 549 650 q 549 542 549 578 q 549 469 549 506 q 551 252 549 361 q 553 35 553 144 q 519 0 553 0 l 376 0 q 346 16 353 0 q 336 49 338 33 q 324 65 333 65 q 317 61 321 65 q 313 55 314 58 q 260 -2 286 17 q 189 -33 235 -22 q 179 -45 179 -35 q 178 -177 179 -111 q 176 -309 176 -243 q 142 -344 176 -344 l 5 -344 z "},"π":{"ha":545,"x_min":-3,"x_max":547,"o":"m -3 510 q 33 545 -3 545 l 511 545 q 547 510 547 545 l 547 364 q 534 334 547 340 q 505 329 522 328 q 476 330 489 330 q 464 319 464 330 q 465 177 464 248 q 467 35 467 106 q 432 0 467 0 l 324 0 q 290 35 290 0 l 290 319 q 278 330 290 330 q 256 330 270 330 q 242 319 242 331 q 242 177 242 248 q 241 35 241 106 q 207 0 241 0 l 97 0 q 62 35 62 0 q 64 177 62 106 q 65 319 65 248 q 55 330 65 330 q 31 329 45 330 q 7 333 18 328 q -3 358 -3 338 l -3 510 z "},"¹":{"ha":370,"x_min":21,"x_max":321,"o":"m 21 913 q 56 948 21 948 l 287 948 q 321 913 321 948 q 321 717 321 814 q 320 521 320 619 l 320 377 q 286 342 320 342 l 159 342 q 125 377 125 342 q 124 561 125 469 q 124 745 124 653 q 109 758 124 758 q 75 755 94 758 q 39 759 55 753 q 22 791 24 765 q 21 852 21 821 q 21 913 21 883 z "},"²":{"ha":550,"x_min":43,"x_max":522,"o":"m 107 771 q 86 782 94 771 q 74 804 79 793 q 63 828 71 812 q 49 860 56 844 q 43 883 43 876 q 50 901 43 892 q 110 949 72 930 q 191 977 149 968 q 267 987 233 987 q 386 963 332 987 q 471 892 439 939 q 503 776 503 845 q 486 691 503 730 q 445 621 468 652 q 405 572 422 591 q 387 550 387 553 q 394 545 387 545 q 404 544 401 544 l 487 544 q 522 509 522 544 q 522 456 522 482 q 522 402 522 429 q 487 367 522 367 l 100 367 q 66 401 66 367 q 66 435 66 418 q 66 469 66 452 q 87 500 66 490 q 172 552 125 521 q 254 625 219 584 q 288 716 288 667 q 276 780 288 751 q 221 808 263 808 q 173 799 194 808 q 136 781 152 790 q 107 771 119 771 z "},"³":{"ha":539,"x_min":44,"x_max":494,"o":"m 237 359 q 142 373 191 359 q 56 416 93 387 q 44 439 44 426 q 58 476 44 451 q 77 511 71 500 q 88 528 81 520 q 106 536 95 536 q 132 527 118 536 q 164 507 146 517 q 209 496 182 496 q 271 514 248 496 q 293 573 293 532 q 267 641 293 620 q 196 662 241 662 q 140 654 169 662 q 136 654 139 654 q 123 668 123 654 q 136 693 123 673 q 168 739 150 714 q 199 785 185 764 q 212 810 212 805 q 208 815 212 814 q 199 817 203 817 l 97 817 q 62 851 62 817 q 61 892 62 872 q 61 934 61 913 q 96 969 61 969 l 420 969 q 447 965 432 969 q 461 946 461 962 q 446 907 461 936 q 411 845 431 878 q 375 785 391 811 q 360 753 360 759 q 369 743 360 748 q 389 735 379 739 q 408 726 399 732 q 471 668 448 705 q 494 585 494 631 q 458 463 494 514 q 363 386 422 412 q 237 359 304 359 z "},"⁴":{"ha":615,"x_min":31,"x_max":586,"o":"m 509 631 q 521 620 509 621 q 548 621 532 619 q 574 616 563 622 q 586 588 586 610 l 586 534 q 553 502 586 502 q 527 503 544 502 q 509 491 509 504 l 509 404 q 475 369 509 369 l 353 369 q 320 389 326 369 q 317 435 314 409 q 321 482 320 462 q 307 502 321 502 l 59 502 q 35 515 40 502 q 31 543 31 528 q 38 564 31 553 q 110 656 73 610 q 182 748 146 703 q 270 861 227 804 q 359 972 314 917 q 387 985 370 985 l 477 985 q 512 949 512 985 q 511 790 512 870 q 509 631 509 711 m 244 621 l 318 621 l 318 718 q 281 669 299 694 q 244 621 262 645 z "},"⁄":{"ha":450,"x_min":-50,"x_max":543,"o":"m 504 1001 q 529 997 515 1001 q 543 977 543 993 q 541 964 543 970 q 535 951 538 957 q 403 666 469 808 q 271 380 336 524 q 217 260 244 321 q 161 140 189 200 q 135 80 148 111 q 106 20 121 49 q 75 0 96 0 l -12 0 q -37 4 -24 0 q -50 24 -50 8 q -48 38 -50 31 q -43 50 -46 44 q -1 140 -22 96 q 41 230 20 184 q 131 425 87 327 q 220 621 176 523 q 275 741 248 681 q 330 861 302 802 q 358 922 344 891 q 387 981 372 952 q 418 1001 397 1001 l 504 1001 z "},"∕":{"ha":450,"x_min":-50,"x_max":543,"o":"m 504 1001 q 529 997 515 1001 q 543 977 543 993 q 541 964 543 970 q 535 951 538 957 q 403 666 469 808 q 271 380 336 524 q 217 260 244 321 q 161 140 189 200 q 135 80 148 111 q 106 20 121 49 q 75 0 96 0 l -12 0 q -37 4 -24 0 q -50 24 -50 8 q -48 38 -50 31 q -43 50 -46 44 q -1 140 -22 96 q 41 230 20 184 q 131 425 87 327 q 220 621 176 523 q 275 741 248 681 q 330 861 302 802 q 358 922 344 891 q 387 981 372 952 q 418 1001 397 1001 l 504 1001 z "},"½":{"ha":1238,"x_min":21,"x_max":1196,"o":"m 853 1001 q 879 997 865 1001 q 893 978 893 994 q 890 963 893 970 q 883 949 886 956 q 833 859 859 903 q 783 769 808 814 q 676 574 729 672 q 570 378 623 476 q 504 258 536 318 q 437 138 471 197 q 405 77 421 108 q 370 18 389 47 q 340 0 359 0 l 235 0 q 209 4 224 0 q 195 22 195 7 q 198 38 195 31 q 205 52 201 45 q 363 337 284 195 q 519 623 441 479 q 585 743 552 683 q 650 863 617 804 q 683 924 667 893 q 717 983 699 954 q 747 1001 727 1001 l 853 1001 m 22 911 q 57 947 21 947 l 267 947 q 302 913 300 947 q 303 845 304 880 q 304 777 303 811 q 306 634 305 705 q 307 490 307 562 q 306 433 307 462 q 306 376 306 404 q 271 341 306 341 l 158 341 q 123 376 123 341 q 123 438 123 407 q 123 499 123 469 q 123 587 123 543 q 122 673 123 630 q 122 709 121 691 q 121 745 122 728 q 105 757 119 757 q 73 755 91 757 q 41 759 55 753 q 26 789 27 765 l 22 911 m 797 392 q 775 404 783 392 q 764 427 768 416 q 754 449 761 434 q 742 480 748 465 q 736 502 736 496 q 743 519 736 511 q 799 566 764 547 q 873 594 834 585 q 947 604 913 604 q 1106 547 1044 604 q 1169 391 1169 490 q 1153 308 1169 347 q 1116 238 1137 269 q 1079 190 1095 208 q 1063 170 1063 172 q 1083 163 1063 164 q 1125 162 1102 161 q 1158 163 1147 163 q 1192 130 1190 163 q 1196 22 1196 77 q 1161 -15 1196 -15 l 794 -15 q 759 20 760 -15 q 758 54 758 37 q 758 87 758 71 q 778 119 758 107 q 859 173 816 141 q 933 245 903 204 q 964 335 964 286 q 953 397 964 367 q 902 428 942 428 q 841 410 868 428 q 797 392 814 392 z "},"¼":{"ha":1194,"x_min":21,"x_max":1172,"o":"m 909 1001 q 935 997 920 1001 q 949 978 949 994 q 946 962 949 970 q 939 948 943 955 q 776 663 857 806 q 614 378 694 521 q 547 257 581 317 q 479 137 513 197 q 445 77 462 107 q 410 17 428 46 q 380 0 399 0 l 271 0 q 245 4 260 0 q 231 23 231 7 q 234 39 231 31 q 241 53 237 46 q 404 338 323 195 q 566 623 486 480 q 633 744 600 684 q 701 864 667 804 q 735 924 719 894 q 770 984 752 955 q 800 1001 781 1001 l 909 1001 m 22 912 q 57 948 21 948 l 274 948 q 309 914 307 948 q 310 850 310 882 q 311 786 310 818 q 313 516 313 651 q 312 446 313 481 q 312 377 312 412 q 277 342 312 342 l 161 342 q 125 378 125 342 q 126 439 125 408 q 126 500 126 469 q 126 583 126 542 q 125 666 125 625 q 125 706 125 686 q 123 745 125 726 q 107 758 122 758 q 74 756 93 758 q 41 760 56 754 q 26 790 27 766 l 22 912 m 1101 581 l 1100 465 q 1100 394 1100 430 q 1101 322 1101 358 q 1101 293 1101 308 q 1102 264 1101 277 q 1114 252 1103 253 q 1137 253 1124 252 q 1159 249 1149 254 q 1170 225 1169 244 q 1171 194 1171 210 q 1172 162 1172 178 q 1162 138 1172 142 q 1138 134 1152 133 q 1115 135 1125 135 q 1105 123 1105 134 q 1107 80 1106 102 q 1108 37 1108 58 q 1074 1 1108 1 l 969 1 q 935 34 937 1 q 935 79 934 56 q 932 123 935 102 q 922 134 931 134 l 709 134 q 684 147 688 134 q 681 176 681 160 q 687 195 681 186 q 753 293 720 244 q 821 391 787 342 q 892 496 857 444 q 964 601 927 549 q 993 616 975 616 l 1066 616 q 1101 581 1101 616 m 867 253 l 930 253 q 930 301 930 277 q 930 350 930 326 q 899 301 914 326 q 867 253 883 277 z "},"¾":{"ha":1274,"x_min":58,"x_max":1227,"o":"m 982 1001 q 1008 997 993 1001 q 1023 978 1023 994 q 1020 962 1023 970 q 1012 947 1016 954 q 957 858 985 903 q 903 768 930 814 q 795 589 849 679 q 689 408 742 498 q 609 272 650 340 q 529 137 569 204 q 494 77 511 107 q 457 17 476 46 q 427 0 446 0 l 313 0 q 288 3 302 0 q 273 22 273 7 q 276 38 273 31 q 284 53 280 46 q 455 338 370 195 q 625 624 541 481 q 695 745 660 684 q 767 865 731 805 q 803 925 785 895 q 840 985 821 956 q 869 1001 851 1001 l 982 1001 m 233 359 l 227 359 q 143 374 186 359 q 68 417 100 389 q 58 439 58 427 q 69 472 58 448 q 85 507 81 496 q 97 525 90 515 q 115 534 104 534 q 140 525 127 534 q 169 506 153 515 q 207 496 185 496 q 281 573 281 496 q 193 662 281 662 q 163 658 180 662 q 140 654 147 654 q 132 659 136 654 q 129 669 129 664 q 140 694 129 673 q 168 740 152 714 q 195 785 183 765 q 206 809 206 805 q 201 815 206 814 q 193 817 197 817 l 105 817 q 71 850 73 817 q 68 892 70 871 q 67 933 67 913 q 102 969 67 969 l 394 969 q 419 965 406 969 q 433 945 433 961 q 419 907 433 935 q 389 845 406 878 q 358 785 372 811 q 345 752 345 758 q 348 746 345 748 q 354 743 351 745 q 437 682 408 721 q 467 583 467 643 q 436 466 467 516 q 351 387 404 415 q 233 359 298 359 m 1153 582 l 1153 503 q 1153 422 1153 463 q 1154 341 1153 381 q 1154 302 1154 322 q 1155 264 1153 283 q 1167 253 1156 254 q 1190 254 1177 252 q 1214 250 1203 255 q 1225 224 1224 245 q 1227 164 1227 195 q 1217 139 1227 144 q 1193 135 1206 134 q 1168 136 1179 136 q 1158 123 1158 135 q 1160 81 1159 102 q 1161 37 1161 59 q 1126 1 1161 1 l 1015 1 q 981 35 983 1 q 981 79 980 56 q 979 123 981 102 q 967 135 977 135 l 743 135 q 720 147 725 135 q 715 174 715 159 q 722 197 715 187 q 787 289 753 243 q 852 380 820 334 q 932 492 892 436 q 1013 603 971 548 q 1040 617 1023 617 l 1118 617 q 1153 582 1153 617 m 910 254 l 977 254 q 976 302 976 278 q 975 351 976 326 q 943 302 959 326 q 910 254 926 277 z "},"*":{"ha":589,"x_min":39,"x_max":555,"o":"m 254 621 q 224 634 231 621 q 219 665 218 647 q 221 695 220 682 q 212 709 221 709 q 185 700 205 709 q 142 682 164 691 q 111 673 121 673 q 85 689 96 673 q 69 712 80 697 q 49 742 58 727 q 40 765 40 757 q 54 786 40 778 q 85 801 67 795 q 117 811 104 806 q 131 823 131 817 q 117 834 131 829 q 85 847 103 840 q 53 863 66 854 q 39 884 39 871 q 55 920 39 896 q 79 955 72 944 q 105 970 90 970 q 138 961 115 970 q 182 942 161 951 q 211 932 204 932 q 220 946 220 932 q 217 980 219 961 q 222 1014 216 1000 q 253 1029 229 1029 l 340 1029 q 374 998 374 1029 q 373 970 374 984 q 372 943 372 957 q 380 932 372 932 q 409 941 387 932 q 454 960 431 951 q 488 969 478 969 q 514 954 503 969 q 538 919 522 943 q 555 884 555 896 q 541 860 555 869 q 506 845 526 851 q 471 833 486 839 q 456 821 456 827 q 471 809 456 814 q 503 798 485 804 q 536 783 522 791 q 550 761 550 774 q 541 735 550 751 q 520 706 531 720 q 504 685 509 692 q 478 669 493 669 q 446 679 469 669 q 403 698 424 688 q 375 708 382 708 q 366 695 366 708 q 367 664 366 682 q 361 634 368 647 q 331 621 354 621 l 254 621 z "},"\\":{"ha":460,"x_min":-20,"x_max":464,"o":"m 124 1075 q 157 1050 149 1075 q 178 985 169 1019 q 197 918 187 951 q 231 801 214 859 q 265 684 248 743 q 460 19 361 351 q 464 0 464 9 q 452 -21 464 -16 q 427 -26 441 -26 l 321 -26 q 288 -2 298 -26 q 268 64 277 30 q 249 131 258 98 q 215 248 232 189 q 181 364 198 306 q 84 697 133 531 q -16 1029 35 864 q -20 1048 -20 1040 q -8 1070 -20 1065 q 17 1075 3 1075 l 124 1075 z "},"·":{"ha":390,"x_min":54,"x_max":334,"o":"m 54 414 q 77 473 54 448 q 132 510 100 497 q 195 524 165 524 q 257 510 224 524 q 312 473 289 497 q 334 414 334 448 q 312 355 334 379 q 257 318 290 330 q 193 305 224 305 q 130 318 162 305 q 76 355 98 330 q 54 414 54 379 z "},"∙":{"ha":390,"x_min":54,"x_max":334,"o":"m 54 414 q 77 473 54 448 q 132 510 100 497 q 195 524 165 524 q 257 510 224 524 q 312 473 289 497 q 334 414 334 448 q 312 355 334 379 q 257 318 290 330 q 193 305 224 305 q 130 318 162 305 q 76 355 98 330 q 54 414 54 379 z "},"•":{"ha":811,"x_min":35,"x_max":778,"o":"m 35 437 q 65 577 35 513 q 148 687 96 640 q 267 758 200 733 q 408 783 334 783 q 547 758 480 783 q 665 685 613 732 q 748 575 718 639 q 778 437 778 512 q 725 257 778 333 q 587 139 673 180 q 404 97 502 97 q 222 139 307 97 q 86 258 138 182 q 35 437 35 334 z "},":":{"ha":346,"x_min":29,"x_max":312,"o":"m 31 519 q 53 578 31 553 q 108 616 75 603 q 171 630 141 630 q 233 616 201 630 q 288 578 266 603 q 311 519 311 553 q 288 460 311 484 q 233 424 266 436 q 170 412 201 412 q 107 424 139 412 q 53 460 75 436 q 31 519 31 484 m 29 109 q 52 168 29 142 q 108 206 75 193 q 171 220 141 220 q 234 206 201 220 q 289 168 267 193 q 312 109 312 142 q 289 48 312 73 q 233 12 266 24 q 169 0 200 0 q 105 12 138 0 q 51 49 73 24 q 29 109 29 73 z "},",":{"ha":390,"x_min":7,"x_max":355,"o":"m 315 127 q 341 123 327 127 q 355 104 355 119 q 352 89 355 96 q 346 75 349 82 q 306 4 326 39 q 264 -68 285 -32 q 239 -113 252 -90 q 212 -158 227 -136 q 182 -175 201 -175 l 47 -175 q 21 -171 35 -175 q 7 -152 7 -167 q 10 -137 7 -144 q 16 -123 13 -130 q 50 -59 33 -91 q 83 3 66 -28 q 110 56 96 30 q 138 109 123 83 q 168 127 148 127 l 315 127 z "},"…":{"ha":1116,"x_min":27,"x_max":1088,"o":"m 27 109 q 51 167 27 142 q 109 206 75 192 q 172 220 142 220 q 234 206 202 220 q 289 168 267 193 q 311 109 311 142 q 287 49 311 73 q 229 13 263 25 q 165 0 195 0 q 102 12 134 0 q 48 49 70 24 q 27 109 27 73 m 415 109 q 438 167 415 142 q 494 206 461 192 q 557 220 528 220 q 620 206 587 220 q 675 168 652 193 q 699 109 699 142 q 676 49 699 73 q 621 12 654 24 q 557 0 588 0 q 493 12 526 0 q 438 49 460 24 q 415 109 415 73 m 804 109 q 826 168 804 142 q 880 206 848 193 q 943 220 913 220 q 1006 206 972 220 q 1064 168 1040 193 q 1088 109 1088 142 q 1065 48 1088 73 q 1010 12 1043 24 q 947 0 978 0 q 883 12 916 0 q 827 49 850 24 q 804 109 804 73 z "},"!":{"ha":389,"x_min":33,"x_max":357,"o":"m 65 1060 q 100 1095 65 1095 l 280 1095 q 315 1060 315 1095 q 313 778 315 919 q 312 497 312 637 l 312 323 q 277 288 312 288 l 102 288 q 68 323 68 288 q 68 421 68 372 q 68 520 68 471 q 67 790 68 655 q 65 1060 65 925 m 33 81 q 53 132 33 111 q 103 167 73 153 q 165 186 134 180 q 220 193 197 193 q 314 166 271 193 q 357 81 357 139 q 330 17 357 41 q 266 -17 304 -7 q 195 -27 229 -27 q 125 -17 163 -27 q 60 17 87 -7 q 33 81 33 41 z "},"¡":{"ha":389,"x_min":37,"x_max":353,"o":"m 37 713 q 63 774 37 752 q 127 805 90 796 q 195 814 164 814 q 267 804 231 814 q 329 769 304 793 q 353 702 353 744 q 332 641 353 665 q 280 607 311 618 q 216 595 248 595 q 140 608 182 595 q 67 646 98 620 q 37 713 37 672 m 61 -273 q 62 -154 61 -214 q 64 -35 64 -94 q 66 216 66 91 q 67 466 67 341 q 102 500 67 500 l 276 500 q 311 466 311 500 q 313 96 311 281 q 315 -273 315 -89 q 281 -309 315 -309 l 96 -309 q 61 -273 61 -309 z "},"#":{"ha":986,"x_min":31,"x_max":937,"o":"m 456 937 q 482 931 472 937 q 492 907 492 924 q 491 897 492 903 q 474 797 483 847 q 458 696 466 747 l 458 693 q 469 684 458 684 l 557 684 q 568 693 566 684 q 573 721 572 707 q 577 749 575 735 q 590 829 584 789 q 604 908 597 869 q 638 937 608 937 l 795 937 q 821 931 810 937 q 831 908 831 925 q 829 896 831 904 q 811 797 821 846 q 794 697 802 747 l 794 694 q 806 684 794 684 l 902 684 q 937 652 937 684 q 932 597 937 631 q 924 541 928 562 q 890 512 919 512 l 777 512 q 766 503 769 512 q 763 484 766 501 q 758 450 760 467 q 755 431 755 433 q 766 418 755 418 l 865 418 q 890 411 880 418 q 900 388 900 405 q 893 333 900 370 q 884 275 887 296 q 849 244 879 244 l 738 244 q 726 234 728 244 q 722 204 724 220 q 719 175 721 189 q 709 103 714 139 q 699 31 705 66 q 665 0 695 0 l 506 0 q 471 30 471 0 q 472 39 471 36 q 483 107 477 73 q 493 175 488 142 q 498 203 495 189 q 501 231 501 218 q 490 244 501 244 l 404 244 q 392 234 394 244 q 376 133 383 184 q 360 31 368 81 q 326 0 355 0 l 166 0 q 141 6 151 0 q 131 30 131 13 q 132 41 131 34 q 150 136 140 89 q 165 231 159 184 l 165 234 q 144 246 165 247 q 98 243 124 245 q 51 245 71 240 q 31 274 31 250 q 35 307 31 284 q 43 352 39 329 q 50 387 48 375 q 85 418 56 418 l 185 418 q 196 427 194 418 q 200 448 197 431 q 204 482 202 465 q 207 503 207 499 q 186 514 207 515 q 140 511 166 513 q 94 513 114 508 q 73 543 73 519 q 78 599 73 564 q 86 654 83 633 q 120 684 91 684 l 222 684 q 233 693 231 684 q 238 721 236 707 q 241 748 239 735 q 253 828 248 788 q 264 907 258 868 q 299 937 270 937 l 456 937 m 433 512 q 427 465 431 488 q 418 418 423 441 l 530 418 q 536 465 532 441 q 543 512 540 489 l 433 512 z "},".":{"ha":390,"x_min":54,"x_max":336,"o":"m 54 109 q 77 168 54 142 q 133 206 100 193 q 195 220 165 220 q 258 206 225 220 q 314 168 291 193 q 336 109 336 142 q 314 49 336 73 q 258 12 291 24 q 194 0 225 0 q 130 12 163 0 q 76 48 98 24 q 54 109 54 73 z "},"?":{"ha":586,"x_min":17,"x_max":568,"o":"m 210 286 q 180 298 187 286 q 174 329 174 311 q 175 361 175 347 q 194 490 175 438 q 242 579 214 543 q 299 646 271 616 q 346 708 327 676 q 366 783 366 740 q 345 842 366 814 q 290 870 323 870 q 232 853 253 870 q 199 812 212 836 q 177 772 187 789 q 153 755 168 755 q 119 767 144 755 q 71 792 95 779 q 36 812 46 806 q 23 822 28 816 q 17 838 17 829 q 20 852 17 844 q 127 1008 54 947 q 304 1069 200 1069 q 502 999 435 1069 q 568 800 568 929 q 547 673 568 724 q 496 586 526 623 q 436 514 466 549 q 385 431 406 478 q 364 313 364 385 q 364 295 364 305 q 353 286 364 286 l 210 286 m 269 -26 q 190 3 220 -26 q 159 81 159 33 q 197 161 159 130 q 280 192 235 192 q 352 159 328 192 q 376 81 376 125 q 347 3 376 33 q 269 -26 317 -26 z "},"¿":{"ha":586,"x_min":18,"x_max":586,"o":"m 336 794 q 412 765 387 794 q 437 688 437 736 q 410 611 437 643 q 335 579 383 579 q 253 610 289 579 q 218 688 218 641 q 253 766 218 739 q 336 794 289 794 m 386 485 q 415 472 408 485 q 421 443 422 460 q 420 410 420 425 q 401 280 420 332 q 353 191 381 228 q 295 124 324 155 q 247 62 267 94 q 227 -14 227 30 q 253 -76 227 -52 q 316 -100 279 -100 q 369 -83 350 -100 q 399 -42 388 -65 q 421 -1 411 -19 q 446 16 431 16 q 466 11 456 16 l 567 -42 q 586 -69 586 -52 q 584 -82 586 -76 q 473 -240 550 -180 q 290 -301 396 -301 q 92 -238 165 -301 q 18 -46 18 -175 q 34 73 18 24 q 73 156 49 121 q 124 221 97 191 q 175 282 151 250 q 215 356 199 314 q 230 458 230 397 q 230 475 230 466 q 242 485 231 485 l 386 485 z "},"\"":{"ha":543,"x_min":51,"x_max":508,"o":"m 230 1050 q 264 1015 264 1050 q 263 921 264 968 q 261 826 262 873 q 260 774 260 801 q 259 722 260 748 q 224 688 257 688 l 90 688 q 55 722 55 688 q 53 869 55 795 q 51 1015 51 942 q 85 1050 51 1050 l 230 1050 m 473 1050 q 508 1015 508 1050 q 506 944 508 979 q 503 873 504 908 q 501 798 502 836 q 498 722 500 760 q 463 688 496 688 l 330 688 q 295 722 295 688 l 295 1016 q 330 1050 295 1050 l 473 1050 z "},"'":{"ha":322,"x_min":39,"x_max":286,"o":"m 252 1050 q 286 1015 286 1050 q 284 944 286 979 q 281 873 283 908 q 279 798 280 836 q 277 722 279 760 q 242 688 275 688 l 76 688 q 41 722 41 688 l 39 1015 q 74 1050 39 1050 l 252 1050 z "},";":{"ha":346,"x_min":-8,"x_max":334,"o":"m 108 474 q 127 529 108 505 q 175 569 146 554 q 232 583 204 583 q 306 551 277 583 q 334 474 334 518 q 307 397 334 430 q 233 365 280 365 q 175 379 204 365 q 127 417 146 393 q 108 474 108 442 m 250 127 q 275 123 262 127 q 288 103 288 119 q 286 90 288 96 q 281 78 283 84 q 246 3 264 41 q 210 -73 228 -35 q 192 -114 201 -93 q 172 -155 182 -135 q 140 -175 162 -175 l 31 -175 q 5 -171 18 -175 q -8 -151 -8 -166 q -6 -138 -8 -144 q -1 -125 -4 -132 q 26 -62 12 -94 q 55 1 41 -30 q 77 54 66 27 q 100 106 88 81 q 132 127 111 127 l 250 127 z "},"/":{"ha":460,"x_min":7,"x_max":471,"o":"m 434 1075 q 459 1070 448 1075 q 471 1048 471 1065 q 467 1029 471 1040 q 368 697 417 864 q 271 365 319 531 q 237 248 254 307 q 203 132 220 190 q 184 64 193 98 q 163 -1 175 31 q 130 -26 155 -26 l 44 -26 q 19 -21 31 -26 q 7 0 7 -16 q 11 18 7 8 q 110 351 61 184 q 206 684 158 517 q 240 801 223 743 q 274 918 257 859 q 293 985 284 951 q 314 1050 302 1019 q 347 1075 323 1075 l 434 1075 z "},"_":{"ha":640,"x_min":83,"x_max":557,"o":"m 83 35 q 84 94 83 64 q 85 151 84 123 q 120 186 86 186 l 520 186 q 555 151 555 186 q 557 94 557 123 q 557 35 557 64 q 522 0 557 0 l 118 0 q 83 35 83 0 z "},"{":{"ha":543,"x_min":33,"x_max":506,"o":"m 450 903 q 441 903 446 903 q 433 903 437 903 q 384 879 397 903 q 370 821 371 854 q 369 761 369 787 l 369 627 q 284 446 369 517 q 278 437 278 441 q 292 420 278 433 q 323 386 305 407 q 354 337 340 365 q 369 276 368 309 q 369 192 370 234 q 370 107 368 149 q 371 49 370 82 q 385 -9 372 16 q 435 -33 398 -33 q 455 -33 445 -33 q 476 -33 466 -33 q 503 -60 501 -33 q 506 -122 505 -90 q 506 -184 506 -153 q 471 -220 506 -220 l 386 -220 q 364 -220 375 -220 q 342 -220 353 -220 q 236 -208 279 -220 q 171 -158 193 -195 q 149 -51 149 -121 q 150 71 149 9 q 151 192 151 132 q 131 284 151 238 q 65 347 112 330 q 41 360 50 353 q 33 387 33 368 q 33 440 33 413 q 33 493 33 467 q 42 519 33 511 q 66 532 51 527 q 132 595 113 550 q 151 687 151 640 q 151 801 151 744 q 150 916 150 859 q 173 1027 150 989 q 240 1077 195 1064 q 351 1090 286 1090 l 469 1089 q 504 1054 504 1089 q 504 991 504 1025 q 502 929 505 957 q 475 903 500 903 l 450 903 z "},"}":{"ha":543,"x_min":37,"x_max":511,"o":"m 92 -33 q 100 -33 96 -33 q 109 -33 104 -33 q 159 -8 146 -33 q 173 50 172 16 q 174 109 174 83 q 175 174 175 142 q 175 240 175 207 q 260 425 175 353 q 266 434 266 431 q 244 459 266 438 q 199 515 222 481 q 176 595 177 550 q 176 679 175 637 q 175 762 176 721 q 174 821 174 788 q 160 879 173 854 q 110 903 147 903 q 90 903 100 903 q 69 903 79 903 q 41 929 43 903 q 39 991 39 960 q 39 1054 39 1023 q 74 1089 39 1089 l 159 1089 q 179 1089 170 1089 q 199 1090 189 1090 q 308 1077 264 1090 q 373 1026 351 1063 q 394 918 394 989 q 393 796 394 857 q 393 675 393 735 q 412 585 393 629 q 477 524 431 541 q 502 510 494 517 q 511 484 510 502 l 511 377 q 502 351 511 359 q 477 338 493 343 q 412 277 431 321 q 393 187 393 233 q 394 71 393 130 q 395 -46 395 12 q 372 -157 395 -120 q 304 -208 349 -195 q 193 -220 260 -220 l 72 -220 q 37 -184 37 -220 q 38 -122 37 -153 q 40 -60 39 -90 q 67 -33 41 -33 l 92 -33 z "},"[":{"ha":568,"x_min":73,"x_max":536,"o":"m 75 1054 q 110 1089 75 1089 l 498 1089 q 533 1054 533 1089 q 532 1009 533 1031 q 531 964 532 986 q 532 944 531 954 q 531 925 532 935 q 496 890 528 890 l 361 890 q 350 879 350 890 q 350 695 350 787 q 349 511 349 604 q 350 251 349 381 q 351 -9 351 121 q 361 -20 351 -20 l 498 -20 q 524 -29 516 -20 q 532 -54 531 -37 q 535 -118 535 -79 q 536 -183 536 -157 q 501 -218 536 -218 l 108 -218 q 73 -183 73 -218 q 75 -75 73 -129 q 77 33 77 -20 q 80 260 79 146 q 81 487 81 374 q 80 679 81 583 q 78 871 79 775 q 76 963 77 917 q 75 1054 75 1008 z "},"]":{"ha":568,"x_min":33,"x_max":495,"o":"m 495 -183 q 460 -218 495 -218 l 67 -218 q 33 -183 33 -218 q 33 -117 33 -157 q 36 -53 33 -77 q 45 -27 37 -36 q 71 -19 52 -19 l 208 -19 q 218 -8 218 -19 q 219 252 218 122 q 220 513 220 382 q 219 696 220 605 q 219 880 219 788 q 208 892 219 892 l 73 892 q 37 926 41 892 q 37 946 37 936 q 37 964 37 956 q 36 1009 37 987 q 35 1054 35 1031 q 70 1089 35 1089 l 458 1089 q 493 1054 493 1089 q 492 963 493 1008 q 490 871 491 917 q 489 679 490 775 q 488 487 488 583 q 489 260 488 374 q 491 33 490 146 q 494 -75 492 -20 q 495 -183 495 -129 z "},"(":{"ha":553,"x_min":64,"x_max":496,"o":"m 64 423 q 93 655 64 536 q 176 883 121 774 q 313 1072 231 991 q 336 1082 323 1082 q 358 1075 340 1082 q 399 1058 376 1068 q 441 1040 422 1048 q 467 1029 460 1031 q 484 1018 475 1024 q 493 1000 493 1012 q 489 984 493 991 q 479 971 485 977 q 450 933 465 952 q 422 895 436 915 q 325 669 355 790 q 294 425 294 549 q 325 180 294 302 q 423 -47 355 58 q 451 -86 437 -67 q 481 -123 466 -104 q 491 -137 486 -130 q 496 -153 496 -144 q 487 -171 496 -165 q 469 -182 477 -178 q 443 -193 463 -184 q 400 -212 423 -202 q 359 -229 377 -222 q 336 -236 340 -236 q 313 -226 323 -236 q 175 -36 231 -144 q 92 190 120 71 q 64 423 64 309 z "},")":{"ha":553,"x_min":58,"x_max":488,"o":"m 488 423 q 461 190 488 309 q 378 -37 433 71 q 240 -226 323 -144 q 217 -237 229 -237 q 181 -225 210 -237 q 124 -200 153 -213 q 85 -182 95 -186 q 67 -172 76 -179 q 58 -154 58 -165 q 62 -138 58 -145 q 72 -124 67 -130 q 102 -86 87 -104 q 130 -46 117 -67 q 229 184 198 60 q 260 433 260 309 q 229 673 260 555 q 132 894 199 791 q 104 932 119 913 q 75 969 90 951 q 65 982 70 975 q 60 998 60 989 q 69 1016 60 1010 q 87 1027 78 1022 q 112 1039 93 1030 q 154 1058 132 1048 q 195 1075 177 1067 q 218 1082 214 1082 q 241 1071 230 1082 q 378 881 323 989 q 460 656 433 774 q 488 423 488 538 z "},"—":{"ha":1203,"x_min":90,"x_max":1114,"o":"m 90 271 q 90 327 90 299 q 91 384 91 355 q 125 418 91 418 l 1078 418 q 1112 384 1112 418 q 1113 327 1112 355 q 1114 271 1114 299 q 1079 235 1114 235 l 124 235 q 90 271 90 235 z "},"–":{"ha":857,"x_min":107,"x_max":745,"o":"m 107 271 q 107 328 107 299 q 109 384 108 356 q 143 418 110 418 l 709 418 q 744 384 744 418 q 744 327 744 355 q 745 271 745 299 q 710 235 745 235 l 142 235 q 107 271 107 235 z "},"-":{"ha":590,"x_min":96,"x_max":486,"o":"m 96 275 q 96 332 96 304 q 96 390 96 361 q 131 425 96 425 l 451 425 q 486 390 486 425 q 486 332 486 361 q 486 275 486 304 q 451 239 486 239 l 131 239 q 96 275 96 239 z "},"‐":{"ha":590,"x_min":96,"x_max":486,"o":"m 96 275 q 96 332 96 304 q 96 390 96 361 q 131 425 96 425 l 451 425 q 486 390 486 425 q 486 332 486 361 q 486 275 486 304 q 451 239 486 239 l 131 239 q 96 275 96 239 z "},"«":{"ha":791,"x_min":35,"x_max":716,"o":"m 348 81 q 329 87 338 81 q 312 100 319 94 q 232 168 272 134 q 152 236 192 202 q 101 279 127 258 q 51 322 75 300 q 40 334 45 328 q 35 349 35 340 q 40 364 35 357 q 52 376 45 371 q 106 422 79 399 q 161 469 134 446 q 237 534 199 501 q 313 598 275 566 q 330 610 320 604 q 349 617 339 617 q 367 600 364 617 q 370 572 370 582 l 370 471 q 357 444 370 456 q 335 426 352 440 q 299 395 319 412 q 265 366 279 378 q 251 350 251 353 q 265 333 251 347 q 299 302 279 319 q 336 271 319 285 q 357 252 353 256 q 370 224 370 239 q 369 175 370 200 q 369 126 369 151 q 366 98 369 116 q 348 81 363 81 m 696 81 q 676 88 686 81 q 659 100 667 95 q 526 210 593 155 q 395 323 459 266 q 384 335 389 328 q 379 349 379 341 q 384 364 379 357 q 395 376 389 371 q 525 488 460 432 q 656 598 591 544 q 673 610 664 604 q 692 617 683 617 q 711 600 708 617 q 713 572 713 582 q 713 522 713 547 q 713 471 713 496 q 700 445 713 456 q 650 401 675 423 q 600 358 625 380 q 595 350 595 355 q 610 333 595 347 q 644 302 625 319 q 681 270 664 284 q 703 251 698 255 q 715 224 714 241 q 716 176 716 201 q 716 127 716 151 q 714 99 716 117 q 696 81 711 81 z "},"»":{"ha":791,"x_min":68,"x_max":750,"o":"m 437 81 q 419 98 422 81 q 416 126 416 116 l 416 224 q 428 251 416 240 q 450 270 433 255 q 486 302 467 284 q 520 333 506 319 q 534 350 534 347 q 520 366 534 353 q 486 396 506 379 q 450 426 467 412 q 429 444 433 440 q 416 471 416 456 l 416 572 q 419 600 416 582 q 437 617 422 617 q 456 610 446 617 q 473 598 466 604 q 548 534 511 567 q 624 469 586 501 q 679 422 652 446 q 734 376 707 399 q 745 364 740 371 q 750 349 750 357 q 745 334 750 340 q 734 322 740 328 q 604 210 670 265 q 473 100 538 155 q 456 87 466 94 q 437 81 446 81 m 88 81 q 71 99 73 81 q 68 127 68 117 q 68 176 68 152 q 70 225 69 201 q 82 251 70 240 q 104 270 87 255 q 141 302 121 284 q 175 333 161 319 q 190 350 190 347 q 176 366 190 353 q 142 396 161 379 q 105 426 122 412 q 84 444 89 440 q 71 471 71 456 l 71 571 q 74 599 71 581 q 92 617 77 617 q 111 610 101 617 q 127 598 121 604 q 259 488 194 544 q 389 376 324 432 q 400 364 395 371 q 405 349 405 357 q 400 335 405 341 q 389 323 395 328 q 258 210 325 266 q 125 100 191 155 q 108 88 118 95 q 88 81 98 81 z "},"‹":{"ha":458,"x_min":33,"x_max":385,"o":"m 363 79 q 345 85 355 79 q 328 97 336 92 q 247 162 288 129 q 167 227 207 195 q 108 274 138 251 q 50 321 79 297 q 39 334 44 327 q 33 349 33 340 q 39 365 33 358 q 50 376 44 372 q 99 416 75 397 q 149 456 124 436 q 238 529 193 492 q 328 601 282 566 q 344 612 335 606 q 362 618 353 618 q 380 602 378 618 q 383 574 383 585 l 383 473 q 369 444 383 456 q 346 426 364 440 q 308 396 328 412 q 272 366 288 379 q 257 350 257 353 q 263 340 257 345 q 316 296 290 318 q 370 252 343 275 q 384 224 384 240 q 384 174 384 199 q 385 125 385 150 q 382 97 385 114 q 363 79 379 79 z "},"›":{"ha":458,"x_min":66,"x_max":425,"o":"m 87 79 q 70 96 73 79 q 66 123 66 113 q 67 174 66 149 q 67 224 67 199 q 81 252 67 240 q 136 296 109 275 q 191 340 164 318 q 197 350 197 345 q 191 359 197 354 q 137 401 165 380 q 83 444 110 422 q 68 473 68 456 l 68 575 q 71 603 68 586 q 89 619 74 619 q 107 613 98 619 q 123 602 117 608 q 201 541 163 572 q 279 478 240 509 q 343 428 311 453 q 408 376 376 402 q 419 365 414 372 q 425 349 425 358 q 420 334 425 340 q 408 321 414 327 q 344 270 377 295 q 279 220 311 245 q 201 157 240 189 q 123 96 163 125 q 106 85 116 91 q 87 79 97 79 z "},"„":{"ha":571,"x_min":45,"x_max":553,"o":"m 293 130 q 274 50 293 91 q 223 -25 254 8 q 157 -77 193 -59 q 144 -80 151 -80 q 113 -73 132 -80 q 81 -62 94 -66 q 57 -51 70 -58 q 45 -31 45 -44 q 51 -11 45 -21 q 62 6 56 -1 q 89 56 79 31 q 101 110 98 81 q 110 140 102 130 q 139 151 118 151 l 260 158 q 293 130 293 160 m 553 131 q 534 50 553 91 q 486 -25 516 9 q 420 -77 456 -58 q 407 -80 413 -80 q 375 -73 394 -80 q 343 -62 356 -66 q 320 -51 332 -58 q 307 -31 307 -44 q 313 -11 307 -21 q 323 6 319 -1 q 349 55 339 30 q 361 109 359 81 q 370 140 362 130 q 399 151 377 151 l 520 158 q 543 152 534 159 q 553 131 553 146 z "},"“":{"ha":571,"x_min":18,"x_max":527,"o":"m 274 870 q 317 985 274 934 q 414 1063 359 1036 q 429 1066 422 1066 q 460 1059 441 1066 q 491 1048 478 1053 q 514 1039 502 1046 q 527 1018 527 1031 q 521 999 527 1008 q 510 981 515 989 q 471 876 475 932 q 461 847 469 857 q 433 835 454 836 l 308 829 q 280 840 286 828 q 274 870 274 852 m 18 876 q 59 987 18 937 q 153 1063 100 1038 q 168 1066 161 1066 q 199 1059 180 1066 q 231 1048 218 1053 q 254 1039 241 1046 q 267 1018 267 1031 q 261 998 267 1008 q 250 981 256 988 q 224 931 235 958 q 213 878 214 905 q 205 847 212 857 q 175 835 197 836 l 52 829 q 23 842 28 828 q 18 876 18 857 z "},"”":{"ha":571,"x_min":47,"x_max":556,"o":"m 556 1008 q 535 929 556 970 q 483 853 515 888 q 418 802 451 819 q 405 799 411 799 q 374 806 392 799 q 342 817 355 813 q 319 827 332 821 q 307 848 307 834 q 312 867 307 857 q 323 884 318 877 q 349 933 338 908 q 361 987 359 959 q 370 1018 363 1008 q 399 1029 378 1029 l 524 1036 q 556 1008 556 1038 m 294 1009 q 274 929 294 970 q 224 854 255 888 q 159 802 193 820 q 146 799 153 799 q 115 806 134 799 q 83 817 96 813 q 60 827 73 821 q 47 848 47 834 q 53 867 47 858 q 63 884 58 877 q 100 987 96 933 q 109 1018 101 1007 q 138 1029 116 1029 l 261 1036 q 284 1030 275 1037 q 294 1009 294 1024 z "},"‘":{"ha":385,"x_min":39,"x_max":315,"o":"m 39 873 q 61 955 39 918 q 120 1020 84 992 q 193 1064 155 1048 q 205 1067 198 1067 q 240 1060 219 1067 q 275 1048 262 1053 q 300 1039 286 1046 q 315 1019 315 1032 q 307 998 315 1008 q 294 979 300 987 q 267 932 277 956 q 254 878 256 907 q 244 847 252 858 q 214 835 236 836 l 73 829 q 44 841 50 828 q 39 873 39 854 z "},"’":{"ha":385,"x_min":71,"x_max":344,"o":"m 344 1010 q 321 927 344 969 q 262 850 298 884 q 191 801 227 817 q 179 799 186 799 q 144 806 165 799 q 109 817 123 813 q 84 827 98 821 q 71 847 71 833 q 77 868 71 857 q 90 886 84 878 q 117 933 107 909 q 130 987 127 958 q 140 1018 132 1007 q 170 1029 148 1029 l 312 1036 q 335 1031 326 1037 q 344 1010 344 1025 z "},"‚":{"ha":385,"x_min":69,"x_max":342,"o":"m 342 110 q 319 27 342 68 q 262 -48 297 -15 q 191 -97 228 -81 q 178 -100 185 -100 q 144 -92 165 -100 q 109 -81 122 -85 q 83 -71 98 -77 q 69 -50 69 -64 q 76 -30 69 -40 q 89 -12 83 -19 q 117 36 106 12 q 131 90 128 61 q 140 121 133 110 q 170 132 148 132 l 310 140 q 342 110 342 142 z "}," ":{"ha":347,"x_min":0,"x_max":0,"o":""}," ":{"ha":347,"x_min":0,"x_max":0,"o":""},"¢":{"ha":567,"x_min":35,"x_max":528,"o":"m 355 -98 q 322 -98 340 -98 q 292 -92 304 -99 q 279 -63 279 -85 q 280 -34 279 -54 q 270 -12 281 -14 q 227 0 248 -6 q 186 16 207 5 q 70 136 104 58 q 35 302 35 214 l 35 312 q 52 433 35 373 q 106 542 70 493 q 200 620 143 591 q 235 634 218 629 q 270 644 252 639 q 281 660 281 646 q 279 690 281 673 q 284 718 278 706 q 314 730 291 730 q 348 730 330 730 q 377 724 365 731 q 389 694 389 717 q 388 673 389 684 q 388 651 388 662 q 395 640 388 644 q 399 640 397 640 q 445 624 414 637 q 502 595 476 612 q 528 560 528 578 q 514 530 528 553 q 485 483 500 507 q 463 450 469 459 q 455 441 460 446 q 444 437 451 437 q 419 449 433 437 q 395 460 406 460 q 388 449 388 460 q 388 312 388 380 q 389 175 389 243 q 396 164 389 164 q 418 173 407 164 q 439 182 430 182 q 448 179 444 182 q 455 172 452 176 q 487 127 471 151 q 517 80 502 103 q 524 60 524 69 q 511 37 524 47 q 470 14 492 24 q 425 -4 448 3 q 412 -7 418 -6 q 399 -11 405 -9 q 390 -22 390 -14 q 391 -56 391 -38 q 385 -85 392 -73 q 355 -98 378 -98 m 279 180 l 279 457 q 232 395 246 434 q 218 317 218 356 q 232 241 218 278 q 279 180 246 204 z "},"¤":{"ha":828,"x_min":110,"x_max":720,"o":"m 713 675 q 697 656 713 664 q 682 639 682 648 q 684 632 682 635 q 710 576 700 604 q 720 515 720 548 q 710 454 720 482 q 682 399 700 427 q 680 391 680 395 q 696 374 680 382 q 713 353 713 366 q 704 338 713 345 l 634 276 q 612 267 623 267 q 584 281 597 267 q 562 295 571 295 q 557 294 559 295 q 407 267 486 267 q 337 274 370 267 q 269 293 304 281 q 264 294 268 294 q 244 280 256 294 q 216 267 231 267 q 194 275 204 267 l 125 335 q 115 351 115 343 q 133 373 115 363 q 150 391 150 382 q 147 397 150 393 q 120 454 130 425 q 110 516 110 483 q 119 574 110 548 q 144 628 129 601 q 147 636 147 633 q 131 654 147 645 q 115 675 115 664 q 123 690 115 683 l 195 751 q 216 760 207 760 q 243 747 231 760 q 262 734 255 734 q 267 735 266 734 q 341 756 307 749 q 417 764 375 764 q 489 756 455 764 q 559 735 524 748 q 564 734 560 734 q 585 748 572 734 q 612 761 597 761 q 633 751 622 761 l 704 689 q 713 675 713 682 m 265 514 q 289 451 265 477 q 347 409 312 424 q 414 395 381 395 q 483 409 448 395 q 540 451 517 424 q 563 517 563 479 q 540 582 563 555 q 483 621 517 608 q 414 635 448 635 q 346 621 380 635 q 288 579 311 606 q 265 514 265 553 z "},"$":{"ha":675,"x_min":35,"x_max":648,"o":"m 338 -98 q 304 -98 322 -98 q 275 -92 287 -98 q 262 -62 262 -85 q 263 -39 262 -51 q 263 -15 263 -26 q 254 -4 263 -6 q 232 1 243 -1 q 211 5 222 3 q 126 38 170 17 q 50 85 83 58 q 39 96 43 91 q 35 110 35 101 q 48 143 35 117 q 74 197 60 170 q 93 233 88 224 q 104 250 98 242 q 121 258 111 258 q 156 242 130 258 q 210 212 181 227 q 256 196 238 196 q 264 207 264 196 q 264 327 264 267 q 264 447 264 387 q 258 456 264 453 q 232 472 245 465 q 205 489 218 480 q 108 602 138 538 q 76 748 78 666 l 76 755 q 112 916 76 840 q 227 1031 149 991 q 267 1046 248 1040 q 308 1057 287 1051 q 319 1075 319 1059 q 317 1108 319 1090 q 321 1140 315 1126 q 352 1154 328 1154 q 386 1155 368 1154 q 416 1149 404 1156 q 429 1119 429 1142 q 428 1094 429 1106 q 428 1069 428 1082 q 438 1058 428 1060 q 459 1055 449 1056 q 480 1050 470 1053 q 562 1020 521 1040 q 635 972 604 999 q 648 947 648 960 q 637 915 648 941 q 614 860 626 888 q 597 824 602 833 q 587 808 593 815 q 570 800 581 800 q 534 814 559 800 q 481 842 509 828 q 435 856 454 856 q 427 844 427 856 q 426 729 427 787 q 426 614 426 672 q 428 610 426 610 q 433 608 431 609 q 587 492 536 565 q 637 308 637 419 q 598 136 637 216 q 471 16 558 55 q 428 1 449 6 q 382 -8 406 -4 q 371 -24 371 -10 q 373 -55 371 -38 q 368 -85 374 -72 q 338 -98 361 -98 m 318 675 q 317 763 317 719 q 317 851 317 807 q 280 814 291 838 q 270 762 270 789 q 284 713 270 736 q 318 675 299 691 m 372 397 l 372 193 q 424 225 404 202 q 443 282 443 248 q 422 348 443 319 q 372 397 401 377 z "},"€":{"ha":710,"x_min":-23,"x_max":732,"o":"m -23 692 q -8 724 -23 718 q 26 728 6 730 q 63 725 46 726 q 83 736 79 724 q 99 787 91 762 q 119 838 108 812 q 256 1005 169 942 q 462 1067 344 1067 q 587 1047 524 1067 q 700 991 650 1027 q 714 966 714 981 q 708 942 714 962 q 692 897 701 922 q 675 849 683 871 q 664 820 667 827 q 654 800 661 810 q 635 789 648 789 q 600 805 623 789 q 543 837 577 821 q 465 852 509 852 q 370 820 414 852 q 300 743 326 787 q 298 734 298 738 q 302 728 298 730 q 310 727 307 727 l 386 727 q 420 692 420 727 q 420 647 420 670 q 420 602 420 625 q 385 568 420 568 l 258 568 q 246 553 246 568 q 246 531 246 538 q 246 503 246 522 q 258 484 246 484 l 385 484 q 420 449 420 484 l 420 358 q 385 323 420 323 l 308 323 q 300 322 304 323 q 296 316 296 321 q 298 308 296 313 q 480 203 359 203 q 616 246 554 203 q 633 257 623 252 q 651 262 642 262 q 671 251 664 262 q 682 230 678 240 q 693 203 685 223 q 710 161 701 184 q 725 119 719 138 q 732 97 732 101 q 720 74 732 84 q 609 12 677 35 q 484 -11 542 -11 l 474 -11 q 269 51 355 -6 q 127 214 182 109 q 106 264 115 239 q 88 315 98 290 q 67 326 84 327 q 30 322 50 325 q -6 327 9 320 q -22 359 -22 333 l -22 449 q -11 477 -22 471 q 17 484 1 484 q 48 484 33 484 q 60 504 62 484 q 58 534 58 524 q 59 545 58 540 q 59 556 59 551 q 46 569 59 568 q 18 568 34 569 q -10 573 2 566 q -22 602 -22 579 q -23 647 -22 625 q -23 692 -23 669 z "},"ƒ":{"ha":587,"x_min":-41,"x_max":604,"o":"m 174 646 q 174 693 174 669 q 174 739 174 716 q 222 950 174 867 q 360 1078 271 1034 q 569 1131 449 1122 l 572 1131 q 604 1095 604 1131 q 604 1053 604 1074 q 602 1010 603 1031 q 602 980 602 996 q 601 950 602 965 q 569 916 599 921 q 437 862 481 900 q 393 726 393 823 l 393 646 q 404 635 393 635 l 551 635 q 586 600 586 635 q 586 532 586 566 q 585 465 585 498 q 551 430 585 430 l 404 430 q 393 419 393 430 q 393 292 393 355 q 393 163 393 228 q 349 -60 394 24 q 216 -184 304 -144 q -5 -233 127 -224 l -9 -233 q -41 -201 -41 -233 q -39 -128 -41 -165 q -37 -54 -37 -91 q -5 -18 -36 -23 q 25 -13 10 -16 q 54 -7 39 -11 q 146 57 119 13 q 174 168 174 102 q 174 293 174 231 q 174 419 174 356 q 158 432 174 432 q 120 429 142 431 q 82 433 98 427 q 66 465 66 439 l 66 600 q 100 635 66 635 l 163 635 q 174 646 174 635 z "},"£":{"ha":676,"x_min":25,"x_max":673,"o":"m 319 720 q 320 669 319 694 q 320 618 320 644 q 331 607 320 607 l 448 607 q 483 572 483 607 l 483 428 q 448 393 483 393 l 331 393 q 320 382 320 393 q 320 307 320 347 q 309 231 321 267 q 308 223 308 226 q 320 215 308 215 l 476 215 q 507 230 499 215 q 515 266 515 245 q 516 296 515 280 q 537 313 516 312 l 637 314 q 672 280 671 314 q 673 234 673 257 q 673 186 673 210 q 634 56 673 112 q 513 0 595 0 l 60 0 q 25 36 25 0 q 26 113 25 74 q 28 190 27 152 q 54 215 29 215 l 77 215 q 84 215 81 215 q 91 214 87 214 q 127 231 117 214 q 138 269 137 247 q 140 310 140 292 l 140 382 q 129 393 140 393 q 87 394 108 393 q 66 425 66 395 l 66 576 q 77 603 66 597 q 103 607 88 608 q 129 607 117 606 q 140 618 140 607 q 139 712 140 665 q 138 806 138 759 q 177 941 140 883 q 276 1032 214 1000 q 413 1065 338 1065 q 553 1031 488 1065 q 652 928 618 998 q 656 913 656 920 q 643 888 656 899 q 601 853 622 871 q 557 819 579 836 q 547 811 553 814 q 533 808 541 808 q 507 818 521 808 q 473 840 494 829 q 421 850 453 850 q 339 812 359 850 q 319 720 319 774 z "},"¥":{"ha":983,"x_min":31,"x_max":951,"o":"m 238 336 q 238 378 238 357 q 239 420 239 399 q 273 454 239 454 l 359 454 q 368 456 363 454 q 373 462 373 457 q 352 503 373 466 q 296 597 330 541 q 221 718 261 654 q 144 842 181 782 q 79 945 106 902 q 43 1002 52 989 q 35 1017 39 1009 q 31 1034 31 1025 q 46 1053 31 1049 q 73 1056 62 1056 l 249 1056 q 278 1040 267 1056 q 382 870 334 957 q 485 699 431 783 q 495 691 490 691 q 505 699 500 691 q 530 743 518 721 q 555 787 543 766 q 630 914 593 850 q 706 1039 667 977 q 736 1056 717 1056 l 910 1056 q 937 1053 922 1056 q 951 1034 951 1049 q 947 1017 951 1025 q 939 1002 943 1009 q 902 945 930 988 q 837 841 875 901 q 758 717 799 781 q 683 596 718 653 q 626 503 648 540 q 604 462 604 466 q 608 456 604 457 q 616 454 613 454 l 732 454 q 766 420 766 454 l 766 337 q 732 302 766 302 l 602 302 q 591 291 591 302 q 590 260 591 281 q 602 239 589 239 l 732 239 q 768 204 768 239 q 768 163 768 184 q 768 123 768 143 q 734 87 768 87 l 603 87 q 591 77 591 87 q 593 43 592 61 q 587 13 593 25 q 557 0 580 0 l 419 0 q 384 35 384 0 q 386 67 384 47 q 373 87 387 87 l 273 87 q 238 123 238 87 q 238 163 238 143 q 239 204 238 184 q 274 239 239 239 l 374 239 q 385 250 385 239 q 387 281 385 260 q 374 302 388 302 l 273 302 q 238 336 238 302 z "},"+":{"ha":657,"x_min":75,"x_max":574,"o":"m 75 279 q 76 336 75 307 q 76 393 76 365 q 111 428 76 428 l 223 428 q 235 439 235 428 l 235 565 q 269 600 235 600 l 380 600 q 414 565 414 600 l 414 439 q 425 428 414 428 l 538 428 q 572 393 572 428 q 573 336 573 365 q 574 279 574 307 q 538 243 574 243 l 426 243 q 414 232 414 243 l 415 109 q 380 75 415 75 l 268 75 q 233 109 233 75 q 234 171 233 140 q 234 232 234 201 q 223 243 234 243 l 110 243 q 75 279 75 243 z "},"­":{"ha":586,"x_min":70,"x_max":517,"o":"m 70 248 q 70 306 70 277 q 71 363 71 334 q 105 398 71 398 l 481 398 q 516 363 516 398 q 516 306 516 334 q 517 248 517 277 q 482 212 517 212 l 104 212 q 70 248 70 212 z "},"−":{"ha":586,"x_min":70,"x_max":517,"o":"m 70 248 q 70 306 70 277 q 71 363 71 334 q 105 398 71 398 l 481 398 q 516 363 516 398 q 516 306 516 334 q 517 248 517 277 q 482 212 517 212 l 104 212 q 70 248 70 212 z "},"×":{"ha":656,"x_min":92,"x_max":598,"o":"m 237 542 q 263 527 247 542 q 297 493 279 512 q 329 458 315 473 q 349 444 343 444 q 367 457 354 444 q 396 490 380 471 q 428 523 412 509 q 454 536 444 536 q 468 532 462 536 q 479 522 475 528 q 530 466 505 494 q 580 409 555 437 q 591 385 591 397 q 578 360 591 376 q 549 328 566 345 q 520 298 532 311 q 507 279 507 285 q 521 259 507 273 q 553 228 534 245 q 585 194 571 210 q 598 167 598 177 q 595 154 598 160 q 587 143 591 149 q 532 84 559 114 q 477 26 505 55 q 466 18 472 22 q 452 14 459 14 q 425 27 441 14 q 392 59 409 41 q 361 91 374 77 q 342 104 347 104 q 324 91 337 104 q 296 60 311 78 q 265 30 280 43 q 239 16 250 16 q 226 20 232 16 q 214 29 220 24 q 160 85 187 57 q 107 142 133 113 q 100 153 103 147 q 96 165 96 158 q 110 191 96 175 q 142 223 123 207 q 174 254 160 240 q 187 273 187 267 q 173 293 187 279 q 139 325 158 307 q 106 359 121 342 q 92 387 92 376 q 95 399 92 393 q 102 410 98 405 q 157 469 129 439 q 212 528 184 499 q 223 538 217 534 q 237 542 229 542 z "},"÷":{"ha":568,"x_min":59,"x_max":505,"o":"m 193 621 q 218 694 193 659 q 286 730 243 730 q 353 694 328 730 q 378 621 378 659 q 353 549 378 583 q 286 514 327 514 q 219 548 244 514 q 193 621 193 582 m 59 333 q 59 390 59 361 q 60 447 60 418 q 94 481 60 481 l 470 481 q 505 447 505 481 q 505 390 505 418 q 505 333 505 361 q 470 298 505 298 l 94 298 q 59 333 59 298 m 193 163 q 218 238 193 202 q 286 274 243 274 q 353 239 328 274 q 378 165 378 203 q 353 92 378 127 q 286 58 328 58 q 219 92 245 58 q 193 163 193 125 z "},"=":{"ha":669,"x_min":44,"x_max":625,"o":"m 46 560 q 81 595 46 595 l 588 595 q 623 559 623 595 q 623 502 623 530 q 623 444 623 473 q 588 409 623 409 l 81 409 q 46 444 46 409 l 46 560 m 44 161 l 45 277 q 80 311 45 311 l 589 311 q 624 277 624 311 l 625 161 q 590 125 625 125 l 79 125 q 44 161 44 125 z "},"≠":{"ha":612,"x_min":16,"x_max":600,"o":"m 515 777 q 530 772 524 777 q 542 762 537 767 q 571 732 551 752 q 591 695 591 711 q 577 663 591 682 q 550 627 564 644 q 536 602 536 610 q 545 595 536 595 q 567 595 555 595 q 589 591 579 596 q 598 570 598 587 l 598 444 q 564 409 598 409 l 408 409 q 398 404 401 409 l 347 329 q 344 324 346 326 q 342 318 342 321 q 348 312 342 313 q 356 311 353 311 l 564 311 q 600 277 600 311 q 600 218 600 248 q 600 158 600 188 q 566 125 600 125 l 214 125 q 192 104 207 125 q 159 53 177 82 q 123 3 141 24 q 94 -19 106 -19 q 79 -14 85 -19 q 67 -3 73 -9 l 26 41 q 16 63 16 51 q 32 95 16 79 q 47 120 47 111 q 40 125 47 126 q 25 125 33 125 q 18 134 18 125 l 20 277 q 55 311 20 311 l 176 311 q 195 329 182 311 q 220 366 208 347 q 237 392 233 386 q 241 402 241 397 q 236 408 241 407 q 228 409 231 409 l 56 409 q 21 444 21 409 q 21 502 21 473 q 20 559 20 530 q 56 595 20 595 l 369 595 q 378 600 376 595 l 488 758 q 499 771 492 765 q 515 777 507 777 z "},">":{"ha":557,"x_min":42,"x_max":526,"o":"m 43 50 q 43 123 43 85 q 45 197 42 161 q 58 223 46 212 q 87 248 64 229 q 138 288 111 266 q 186 328 165 310 q 206 349 206 345 q 186 369 206 351 q 139 408 166 386 q 89 449 112 430 q 59 473 65 467 q 46 500 46 486 l 46 645 q 49 672 46 656 q 67 688 52 688 q 85 683 77 688 q 101 673 94 678 q 200 602 151 639 q 298 530 248 566 q 402 454 350 492 q 507 376 455 416 q 520 364 513 371 q 526 348 526 357 q 520 332 526 339 q 507 320 513 326 q 409 247 458 283 q 309 174 359 211 q 204 97 257 136 q 98 20 152 58 q 83 11 92 16 q 64 5 74 5 q 46 22 50 5 q 43 50 43 39 z "},"<":{"ha":557,"x_min":32,"x_max":515,"o":"m 511 498 q 498 471 511 484 q 427 413 464 441 q 356 355 391 385 q 351 347 351 351 q 371 326 351 343 q 419 287 391 309 q 470 246 446 264 q 500 222 493 228 q 513 195 511 212 q 515 123 515 161 q 514 50 514 85 q 511 22 514 39 q 493 5 509 5 q 475 11 484 5 q 459 20 467 16 q 353 96 406 58 q 248 174 300 135 q 149 245 199 210 q 51 318 99 281 q 38 330 44 323 q 32 346 32 337 q 38 362 32 355 q 51 374 44 369 q 149 447 99 411 q 247 519 198 483 q 351 596 299 557 q 456 673 404 635 q 473 683 464 678 q 490 688 481 688 q 509 671 506 688 q 511 644 511 655 l 511 498 z "},"≥":{"ha":473,"x_min":-5,"x_max":487,"o":"m -5 974 q -2 1001 -5 985 q 16 1017 1 1017 q 34 1013 24 1017 q 50 1002 43 1008 q 169 917 110 960 q 288 830 229 873 q 374 768 331 799 q 460 704 418 736 q 473 692 467 699 q 479 676 479 686 q 473 661 479 667 q 460 648 467 654 q 375 585 418 616 q 290 523 332 555 q 172 436 231 479 q 54 349 113 392 q 38 339 47 345 q 20 334 29 334 q 2 350 5 334 q -1 377 -1 366 l -1 522 q 14 551 -1 538 q 36 565 24 558 q 58 579 47 572 q 117 618 87 599 q 175 658 146 637 q 182 667 182 663 q 176 675 182 671 q 93 738 136 708 q 11 800 50 767 q -3 827 -3 812 l -5 974 m -5 88 q -5 146 -5 117 q -4 205 -5 176 q 31 239 -3 239 l 450 239 q 486 205 485 239 q 487 146 487 176 q 487 88 487 117 q 452 53 487 53 l 29 53 q -5 88 -5 53 z "},"≤":{"ha":473,"x_min":-7,"x_max":481,"o":"m 473 377 q 470 350 473 366 q 451 334 467 334 q 433 339 442 334 q 418 349 425 345 q 300 436 359 392 q 182 523 241 479 q 97 585 140 555 q 12 648 54 616 q -1 661 5 654 q -7 676 -7 667 q -1 692 -7 686 q 12 704 5 699 q 98 768 54 736 q 184 830 141 799 q 303 917 243 873 q 422 1002 362 960 q 438 1013 429 1008 q 456 1017 447 1017 q 474 1001 471 1017 q 477 974 477 985 l 474 827 q 462 800 474 812 q 432 775 456 794 q 381 733 409 756 q 334 693 354 711 q 314 673 314 675 q 334 652 314 669 q 380 614 353 635 q 431 575 408 593 q 460 551 454 557 q 473 524 473 539 l 473 377 m 16 88 q 16 146 16 117 q 17 205 17 176 q 52 239 17 239 l 445 239 q 480 205 479 239 q 481 146 481 176 q 481 88 481 117 q 447 53 481 53 l 50 53 q 16 88 16 53 z "},"±":{"ha":568,"x_min":73,"x_max":502,"o":"m 207 671 l 206 798 q 241 832 206 832 l 334 832 q 368 797 368 832 l 368 671 q 379 661 368 661 l 465 661 q 500 625 500 661 q 500 568 500 597 q 500 511 500 539 q 465 476 500 476 l 379 476 q 368 465 368 476 l 368 342 q 334 307 368 307 l 241 307 q 207 342 207 307 l 207 465 q 196 476 207 476 l 110 476 q 75 511 75 476 q 75 568 75 539 q 75 625 75 597 q 110 661 75 661 l 195 661 q 207 671 207 661 m 73 115 l 74 231 q 109 266 74 266 l 466 266 q 501 231 501 266 l 502 115 q 467 79 502 79 l 108 79 q 73 115 73 79 z "},"≈":{"ha":701,"x_min":20,"x_max":680,"o":"m 497 373 q 404 390 444 373 q 333 431 363 408 q 275 471 302 454 q 221 488 248 488 q 177 465 190 488 q 161 416 165 441 q 151 387 159 397 q 123 377 144 377 l 57 377 q 31 387 38 377 q 24 414 24 397 q 50 531 24 477 q 122 617 75 585 q 236 650 169 650 q 314 631 279 650 q 380 588 350 612 q 437 545 410 564 q 488 526 464 526 q 530 553 522 526 q 540 606 538 581 q 549 634 541 625 q 576 644 556 644 l 646 644 q 676 626 672 644 q 680 589 680 609 q 659 487 680 536 q 596 405 637 437 q 497 373 555 373 m 498 71 q 403 89 444 71 q 331 129 363 106 q 273 170 300 152 q 218 187 245 187 q 175 164 187 187 q 158 115 162 140 q 148 85 155 96 q 119 75 140 75 l 52 75 q 20 111 20 75 q 45 228 20 174 q 119 315 71 282 q 234 347 167 347 q 313 329 277 347 q 379 286 349 310 q 436 243 409 262 q 487 224 463 224 q 529 251 521 224 q 538 304 537 278 q 547 332 540 323 q 575 342 555 342 q 610 342 593 342 q 645 342 628 342 q 676 323 672 342 q 680 284 680 304 q 658 183 680 232 q 596 102 637 134 q 498 71 556 71 z "},"~":{"ha":750,"x_min":23,"x_max":730,"o":"m 730 821 q 706 711 730 762 q 635 630 681 661 q 528 599 590 599 q 431 616 473 599 q 357 656 390 633 q 294 696 323 679 q 233 713 264 713 q 188 692 201 713 q 169 643 174 671 q 158 613 165 624 q 128 603 150 603 l 56 603 q 28 614 34 603 q 23 644 23 626 q 52 763 23 711 q 131 845 80 814 q 248 875 181 875 q 333 856 294 875 q 405 813 372 838 q 467 770 438 789 q 523 751 496 751 q 569 778 559 751 q 581 833 578 804 q 591 861 583 852 q 618 870 599 870 l 697 870 q 726 855 722 870 q 730 821 730 840 z "},"¬":{"ha":639,"x_min":45,"x_max":595,"o":"m 45 302 q 45 374 45 338 q 45 445 45 410 q 80 479 45 479 l 559 479 q 593 445 593 479 q 594 302 593 374 q 595 159 595 231 q 561 124 595 124 l 408 124 q 374 159 374 124 l 374 255 q 362 267 374 267 l 80 267 q 45 302 45 267 z "},"∞":{"ha":861,"x_min":32,"x_max":829,"o":"m 629 292 q 438 342 524 292 q 432 345 435 345 q 426 342 429 345 q 233 292 338 292 q 143 309 189 292 q 64 359 96 326 q 32 444 32 393 q 64 529 32 495 q 142 581 96 564 q 233 597 189 597 q 333 585 285 597 q 426 547 381 573 q 432 545 429 545 q 438 547 435 545 q 531 585 483 573 q 630 597 578 597 q 719 581 673 597 q 798 530 766 564 q 829 447 829 497 q 798 361 829 395 q 720 310 766 327 q 629 292 673 292 m 367 442 q 351 466 367 456 q 313 479 335 475 q 269 486 290 484 q 238 488 248 488 q 188 481 215 488 q 161 444 161 475 q 190 407 161 413 q 241 400 218 400 q 271 402 250 400 q 313 408 291 404 q 351 421 335 413 q 367 442 367 429 m 497 442 q 523 416 497 425 q 579 404 549 407 q 622 400 610 400 q 673 406 646 400 q 701 444 701 412 q 687 475 701 466 q 654 486 673 484 q 618 488 635 488 q 576 484 605 488 q 522 470 547 480 q 497 442 497 460 z "},"∫":{"ha":330,"x_min":-34,"x_max":332,"o":"m 311 903 q 296 903 304 903 q 281 904 289 904 q 248 888 259 904 q 233 848 237 872 q 230 801 230 825 q 230 762 231 777 q 230 712 229 737 q 230 663 230 688 l 229 453 q 230 185 229 319 q 231 -83 231 51 q 202 -190 231 -159 q 96 -220 173 -220 q 80 -220 88 -220 q 63 -220 71 -220 l 1 -220 q -34 -184 -34 -220 q -33 -144 -34 -164 q -32 -104 -33 -123 q -32 -78 -32 -92 q -31 -53 -33 -65 q -26 -38 -30 -43 q -11 -33 -22 -33 q 4 -33 -3 -33 q 20 -34 12 -34 q 53 -18 42 -34 q 68 23 64 -1 q 71 71 71 47 q 71 109 71 94 q 72 174 73 142 q 72 239 72 207 q 72 376 72 308 q 73 513 73 445 q 72 715 73 614 q 71 918 71 817 q 79 1009 72 970 q 115 1069 87 1048 q 203 1090 142 1090 q 220 1090 212 1090 q 237 1089 229 1089 l 298 1089 q 332 1054 332 1089 l 331 922 q 311 903 331 903 z "},"∏":{"ha":545,"x_min":44,"x_max":471,"o":"m 45 1060 q 79 1095 45 1095 l 436 1095 q 471 1060 471 1095 q 470 966 471 1013 q 468 873 469 920 q 466 481 466 677 q 468 89 466 286 q 470 -4 469 43 q 471 -98 471 -51 q 436 -133 471 -133 l 348 -133 q 313 -98 313 -133 q 313 210 313 56 q 312 518 312 364 q 312 708 312 613 q 313 899 313 804 q 301 910 313 910 l 215 910 q 204 899 204 910 q 203 400 204 650 q 203 -98 203 151 q 168 -133 203 -133 l 79 -133 q 44 -98 44 -133 q 45 -2 44 -50 q 47 93 47 45 q 50 293 49 193 q 50 494 50 393 q 50 683 50 589 q 47 871 49 777 q 46 965 47 918 q 45 1060 45 1013 z "},"∑":{"ha":496,"x_min":-4,"x_max":502,"o":"m 125 473 l 125 477 q 108 562 118 519 q 89 645 98 604 q 44 849 67 747 q -2 1053 22 951 q -4 1067 -4 1060 q 7 1089 -4 1084 q 32 1095 18 1095 l 465 1095 q 490 1089 479 1095 q 501 1067 501 1084 q 495 1033 501 1061 q 481 976 488 1004 q 471 937 474 947 q 437 910 465 910 l 213 910 q 201 901 201 910 q 202 899 201 900 q 202 897 202 898 q 247 690 224 793 q 291 483 270 587 q 292 475 292 480 q 291 468 292 471 q 247 261 270 365 q 202 55 224 158 q 202 53 202 54 q 201 50 201 52 q 213 41 201 41 l 438 41 q 471 15 465 41 q 481 -23 474 6 q 495 -80 489 -52 q 502 -115 502 -109 q 491 -137 502 -132 q 466 -143 480 -143 l 32 -143 q 7 -137 18 -143 q -4 -115 -4 -132 q -2 -100 -4 -107 q 44 103 22 1 q 89 307 67 204 l 113 418 q 117 434 114 420 q 122 460 119 447 q 125 473 125 473 z "},"√":{"ha":1137,"x_min":31,"x_max":1061,"o":"m 479 220 q 488 227 484 220 q 636 458 564 341 q 783 689 709 574 q 864 815 823 752 q 884 847 873 831 q 905 878 894 863 q 934 893 916 893 l 1019 893 q 1045 890 1029 893 q 1061 871 1061 886 q 1056 854 1061 863 q 1048 839 1052 846 q 1003 770 1026 804 q 959 703 981 736 q 862 552 910 627 q 767 400 814 476 q 681 262 724 332 q 593 125 637 193 q 551 56 572 91 q 506 -12 529 22 q 494 -27 501 -19 q 477 -35 487 -35 q 460 -27 467 -35 q 448 -13 454 -20 q 415 36 431 11 q 383 86 399 61 q 291 228 337 157 q 197 370 245 300 q 188 374 194 374 l 66 374 q 31 410 31 374 q 31 441 31 425 q 38 470 31 458 q 66 482 45 482 l 279 482 q 308 467 296 482 q 332 433 321 451 q 355 397 344 414 q 412 312 384 355 q 470 227 441 269 q 479 220 475 220 z "},"%":{"ha":1116,"x_min":36,"x_max":1081,"o":"m 264 429 q 130 470 180 429 q 58 576 79 511 q 36 716 36 642 q 59 848 36 789 q 131 944 81 908 q 260 980 180 980 q 393 942 342 980 q 467 841 444 904 q 491 705 491 779 q 468 569 491 632 q 396 467 446 506 q 264 429 346 429 m 956 980 q 983 977 966 980 q 1000 958 1000 974 q 995 941 1000 949 q 984 924 989 932 q 921 837 953 880 q 857 749 889 793 q 733 572 795 661 q 608 395 671 484 q 515 262 562 328 q 422 130 469 196 q 380 71 401 100 q 338 12 359 41 q 309 -3 326 -3 l 193 -1 q 167 3 184 -1 q 151 21 151 6 q 156 39 151 31 q 165 54 161 47 q 229 142 197 98 q 292 230 260 186 q 417 407 355 318 q 541 583 479 495 q 633 716 587 650 q 727 848 680 783 q 769 908 748 878 q 811 966 789 937 q 839 980 823 980 l 956 980 m 212 705 q 215 656 212 687 q 228 602 217 626 q 264 577 239 577 q 301 602 291 577 q 312 656 311 626 q 313 705 313 687 q 312 752 313 722 q 301 806 311 782 q 264 829 291 829 q 224 807 235 829 q 213 755 213 785 q 212 705 212 726 m 868 -43 q 731 -4 785 -43 q 652 98 677 34 q 626 239 626 161 q 652 374 626 312 q 730 472 677 435 q 862 509 783 509 q 995 468 947 509 q 1062 360 1043 426 q 1081 220 1081 294 q 1061 89 1081 149 q 995 -7 1042 29 q 868 -43 949 -43 m 802 235 q 805 186 802 216 q 818 131 807 155 q 855 106 829 106 q 892 131 882 106 q 902 186 901 155 q 903 235 903 216 q 901 282 903 252 q 890 335 900 311 q 854 358 880 358 q 814 336 825 358 q 803 285 804 314 q 802 235 802 256 z "},"‰":{"ha":1432,"x_min":38,"x_max":1396,"o":"m 239 429 q 140 455 179 429 q 78 525 100 481 q 47 619 56 568 q 38 720 38 670 q 55 843 38 783 q 114 941 72 903 q 231 980 156 980 q 355 938 310 980 q 419 831 400 895 q 437 700 437 766 q 419 574 437 637 q 358 470 401 511 q 239 429 315 429 m 843 980 q 869 977 854 980 q 884 958 884 973 q 880 941 884 949 q 872 926 876 933 q 817 838 845 882 q 762 750 789 794 q 652 573 707 662 q 543 395 597 484 q 460 263 502 329 q 377 130 419 197 q 340 72 358 101 q 302 14 321 42 q 273 -3 291 -3 q 223 -2 248 -2 q 174 -1 199 -1 q 148 3 163 0 q 132 22 132 7 q 136 38 132 31 q 145 53 140 46 q 321 331 234 193 q 494 610 408 469 q 567 728 530 669 q 639 846 603 787 q 674 905 656 876 q 711 964 692 935 q 741 980 723 980 l 843 980 m 197 746 q 197 705 197 732 q 200 648 197 677 q 212 598 203 618 q 239 577 221 577 q 266 595 258 577 q 275 636 273 614 q 276 671 276 659 q 276 709 276 684 q 274 763 277 735 q 263 810 272 791 q 237 829 255 829 l 235 829 q 208 814 216 829 q 199 779 200 799 q 197 746 197 760 m 762 -43 q 640 -3 686 -43 q 574 99 594 37 q 553 227 553 161 q 572 359 553 294 q 637 467 591 424 q 761 509 682 509 q 857 484 820 509 q 916 416 895 458 q 945 324 937 374 q 953 227 953 275 q 937 101 953 163 q 880 -2 922 39 q 762 -43 839 -43 m 1211 -43 q 1083 0 1131 -43 q 1016 107 1036 42 q 995 241 995 173 q 1015 368 995 307 q 1080 469 1035 429 q 1200 509 1126 509 q 1299 483 1261 509 q 1358 412 1337 456 q 1388 318 1379 369 q 1396 218 1396 267 q 1381 96 1396 156 q 1326 -3 1366 36 q 1211 -43 1286 -43 m 713 235 q 714 189 713 220 q 723 132 715 158 q 753 106 732 106 q 779 121 770 106 q 789 159 787 137 q 792 202 792 181 q 791 235 791 224 q 791 278 791 249 q 784 333 791 308 q 755 358 777 358 l 753 358 q 722 334 730 358 q 713 280 713 309 q 713 235 713 251 m 1155 235 q 1158 189 1155 220 q 1171 132 1161 158 q 1202 106 1181 106 q 1226 119 1219 106 q 1234 148 1233 132 q 1236 176 1236 165 q 1235 214 1236 195 q 1234 252 1234 233 q 1234 289 1234 263 q 1229 336 1234 314 q 1206 358 1223 358 q 1167 335 1178 358 q 1156 283 1157 313 q 1155 235 1155 254 z "},"◊":{"ha":560,"x_min":54,"x_max":507,"o":"m 54 503 q 57 516 54 508 q 109 645 83 581 q 162 774 136 709 q 204 880 184 827 q 248 986 225 934 q 260 1009 252 994 q 280 1025 269 1025 q 300 1009 292 1025 q 312 986 309 994 q 356 880 335 934 q 399 774 377 827 q 452 645 425 709 q 504 516 479 581 q 507 503 507 508 q 504 490 507 498 q 455 369 480 429 q 405 248 429 308 q 359 134 382 191 q 312 20 336 77 q 300 -3 309 12 q 280 -19 292 -19 q 260 -3 268 -19 q 248 20 252 12 q 201 134 224 77 q 156 248 179 191 q 106 369 131 308 q 57 490 81 429 q 54 503 54 498 m 280 792 q 223 648 252 720 q 167 503 195 576 q 223 358 195 431 q 280 213 252 286 q 338 358 309 286 q 395 503 366 431 q 338 648 366 576 q 280 792 309 720 z "},"@":{"ha":954,"x_min":14,"x_max":939,"o":"m 473 -189 q 219 -123 321 -189 q 65 57 117 -57 q 14 315 14 171 q 42 523 14 425 q 127 696 70 621 q 273 814 184 771 q 481 857 361 857 q 726 795 623 857 q 884 627 829 734 q 939 380 939 519 q 927 273 939 328 q 887 170 914 217 q 816 93 860 122 q 709 63 772 63 q 622 83 656 63 q 570 124 588 104 q 548 144 553 144 q 525 123 544 144 q 475 79 506 101 q 402 58 444 58 q 325 85 356 58 q 274 156 293 113 q 247 245 255 199 q 238 327 238 291 q 246 419 238 371 q 274 509 254 467 q 330 576 294 551 q 421 602 366 602 q 475 586 455 602 q 507 554 495 570 q 525 538 518 538 q 533 548 532 538 q 537 567 534 557 q 553 577 541 577 l 652 577 q 687 542 687 577 q 685 409 687 475 q 683 276 683 342 q 688 239 683 259 q 716 220 693 220 q 756 239 741 220 q 781 288 772 259 q 793 345 790 317 q 797 391 797 374 q 762 561 797 486 q 659 680 727 636 q 491 724 591 724 q 337 689 401 724 q 233 596 273 655 q 174 464 193 538 q 155 310 155 389 q 240 43 155 143 q 498 -56 326 -56 q 608 -41 557 -56 q 710 1 659 -26 q 721 5 715 3 q 732 7 726 7 q 747 2 741 7 q 759 -10 753 -3 q 780 -40 766 -19 q 793 -73 793 -61 q 789 -86 793 -81 q 780 -96 785 -92 q 688 -149 741 -128 q 579 -179 635 -170 q 473 -189 523 -189 m 463 197 q 505 219 489 197 q 523 264 520 241 q 524 287 524 275 q 524 309 524 298 q 525 350 524 330 q 525 391 525 371 q 506 440 525 416 q 461 464 487 464 q 420 440 433 464 q 406 385 408 416 q 403 334 403 355 q 406 281 403 314 q 421 223 409 249 q 463 197 434 197 z "},"&":{"ha":970,"x_min":43,"x_max":924,"o":"m 737 302 q 753 276 737 300 q 792 219 768 253 q 841 151 816 186 q 885 90 865 117 q 909 56 904 64 q 920 40 915 49 q 924 22 924 31 q 908 3 924 7 q 881 0 892 0 l 730 0 q 701 15 713 0 q 683 40 697 20 q 656 78 669 60 q 639 96 643 96 q 630 90 634 96 q 517 8 579 35 q 379 -18 454 -18 q 211 20 288 -18 q 89 128 135 58 q 43 293 43 197 q 106 489 43 406 q 267 617 168 572 q 275 626 275 621 q 272 634 275 629 q 221 735 244 681 q 197 846 197 790 q 232 977 197 922 q 326 1062 267 1032 q 458 1093 385 1093 q 609 1059 534 1093 q 730 963 683 1025 q 737 944 737 954 q 730 924 737 935 q 699 878 715 901 q 665 832 682 854 q 654 819 661 825 q 638 813 648 813 q 613 827 628 813 q 579 859 599 841 q 536 891 559 878 q 484 905 512 905 q 429 883 450 905 q 408 827 408 861 q 424 767 408 800 q 454 711 439 733 q 491 657 472 684 q 527 605 509 631 q 566 548 547 577 q 605 492 585 519 q 609 486 606 490 q 615 483 612 483 q 621 487 619 483 q 624 494 623 492 q 648 559 637 526 q 671 624 659 593 q 704 647 682 647 l 813 647 q 839 642 827 647 q 850 621 850 637 q 840 586 850 615 q 815 515 830 556 q 784 431 800 473 q 755 354 768 388 q 738 306 742 319 q 738 304 738 305 q 737 302 737 303 m 533 254 q 457 364 495 309 q 382 474 420 419 q 290 422 326 468 q 254 321 254 376 q 297 219 254 256 q 403 182 340 182 q 479 199 446 182 q 533 254 512 216 z "},"¶":{"ha":817,"x_min":34,"x_max":741,"o":"m 290 452 l 290 605 q 279 616 290 616 q 243 621 260 618 q 207 629 225 623 q 84 715 131 654 q 34 856 37 776 l 34 861 q 69 983 34 930 q 161 1065 104 1036 q 284 1095 218 1095 l 706 1095 q 741 1059 741 1095 q 739 969 741 1015 q 736 879 737 924 q 733 690 734 785 q 732 500 732 595 q 733 342 732 421 q 735 185 734 264 q 737 111 736 148 q 738 35 738 73 q 703 0 738 0 l 580 0 q 554 9 561 0 q 545 35 547 18 q 544 57 543 45 q 544 79 545 68 l 543 169 q 543 318 543 243 q 543 467 543 393 q 544 683 543 574 q 545 899 545 791 q 534 910 545 910 q 504 911 525 910 q 482 899 482 912 q 482 734 482 817 q 481 569 481 652 q 482 302 481 435 q 483 35 483 168 q 448 0 483 0 l 323 0 q 289 35 289 0 q 290 244 289 140 q 290 452 290 348 z "},"§":{"ha":667,"x_min":44,"x_max":621,"o":"m 320 -270 q 179 -248 254 -270 q 56 -178 104 -226 q 44 -155 44 -167 q 49 -138 44 -147 q 65 -109 56 -123 q 81 -80 73 -94 q 98 -47 90 -64 q 116 -14 106 -30 q 127 0 121 -7 q 144 7 134 7 q 180 -12 156 7 q 239 -52 205 -32 q 316 -72 274 -72 q 381 -47 358 -72 q 404 18 404 -22 q 383 70 404 50 q 334 102 362 90 q 280 121 305 113 q 169 171 220 139 q 87 252 118 203 q 57 369 57 300 q 76 472 57 426 q 140 553 95 517 q 147 563 147 558 q 142 572 147 566 q 90 661 105 616 q 75 764 75 706 q 143 973 75 892 q 345 1053 211 1053 q 474 1028 410 1053 q 582 955 538 1003 q 592 932 592 943 q 580 901 592 926 q 555 851 568 876 q 536 817 541 825 q 526 800 532 808 q 509 792 519 792 q 476 809 496 792 q 428 844 456 827 q 359 861 400 861 q 299 846 325 861 q 274 792 274 831 q 299 738 274 758 q 363 703 324 718 q 447 673 403 689 q 531 629 492 656 q 595 557 570 602 q 621 439 621 511 q 601 331 621 381 q 536 242 581 280 q 532 238 534 240 q 530 233 530 236 q 536 223 530 229 q 589 140 574 184 q 604 41 604 96 q 570 -114 604 -43 q 472 -227 536 -184 q 320 -270 409 -270 m 330 313 q 401 338 366 315 q 437 400 437 360 q 417 445 437 426 q 372 475 398 465 q 323 486 345 486 q 268 469 294 486 q 241 420 241 452 q 269 354 241 383 q 330 313 296 324 z "},"©":{"ha":928,"x_min":10,"x_max":918,"o":"m 464 -123 q 271 -74 355 -123 q 128 55 186 -26 q 40 233 70 135 q 10 428 10 330 l 10 439 q 39 639 10 541 q 125 819 68 738 q 268 948 182 900 q 465 997 353 997 q 660 949 576 997 q 802 821 745 901 q 888 644 859 741 q 918 446 918 546 l 918 428 q 887 233 918 330 q 799 55 857 136 q 657 -74 741 -25 q 464 -123 572 -123 m 464 49 q 600 85 543 49 q 694 182 657 122 q 749 312 731 242 q 768 450 768 382 q 750 586 768 518 q 694 708 732 653 q 600 797 657 764 q 466 831 543 831 q 332 798 390 831 q 236 711 275 766 q 178 590 197 656 q 159 455 159 524 l 159 441 q 178 306 159 375 q 236 179 197 237 q 332 85 275 121 q 464 49 389 49 m 585 374 q 604 365 596 374 q 616 347 612 355 q 632 320 621 339 q 652 282 643 301 q 662 258 662 264 q 654 238 662 250 q 573 170 625 197 q 470 144 520 144 q 370 171 413 144 q 297 241 326 197 q 254 337 269 286 q 239 439 239 389 q 262 583 239 513 q 338 697 286 652 q 475 742 391 742 q 553 730 509 742 q 622 695 597 719 q 631 675 631 686 q 621 644 631 669 q 600 593 611 619 q 585 559 589 568 q 576 544 581 552 q 561 536 570 536 q 532 547 548 536 q 492 557 516 557 q 447 539 463 557 q 425 495 431 521 q 418 447 418 470 q 425 399 418 425 q 447 355 431 373 q 491 336 463 336 q 530 346 514 336 q 559 365 547 355 q 585 374 572 374 z "},"®":{"ha":928,"x_min":27,"x_max":901,"o":"m 901 680 q 865 523 901 592 q 769 406 829 454 q 632 332 708 357 q 474 307 555 307 q 317 333 396 307 q 173 407 239 359 q 67 525 107 456 q 27 680 27 593 q 66 838 27 768 q 170 957 105 908 q 314 1030 235 1005 q 474 1055 393 1055 q 636 1030 559 1055 q 772 958 713 1006 q 867 840 832 910 q 901 680 901 770 m 479 421 q 621 452 556 421 q 724 542 685 484 q 763 681 763 600 q 724 823 763 766 q 619 910 684 881 q 474 940 553 940 q 328 909 399 940 q 211 821 257 879 q 165 681 165 764 q 193 572 165 621 q 265 490 220 524 q 365 439 310 456 q 474 421 419 421 l 479 421 m 309 827 q 343 861 309 861 l 490 861 q 598 836 552 861 q 644 739 644 810 q 628 682 644 708 q 586 638 612 656 q 580 629 580 635 q 590 603 580 622 q 612 563 601 584 q 623 529 623 543 q 609 509 623 513 q 584 505 596 505 l 519 505 q 486 528 495 505 l 454 609 q 444 616 452 616 q 434 600 433 616 q 438 561 435 583 q 434 522 440 539 q 402 505 428 505 l 345 505 q 310 540 310 505 q 309 683 310 612 q 309 827 309 755 m 466 702 q 496 709 484 702 q 509 736 509 715 q 466 776 509 776 l 436 776 q 437 739 437 758 q 437 702 437 720 l 466 702 z "},"™":{"ha":865,"x_min":31,"x_max":826,"o":"m 31 1020 q 66 1056 31 1056 l 304 1056 q 339 1021 338 1056 q 339 996 339 1008 q 340 969 340 983 q 328 939 340 945 q 299 935 315 933 q 271 936 283 936 q 259 923 259 935 l 261 720 q 226 685 261 685 l 153 685 q 119 720 120 685 q 118 792 118 755 q 117 865 117 829 q 116 894 116 879 q 115 924 117 909 q 96 936 114 937 q 68 935 77 935 q 33 968 33 935 q 32 994 32 981 q 31 1020 31 1007 m 434 685 q 399 720 399 685 q 399 855 399 787 q 399 991 399 923 q 401 1020 399 1001 q 419 1039 404 1039 q 449 1022 429 1039 q 495 980 470 1005 q 545 930 521 956 q 588 888 570 905 q 610 871 606 871 q 633 888 615 871 q 677 930 652 905 q 728 980 702 956 q 775 1022 754 1005 q 806 1039 797 1039 q 823 1022 821 1039 q 826 995 826 1004 l 826 989 q 823 854 824 922 q 820 719 823 787 q 785 685 819 685 l 710 685 q 683 704 684 685 q 682 741 682 722 q 682 751 682 744 q 676 759 681 759 q 658 744 669 759 q 635 713 648 728 q 608 697 623 697 q 581 713 594 697 q 556 746 567 730 q 536 762 545 762 q 531 755 532 762 q 530 745 530 748 q 529 706 530 726 q 500 685 528 685 l 434 685 z "},"°":{"ha":578,"x_min":47,"x_max":524,"o":"m 47 818 q 70 894 47 862 q 131 947 94 926 q 209 979 168 968 q 288 989 251 989 q 365 978 324 989 q 443 947 406 968 q 502 893 479 926 q 524 818 524 861 q 502 743 524 775 q 444 690 479 711 q 367 658 408 669 q 291 647 327 647 l 286 647 q 208 657 249 647 q 130 689 166 667 q 70 742 93 710 q 47 818 47 774 m 289 759 q 346 772 315 759 q 377 817 377 786 q 346 861 377 849 q 290 873 315 873 q 252 868 273 873 q 216 849 231 862 q 200 817 200 837 q 216 784 200 796 q 252 765 231 771 q 289 759 273 759 z "},"|":{"ha":432,"x_min":86,"x_max":342,"o":"m 90 987 q 124 1022 90 1022 l 304 1022 q 339 987 339 1022 q 338 739 339 863 q 337 490 337 614 q 339 -50 337 220 q 341 -178 340 -113 q 342 -307 342 -242 q 308 -342 342 -342 l 121 -342 q 86 -307 86 -342 q 87 -178 86 -242 q 90 -50 89 -113 q 92 490 92 220 q 91 739 92 614 q 90 987 90 863 z "},"¦":{"ha":393,"x_min":72,"x_max":329,"o":"m 75 987 q 110 1022 75 1022 l 291 1022 q 326 987 326 1022 q 325 766 326 876 q 323 545 323 656 q 289 511 323 511 l 112 511 q 77 545 77 511 q 76 766 77 656 q 75 987 75 876 m 72 -309 q 74 -86 72 -197 q 77 137 77 26 q 111 172 77 172 l 290 172 q 324 137 324 172 q 327 -86 324 26 q 329 -309 329 -197 q 294 -344 329 -344 l 106 -344 q 72 -309 72 -344 z "},"†":{"ha":717,"x_min":90,"x_max":625,"o":"m 90 659 q 125 694 90 694 l 224 694 q 236 706 236 694 q 235 792 236 749 q 235 877 233 835 q 270 912 235 912 l 448 912 q 484 877 484 912 q 483 815 484 846 q 483 753 483 784 q 482 730 482 742 q 482 706 481 718 q 494 694 484 694 l 590 694 q 625 659 625 694 q 625 602 625 630 q 625 544 625 573 q 590 509 625 509 l 493 509 q 482 498 482 509 q 483 241 482 370 q 484 -16 484 113 q 450 -52 484 -52 l 269 -52 q 234 -16 234 -52 q 235 241 234 113 q 236 498 236 370 q 225 509 236 509 l 125 509 q 91 544 91 509 q 91 602 91 573 q 90 659 90 630 z "},"‡":{"ha":729,"x_min":60,"x_max":670,"o":"m 60 286 q 61 343 60 315 q 61 401 61 372 q 96 435 61 435 l 231 435 q 242 447 242 435 l 242 498 q 231 509 242 509 l 132 509 q 97 544 97 509 q 97 602 97 573 q 96 659 96 630 q 132 694 96 694 l 231 694 q 242 706 242 694 q 241 791 242 749 q 241 877 240 834 q 276 912 241 912 l 454 912 q 490 877 490 912 q 489 816 490 846 q 489 755 489 786 q 488 731 489 744 q 488 706 488 718 q 500 694 490 694 l 597 694 q 632 659 632 694 q 632 602 632 630 q 631 544 631 573 q 597 509 631 509 l 499 509 q 488 498 488 509 l 488 447 q 499 435 488 435 l 635 435 q 669 401 669 435 q 670 343 669 372 q 670 286 670 315 q 635 250 670 250 l 500 250 q 489 240 489 250 q 490 112 489 176 q 490 -16 490 48 q 456 -52 490 -52 l 275 -52 q 240 -16 240 -52 q 241 111 240 47 q 242 239 242 175 q 231 250 242 250 l 95 250 q 60 286 60 250 z "},"^":{"ha":724,"x_min":138,"x_max":580,"o":"m 453 699 q 421 712 439 699 q 386 738 403 725 q 358 751 369 751 q 333 738 349 751 q 298 712 316 725 q 266 699 280 699 l 187 699 q 158 702 177 699 q 138 720 138 705 q 147 741 138 730 q 162 758 155 751 q 248 848 205 803 q 334 937 291 893 q 346 947 340 943 q 359 951 352 951 q 373 947 366 951 q 384 938 379 943 q 471 849 428 895 q 556 758 513 804 q 571 741 563 751 q 580 720 580 730 q 560 702 580 705 q 531 699 541 699 l 453 699 z "},"̈":{"ha":277,"x_min":57,"x_max":606,"o":"m 57 779 q 92 857 57 824 q 171 889 126 889 q 250 857 215 889 q 286 779 286 824 q 250 702 286 734 q 170 671 214 671 q 91 702 125 671 q 57 779 57 733 m 378 779 q 414 857 378 825 q 495 889 450 889 q 573 856 539 889 q 606 779 606 823 q 570 703 606 736 q 492 671 534 671 q 412 701 446 671 q 378 779 378 731 z "},"̇":{"ha":123,"x_min":35,"x_max":281,"o":"m 35 887 q 54 943 35 920 q 101 980 73 967 q 159 994 130 994 q 243 964 205 994 q 281 886 281 934 q 262 830 281 854 q 215 793 243 806 q 157 780 186 780 q 74 810 113 780 q 35 887 35 840 z "},"̀":{"ha":176,"x_min":63,"x_max":355,"o":"m 250 699 q 227 708 236 699 l 91 832 q 74 850 84 839 q 63 873 63 862 q 84 890 63 888 q 115 892 105 892 l 254 892 q 284 873 274 892 l 347 749 q 352 737 350 743 q 355 723 355 730 q 341 703 355 707 q 316 699 328 699 l 250 699 z "},"́":{"ha":189,"x_min":119,"x_max":430,"o":"m 374 892 q 393 892 380 892 q 418 887 407 891 q 430 873 430 883 q 416 849 430 862 q 395 830 403 836 q 319 768 357 800 q 243 707 281 737 q 221 699 233 699 l 161 699 q 135 703 151 699 q 119 722 119 706 q 123 738 119 730 q 132 753 127 746 q 172 815 152 784 q 213 877 192 847 q 241 892 223 892 l 374 892 z "},"̂":{"ha":304,"x_min":49,"x_max":571,"o":"m 420 699 q 380 719 404 699 q 335 759 357 739 q 304 779 314 779 q 281 763 300 779 q 245 730 263 747 q 222 708 227 712 q 198 699 212 699 l 100 699 q 70 702 92 699 q 49 719 49 704 q 60 741 49 730 q 77 760 71 753 q 181 853 129 806 q 286 945 233 901 q 296 952 291 949 q 309 956 302 956 q 321 952 315 956 q 332 945 327 949 q 437 853 385 900 q 542 760 490 806 q 560 741 549 753 q 571 719 571 730 q 550 702 571 704 q 519 699 528 699 l 420 699 z "},"̌":{"ha":304,"x_min":20,"x_max":549,"o":"m 172 971 q 214 951 190 971 q 259 911 237 931 q 290 891 280 891 q 317 911 298 891 q 358 951 336 931 q 397 971 380 971 l 496 971 q 527 969 505 971 q 549 951 549 966 q 537 929 549 941 q 518 910 526 917 q 414 817 466 864 q 309 724 362 770 q 299 717 304 720 q 286 714 293 714 q 274 717 279 714 q 263 724 269 720 q 157 817 210 770 q 51 910 104 864 q 32 929 44 917 q 20 951 20 941 q 43 969 20 966 q 74 971 65 971 l 172 971 z "},"̊":{"ha":180,"x_min":41,"x_max":399,"o":"m 41 815 q 67 900 41 866 q 133 951 92 934 q 220 968 174 968 q 307 951 267 968 q 373 901 348 935 q 399 817 399 867 q 345 700 399 741 q 220 659 291 659 q 133 677 174 659 q 67 730 92 695 q 41 815 41 765 m 158 810 q 183 767 158 781 q 233 752 208 752 q 273 771 263 752 q 283 817 283 790 q 272 857 283 843 q 233 870 261 870 q 182 856 206 870 q 158 810 158 842 z "},"̃":{"ha":275,"x_min":62,"x_max":608,"o":"m 608 850 q 589 762 608 804 q 534 695 570 721 q 448 669 498 669 q 374 683 406 669 q 317 715 342 696 q 270 747 292 733 q 224 761 248 761 q 190 748 199 761 q 179 717 182 734 q 168 687 176 700 q 137 673 161 673 q 116 672 126 672 q 95 672 106 672 q 62 706 62 672 q 109 840 62 784 q 237 895 156 895 q 302 880 272 895 q 358 844 332 865 q 406 809 384 824 q 449 793 429 793 q 480 808 473 793 q 489 842 487 823 q 497 875 490 861 q 527 890 504 890 q 566 891 547 890 q 596 884 585 892 q 608 850 608 877 z "},"̧":{"ha":221,"x_min":5,"x_max":445,"o":"m 5 -272 q 19 -244 5 -260 q 41 -220 33 -229 q 53 -209 46 -214 q 69 -205 60 -205 q 108 -217 85 -205 q 165 -229 132 -229 q 201 -224 180 -229 q 238 -209 222 -220 q 254 -180 254 -198 q 238 -151 254 -160 q 202 -138 222 -141 q 167 -136 182 -136 q 125 -140 146 -136 q 88 -145 104 -145 q 58 -120 65 -145 q 49 -92 55 -107 q 43 -64 43 -77 q 60 -36 43 -46 q 90 -17 69 -31 q 130 7 110 -4 q 159 19 151 19 l 290 20 q 301 19 294 20 q 309 12 309 18 q 299 -5 309 5 q 279 -24 290 -15 q 269 -39 269 -33 q 275 -45 269 -44 q 283 -47 281 -46 q 358 -66 321 -52 q 420 -108 395 -81 q 445 -180 445 -135 q 419 -260 445 -229 q 353 -310 393 -292 q 269 -335 313 -328 q 186 -342 224 -342 q 99 -331 144 -342 q 20 -294 54 -319 q 5 -272 5 -284 z "},"̵":{"ha":256,"x_min":18,"x_max":521,"o":"m 18 602 q 53 637 18 637 l 486 637 q 521 602 521 637 q 520 538 521 570 q 520 473 520 505 q 486 439 520 439 l 53 439 q 18 473 18 439 l 18 602 z "},"´":{"ha":514,"x_min":64,"x_max":427,"o":"m 365 892 q 386 892 371 892 q 414 887 401 891 q 427 873 427 884 q 410 848 427 862 q 385 829 393 834 q 294 766 339 798 q 203 705 250 735 q 184 699 195 699 l 109 699 q 81 702 98 699 q 64 720 64 705 q 70 739 64 730 q 81 755 76 749 q 130 819 105 787 q 179 880 154 850 q 206 892 190 892 l 365 892 z "},"˘":{"ha":514,"x_min":48,"x_max":467,"o":"m 258 669 q 149 702 191 669 q 85 788 108 736 q 50 898 62 841 q 48 911 48 906 q 58 933 48 927 q 83 939 68 939 l 139 939 q 173 911 165 939 q 203 842 184 874 q 268 809 222 809 q 311 826 298 809 q 331 867 325 842 q 342 913 336 891 q 374 939 348 939 l 431 939 q 456 932 446 939 q 467 910 467 926 q 465 898 467 906 q 432 790 454 842 q 369 703 410 737 q 262 669 329 669 l 258 669 z "},"ˇ":{"ha":514,"x_min":41,"x_max":466,"o":"m 165 966 q 201 947 183 966 q 233 908 218 928 q 258 889 248 889 q 280 908 267 889 q 308 947 292 928 q 343 966 324 966 l 418 966 q 447 963 429 966 q 466 945 466 960 q 458 925 466 935 q 444 907 450 914 q 364 817 404 863 q 283 728 324 772 q 271 718 278 722 q 257 713 264 713 q 243 718 249 713 q 231 728 237 722 q 148 817 189 772 q 64 907 106 862 q 49 924 58 913 q 41 945 41 935 q 60 963 41 960 q 90 966 79 966 l 165 966 z "},"¸":{"ha":514,"x_min":46,"x_max":477,"o":"m 46 -272 q 60 -245 46 -261 q 81 -220 73 -229 q 93 -210 86 -214 q 109 -205 100 -205 q 146 -217 123 -205 q 203 -229 170 -229 q 237 -224 216 -229 q 274 -209 258 -220 q 290 -180 290 -198 q 274 -151 290 -160 q 239 -138 259 -141 q 205 -136 220 -136 q 164 -140 184 -136 q 129 -145 144 -145 q 110 -138 117 -145 q 100 -119 103 -130 q 91 -92 96 -106 q 85 -64 85 -77 q 102 -37 85 -48 q 131 -17 111 -31 q 172 7 151 -4 q 200 19 192 19 l 328 20 q 339 19 331 20 q 347 12 347 18 q 337 -5 347 5 q 317 -24 327 -14 q 307 -39 307 -33 q 312 -45 307 -44 q 321 -47 318 -47 q 393 -67 357 -54 q 453 -107 429 -81 q 477 -177 477 -134 q 452 -258 477 -226 q 388 -309 427 -290 q 304 -334 349 -327 q 221 -342 260 -342 q 136 -331 179 -342 q 60 -294 94 -319 q 46 -272 46 -284 z "},"ˆ":{"ha":514,"x_min":42,"x_max":463,"o":"m 340 696 q 304 715 321 696 q 274 753 288 734 q 249 772 260 772 q 226 753 239 772 q 199 715 214 734 q 164 696 184 696 l 89 696 q 60 699 79 696 q 42 716 42 701 q 50 736 42 726 q 63 753 57 747 q 143 845 103 799 q 224 935 183 890 q 236 944 230 940 q 251 949 243 949 q 265 945 258 949 q 276 935 271 941 q 359 846 318 891 q 441 754 401 800 q 455 736 448 747 q 463 716 463 726 q 445 699 463 701 q 416 696 426 696 l 340 696 z "},"¨":{"ha":514,"x_min":43,"x_max":472,"o":"m 288 776 q 313 852 288 816 q 382 889 339 889 q 430 872 410 889 q 461 829 450 854 q 472 779 472 804 q 460 730 472 755 q 428 688 449 705 q 381 671 408 671 q 314 704 340 671 q 288 776 288 737 m 135 671 q 67 707 92 671 q 43 783 43 743 q 69 854 43 821 q 134 887 94 887 q 201 852 176 887 q 227 779 227 817 q 202 706 227 741 q 135 671 176 671 z "},"˙":{"ha":514,"x_min":106,"x_max":407,"o":"m 106 887 q 132 947 106 923 q 193 982 157 970 q 259 994 229 994 q 325 982 290 994 q 383 946 359 970 q 407 886 407 922 q 382 826 407 850 q 323 792 358 803 q 258 781 289 781 q 193 792 229 781 q 132 827 157 804 q 106 887 106 851 z "},"`":{"ha":514,"x_min":74,"x_max":431,"o":"m 302 699 q 281 706 291 699 q 197 767 238 736 q 113 829 155 799 q 90 849 105 836 q 74 873 74 863 q 86 887 74 884 q 114 892 99 891 q 134 892 128 892 l 308 892 q 336 877 326 892 l 418 753 q 427 738 423 746 q 431 721 431 730 q 416 703 431 706 q 390 699 401 699 l 302 699 z "},"˝":{"ha":514,"x_min":24,"x_max":477,"o":"m 210 892 q 238 890 220 892 q 256 872 256 887 q 249 852 256 863 q 235 834 241 841 q 180 772 208 803 q 124 711 153 741 q 98 699 114 699 l 62 699 q 36 704 49 699 q 24 724 24 708 q 32 750 24 730 q 50 795 39 770 q 71 842 61 821 q 84 871 80 863 q 116 892 94 892 l 210 892 m 429 890 q 458 887 439 890 q 477 869 477 884 q 469 849 477 860 q 455 831 461 838 q 399 769 427 800 q 342 707 372 737 q 317 696 332 696 l 280 696 q 255 700 268 696 q 243 720 243 705 q 251 746 243 726 q 270 792 258 767 q 291 840 281 818 q 304 869 300 861 q 336 890 315 890 l 429 890 z "},"¯":{"ha":514,"x_min":43,"x_max":471,"o":"m 43 764 q 78 800 43 800 l 436 800 q 471 764 471 800 q 470 726 471 745 q 470 686 470 706 q 435 652 470 652 l 79 652 q 44 686 44 652 q 44 726 44 706 q 43 764 43 745 z "},"ˉ":{"ha":514,"x_min":43,"x_max":471,"o":"m 43 764 q 78 800 43 800 l 436 800 q 471 764 471 800 q 470 726 471 745 q 470 686 470 706 q 435 652 470 652 l 79 652 q 44 686 44 652 q 44 726 44 706 q 43 764 43 745 z "},"˛":{"ha":514,"x_min":38,"x_max":468,"o":"m 38 -151 q 76 -51 38 -95 q 163 12 113 -7 q 174 14 168 14 l 177 14 l 292 7 q 311 6 296 7 q 340 2 326 5 q 354 -7 354 -1 q 333 -27 354 -16 q 286 -51 313 -37 q 238 -84 259 -65 q 218 -130 218 -103 q 280 -189 218 -189 q 334 -176 313 -189 q 368 -150 354 -163 q 395 -137 382 -137 q 412 -143 405 -137 q 425 -157 420 -150 q 450 -191 432 -168 q 468 -228 468 -214 q 460 -248 468 -237 q 366 -314 425 -290 q 252 -338 307 -338 q 149 -316 197 -338 q 69 -252 100 -294 q 38 -151 38 -210 z "},"˚":{"ha":514,"x_min":24,"x_max":475,"o":"m 24 820 q 60 911 24 878 q 148 959 96 945 q 248 973 200 973 q 348 959 295 973 q 438 910 401 944 q 475 818 475 876 q 453 747 475 777 q 396 699 431 717 q 322 671 361 680 q 249 663 283 663 q 150 678 202 663 q 60 729 97 694 q 24 820 24 764 m 167 816 q 194 770 167 783 q 248 758 220 758 q 304 771 275 758 q 333 819 333 785 q 304 864 333 853 q 248 875 276 875 q 193 863 219 875 q 167 816 167 851 z "},"˜":{"ha":514,"x_min":20,"x_max":500,"o":"m 500 879 q 493 810 500 848 q 470 738 486 772 q 427 681 454 703 q 360 659 399 659 q 293 676 321 659 q 242 716 264 694 q 202 756 220 739 q 165 773 183 773 q 140 760 149 773 q 129 731 132 747 q 125 702 126 714 q 117 672 125 682 q 87 663 109 663 q 37 665 54 663 q 20 708 20 668 q 35 808 20 755 q 84 898 50 861 q 176 935 118 935 q 233 916 207 935 q 282 873 260 897 q 323 830 304 848 q 358 811 342 811 q 381 825 374 811 q 390 858 389 840 q 392 887 392 876 q 398 918 392 907 q 427 930 404 930 q 469 930 453 930 q 493 920 486 930 q 500 879 500 909 z "},"\u0000":{"ha":0,"x_min":0,"x_max":0,"o":""},"∂":{"ha":589,"x_min":68,"x_max":532,"o":"m 68 0 l 68 933 l 532 933 l 532 0 l 68 0 m 96 27 l 505 27 l 505 906 l 96 906 l 96 27 z "},"Ω":{"ha":716,"x_min":68,"x_max":648,"o":"m 68 0 l 68 933 l 648 933 l 648 0 l 68 0 m 96 27 l 621 27 l 621 906 l 96 906 l 96 27 z "},"Ω":{"ha":716,"x_min":68,"x_max":648,"o":"m 68 0 l 68 933 l 648 933 l 648 0 l 68 0 m 96 27 l 621 27 l 621 906 l 96 906 l 96 27 z "}}}
